<svg xmlns="http://www.w3.org/2000/svg" viewBox="0 0 570.5 701.1"><style type="text/css">  
	.st0{fill:#F0F0F0;}
</style><path class="st0" d="M363.7 320.3c75.8-28.7 161.7-73.7 161.7-165.8C525.4 32.7 408.8 0 236.8 0h-39.9L0 110.1l63.6 128.3L63.8 701h163.8c145.3 0 342.9-39.9 342.9-187.3C570.5 409.4 491.6 349 363.7 320.3zM231.7 32.7c70.6 0 161.7 19.4 161.7 142.3 0 79.8-65.5 139.2-196.5 139.2V32.7H231.7zM228.6 661.1h-31.8V339.8c131 0 223.1 35.8 223.1 170.9C420 608.9 333 661.1 228.6 661.1L228.6 661.1z"/></svg>
