<?xml version="1.0" encoding="utf-8"?>
<!-- Generator: Adobe Illustrator 22.1.0, SVG Export Plug-In . SVG Version: 6.00 Build 0)  -->
<svg version="1.1" id="B_x5F_Simbolo" xmlns="http://www.w3.org/2000/svg" xmlns:xlink="http://www.w3.org/1999/xlink" x="0px"
	 y="0px" viewBox="0 0 570.5 701.1" style="enable-background:new 0 0 570.5 701.1;" xml:space="preserve">
<style type="text/css">
	.st0{fill:#F0F0F0;}
</style>
<path class="st0" d="M363.7,320.3c75.8-28.7,161.7-73.7,161.7-165.8C525.4,32.7,408.8,0,236.8,0h-39.9L0,110.1l63.6,128.3L63.8,701
	h163.8c145.3,0,342.9-39.9,342.9-187.3C570.5,409.4,491.6,349,363.7,320.3z M231.7,32.7c70.6,0,161.7,19.4,161.7,142.3
	c0,79.8-65.5,139.2-196.5,139.2V32.7H231.7z M228.6,661.1h-31.8V339.8c131,0,223.1,35.8,223.1,170.9
	C420,608.9,333,661.1,228.6,661.1L228.6,661.1z"/>
</svg>
