<?xml version="1.0" encoding="utf-8"?>
<!-- Generator: Adobe Illustrator 22.1.0, SVG Export Plug-In . SVG Version: 6.00 Build 0)  -->
<svg version="1.1" id="B" xmlns="http://www.w3.org/2000/svg" xmlns:xlink="http://www.w3.org/1999/xlink" x="0px" y="0px"
	 viewBox="0 0 241.5 296.8" style="enable-background:new 0 0 241.5 296.8;" xml:space="preserve">
<style type="text/css">
	.st0{fill:#FFFFFF;}
</style>
<path class="st0" d="M154,135.6c32.1-12.1,68.5-31.2,68.5-70.2C222.5,13.9,173.1,0,100.3,0H83.4L0,46.6l26.9,54.3L27,296.8h69.3
	c61.5,0,145.2-16.9,145.2-79.3C241.5,173.3,208.2,147.8,154,135.6z M98.1,13.9c29.9,0,68.5,8.2,68.5,60.2
	c0,33.8-27.7,58.9-83.2,58.9V13.9L98.1,13.9z M96.8,279.9H83.4V143.9c55.5,0,94.5,15.2,94.5,72.4C177.8,257.8,141,279.9,96.8,279.9
	L96.8,279.9z"/>
</svg>
