<svg xmlns="http://www.w3.org/2000/svg" width="360.912" height="59.98" viewBox="0 0 360.912 59.98">
  <g id="Barra_logos_2" data-name="Barra logos 2" transform="translate(-677.597 -2241)">
    <g id="Grupo_447" data-name="Grupo 447" transform="translate(677.597 2270.138)">
      <path id="Caminho_470" data-name="Caminho 470" d="M690.11,825.194a5.487,5.487,0,0,1-2.452,1.491,4.2,4.2,0,0,1-1.05.134,5.064,5.064,0,0,1-.588-.035,4.663,4.663,0,0,1-3.984-4.546,4.406,4.406,0,0,1,1.357-3.222,4.3,4.3,0,0,1,3.215-1.342,4.97,4.97,0,0,1,3.5,1.607l1.768-1.7a7.4,7.4,0,0,0-5.271-2.342,7,7,0,1,0,0,14.007,6.692,6.692,0,0,0,4.806-1.916c.156-.135.311-.276.464-.425Z" transform="translate(-679.604 -815.091)" fill="#fff"/>
      <path id="Caminho_471" data-name="Caminho 471" d="M756.852,829.317h-2.43v-8.469l-3.091,8.469h-2.269l-3.09-8.5v8.5h-2.43V815.935h3.234l3.412,9.379,3.43-9.379h3.233Z" transform="translate(-713.759 -815.46)" fill="#fff"/>
      <path id="Caminho_472" data-name="Caminho 472" d="M787.2,819.884a3.607,3.607,0,0,1-1.34,2.858,4.415,4.415,0,0,1-3,1.09h-3.323v5.485H777.1V815.935h5.753a4.477,4.477,0,0,1,2.984,1.073A3.672,3.672,0,0,1,787.2,819.884Zm-2.431,0a1.276,1.276,0,0,0-.573-1.089,2.148,2.148,0,0,0-1.327-.43h-3.335V821.4h3.335a2.156,2.156,0,0,0,1.327-.429A1.278,1.278,0,0,0,784.765,819.884Z" transform="translate(-731.686 -815.46)" fill="#fff"/>
      <path id="Caminho_473" data-name="Caminho 473" d="M812.2,829.317h-9.63V815.935h9.63v2.43H805V821.4h5.628v2.429H805v3.055h7.2Z" transform="translate(-745.29 -815.46)" fill="#fff"/>
      <path id="Caminho_474" data-name="Caminho 474" d="M837.388,818.365h-4.056v10.951H830.9V818.365h-4.056v-2.43h10.542Z" transform="translate(-758.26 -815.46)" fill="#fff"/>
      <path id="Caminho_475" data-name="Caminho 475" d="M862.789,829.317h-9.63V815.935h9.63v2.43h-7.2V821.4h5.628v2.429h-5.628v3.055h7.2Z" transform="translate(-772.316 -815.46)" fill="#fff"/>
      <g id="Grupo_446" data-name="Grupo 446" transform="translate(13.846 0)">
        <path id="Caminho_476" data-name="Caminho 476" d="M722.56,814.968c.131-.014.289-.026.546-.046C722.859,814.935,722.735,814.943,722.56,814.968Z" transform="translate(-716.396 -814.919)" fill="#fff"/>
        <path id="Caminho_477" data-name="Caminho 477" d="M718.859,815.727c.268-.094.43-.151.571-.195C719.258,815.581,719.112,815.632,718.859,815.727Z" transform="translate(-714.419 -815.245)" fill="#fff"/>
        <path id="Caminho_478" data-name="Caminho 478" d="M735.3,840.185l0,0-.057.062Z" transform="translate(-723.173 -828.413)" fill="#fff"/>
        <path id="Caminho_479" data-name="Caminho 479" d="M720.084,815.359c.15-.042.318-.083.6-.15C720.407,815.269,720.264,815.3,720.084,815.359Z" transform="translate(-715.074 -815.072)" fill="#fff"/>
        <path id="Caminho_480" data-name="Caminho 480" d="M721.369,815.108c.265-.044.424-.07.555-.088C721.744,815.039,721.617,815.06,721.369,815.108Z" transform="translate(-715.76 -814.971)" fill="#fff"/>
        <path id="Caminho_481" data-name="Caminho 481" d="M723.788,814.916l-.057,0h.176C723.867,814.917,723.831,814.915,723.788,814.916Z" transform="translate(-717.022 -814.916)" fill="#fff"/>
        <path id="Caminho_482" data-name="Caminho 482" d="M727.349,844.669l.014,0-.021.005Z" transform="translate(-718.951 -830.808)" fill="#fff"/>
        <path id="Caminho_483" data-name="Caminho 483" d="M709.355,828.336c.011-.164.032-.347.067-.654C709.382,827.976,709.364,828.148,709.355,828.336Z" transform="translate(-709.342 -821.735)" fill="#fff"/>
        <path id="Caminho_484" data-name="Caminho 484" d="M727.841,844.381l.091-.033c-.172.054-.353.1-.545.148C727.527,844.462,727.706,844.421,727.841,844.381Z" transform="translate(-718.975 -830.638)" fill="#fff"/>
        <path id="Caminho_485" data-name="Caminho 485" d="M709.608,826.4c-.034.169-.084.395-.11.565.054-.278.089-.461.13-.629C709.621,826.354,709.614,826.372,709.608,826.4Z" transform="translate(-709.419 -821.014)" fill="#fff"/>
        <path id="Caminho_486" data-name="Caminho 486" d="M738.755,834.143c.007-.025.012-.048.019-.073-.012.043-.022.082-.035.127Z" transform="translate(-725.039 -825.148)" fill="#fff"/>
        <path id="Caminho_487" data-name="Caminho 487" d="M714.023,818.462a.379.379,0,0,1,.04-.031c.232-.209.373-.333.542-.461A6.007,6.007,0,0,0,714.023,818.462Z" transform="translate(-711.836 -816.547)" fill="#fff"/>
        <path id="Caminho_488" data-name="Caminho 488" d="M715.272,817.586c.115-.084.259-.184.478-.335C715.539,817.393,715.4,817.491,715.272,817.586Z" transform="translate(-712.503 -816.163)" fill="#fff"/>
        <path id="Caminho_489" data-name="Caminho 489" d="M716.456,816.875l-.158.1c.178-.1.307-.179.42-.242C716.633,816.776,716.547,816.822,716.456,816.875Z" transform="translate(-713.051 -815.886)" fill="#fff"/>
        <path id="Caminho_490" data-name="Caminho 490" d="M712.742,819.84a.566.566,0,0,0-.082.076c-.111.137-.264.316-.369.457l.08-.1C712.51,820.1,712.636,819.959,712.742,819.84Z" transform="translate(-710.911 -817.546)" fill="#fff"/>
        <path id="Caminho_491" data-name="Caminho 491" d="M714.016,819.029l0,0,0,0Z" transform="translate(-711.832 -817.112)" fill="#fff"/>
        <path id="Caminho_492" data-name="Caminho 492" d="M709.34,829.9v-.033c0-.04,0-.081-.007-.127,0-.219,0-.373.009-.515,0,.05-.006.1-.008.147,0-.11,0-.2.008-.291-.01.145-.013.276-.012.464,0,.018,0,.033,0,.051,0,.084,0,.178,0,.294v-.15Z" transform="translate(-709.328 -822.486)" fill="#fff"/>
        <path id="Caminho_493" data-name="Caminho 493" d="M711.6,838.2c-.036-.056-.071-.112-.1-.168l.032.055c.088.147.13.21.24.367l.045.06c-.039-.054-.076-.108-.111-.161Z" transform="translate(-710.483 -827.263)" fill="#fff"/>
        <path id="Caminho_494" data-name="Caminho 494" d="M713.832,841.006c.1.1.151.146.276.257l.014.012-.031-.027C714,841.166,713.914,841.085,713.832,841.006Z" transform="translate(-711.734 -828.853)" fill="#fff"/>
        <path id="Caminho_495" data-name="Caminho 495" d="M712.875,839.966c-.075-.084-.144-.168-.211-.251C712.742,839.817,712.786,839.867,712.875,839.966Z" transform="translate(-711.11 -828.164)" fill="#fff"/>
        <path id="Caminho_496" data-name="Caminho 496" d="M731.7,817.16h0l-.018-.011Z" transform="translate(-721.268 -816.109)" fill="#fff"/>
        <path id="Caminho_497" data-name="Caminho 497" d="M734.015,841.722l-.09.074h0Z" transform="translate(-722.468 -829.236)" fill="#fff"/>
        <path id="Caminho_498" data-name="Caminho 498" d="M715.966,842.743l-.109-.075-.065-.043Z" transform="translate(-712.781 -829.718)" fill="#fff"/>
        <path id="Caminho_499" data-name="Caminho 499" d="M739.039,833.059l.01-.054,0,.012c-.023.115-.053.247-.086.378.021-.08.041-.166.075-.322C739.036,833.068,739.038,833.064,739.039,833.059Z" transform="translate(-725.158 -824.579)" fill="#fff"/>
        <path id="Caminho_500" data-name="Caminho 500" d="M709.631,827.194l0-.014c.006-.028.01-.056.016-.083C709.643,827.128,709.638,827.161,709.631,827.194Z" transform="translate(-709.49 -821.423)" fill="#fff"/>
        <path id="Caminho_501" data-name="Caminho 501" d="M723.336,822.294c0,.021,0,.04-.006.059s-.006.047-.008.068a6,6,0,0,0-1.125-3.657,4.808,4.808,0,0,0-1.478-2.15l-.014-.011c-.032-.027-.069-.051-.1-.077-.095-.072-.19-.144-.272-.2s-.195-.126-.3-.191c.108.07.209.14.305.212a3.917,3.917,0,0,1,1.339,1.717,9.977,9.977,0,0,0-.8-.854l-.006-.007-.044-.038c-.106-.135-.134-.169-.247-.3a6.341,6.341,0,0,0-1.488-1.28,10.371,10.371,0,0,1,1.7.944c-.152-.123-.31-.243-.467-.359a7.148,7.148,0,0,0-2.241-1.028l-.089-.023-.018-.005a7,7,0,0,0-.926-.158,5.837,5.837,0,0,0-.837-.032,3.283,3.283,0,0,1,.674.075,8.258,8.258,0,0,0-3.645.645c.179-.085.368-.171.526-.24a6.881,6.881,0,0,0-.65.3l-.089.044-.075.04.1-.049-.059.033a5.2,5.2,0,0,1,1.185-.441,7.033,7.033,0,0,0-2.569,1.447.476.476,0,0,0-.056.032l-.115.1c-.2.213-.45.5-.651.741-.04.051-.081.1-.122.161l.042-.063c-.026.036-.047.068-.071.1-.113.155-.231.333-.354.542l-.1.18.037-.061a9.254,9.254,0,0,0-.444.954,7.577,7.577,0,0,0-.237.774,2.371,2.371,0,0,1,.211-.536c-.087.263-.145.438-.189.6,0,.009,0,.018-.008.027-.015.06-.03.121-.044.185s-.023.1-.034.16c0,.024-.01.048-.014.07s0,.02-.006.029c-.014.074-.028.156-.045.247.012-.061.024-.131.037-.2,0,.021-.006.042-.01.062a6.655,6.655,0,0,0-.08.8,3.947,3.947,0,0,0-.022.451c0,.05,0,.112.006.167.011.2.023.328.047.495-.012-.109-.018-.207-.021-.3.011.143.026.28.042.408.012.093.026.179.039.264-.027-.155-.046-.273-.06-.373q.01.092.025.192l.039.211c0-.016-.009-.034-.012-.049s-.007-.026-.01-.039c-.024-.107-.043-.208-.055-.3,0-.022-.006-.043-.009-.064,0,.059.01.111.015.159a5.705,5.705,0,0,0,.093.573l-.042-.233c0,.026.01.052.016.081.015.073.034.158.06.254a8.313,8.313,0,0,0,1.09,2.445,5.886,5.886,0,0,1-.5-.769l-.015-.028c-.007-.015-.049-.094-.1-.209l-.025-.058c-.025-.058-.053-.122-.079-.185.034.081.06.145.083.2.057.129.1.211.185.376l.149.26c.11.173.248.378.36.533a8.122,8.122,0,0,0,1.387,1.454l-.1-.076c.108.089.169.134.292.224l.073.053.031.022c-.02-.014-.038-.027-.055-.04l0,0h0l-.014-.01.011.007-.027-.02-.041-.031c.057.042.116.085.178.127l.01.007.009.006.168.109c.039.026.074.048.1.067l0,0c.145.092.205.124.365.208l.051.027-.008,0-.132-.074c-.1-.058-.216-.122-.3-.177h0l-.006,0a6.721,6.721,0,0,1-1.479-1.284l.167.164a8.066,8.066,0,0,0,3.706,1.966,7.116,7.116,0,0,0,1.534.172,5.869,5.869,0,0,0,1.139-.108l.007,0,.4-.094-.276.064-.039.009-.01,0a6.993,6.993,0,0,1-2.54-.028,7.614,7.614,0,0,1-1.684-.544,4.848,4.848,0,0,0,3.668.058c.1.013.2.027.3.034.183.017.357.025.522.025a4.762,4.762,0,0,0,.756-.06c-.177.085-.357.158-.537.224a5.572,5.572,0,0,0,.645-.243c.122-.023.24-.048.349-.079.075-.021.148-.044.217-.068a3.741,3.741,0,0,0,.87-.439l.1-.075-.089.067c.034-.024.062-.047.094-.07l0,0,.006,0h0c.116-.084.219-.165.312-.241l-.029.021-.139.094a3.612,3.612,0,0,1-.744.365c-.075.026-.15.05-.225.072-.041.011-.081.02-.122.03.083-.055.162-.113.239-.174l.054-.014c.08-.025.157-.05.233-.078a3.417,3.417,0,0,0,.786-.411,3.673,3.673,0,0,0,.3-.231,4.75,4.75,0,0,0,.355-.341c.055-.059.109-.126.164-.19l-.067.072a4.032,4.032,0,0,1-.312.293c-.1.08-.192.153-.292.222-.08.055-.164.1-.247.151l.142-.113a2.779,2.779,0,0,0,.655-.822c.038-.03.078-.057.115-.089.081-.07.16-.145.237-.225a3.869,3.869,0,0,1-.425.577,4.727,4.727,0,0,0,.6-.775l.024-.027c.08-.1.157-.2.233-.308a6.008,6.008,0,0,0,.619-1.183c.025-.075.046-.15.064-.228-.018.076-.039.152-.063.226v0c.027-.073.075-.218.089-.265l.017-.061c.026-.1.054-.2.081-.309a.047.047,0,0,1,0-.015v-.006l0,.011c-.025.093-.054.18-.114.363v.006a4.34,4.34,0,0,1-.5.946c-.032.046-.068.085-.1.129a6.045,6.045,0,0,0,.237-.818c.017-.024.035-.046.052-.07a4.272,4.272,0,0,0,.387-.721l.068-.181c.013-.041.027-.089.042-.137-.034.181-.078.373-.133.578.073-.263.127-.488.163-.688.012-.044.024-.088.035-.137.006-.029.013-.061.019-.093a2.023,2.023,0,0,0,.029-.226c0-.051.007-.107.011-.165.008-.125.014-.259.016-.37Zm-.287-1.5a3.746,3.746,0,0,0-.584-.827,5.546,5.546,0,0,0-.112-.662c-.019-.08-.039-.161-.063-.243,0-.013-.009-.027-.013-.04A7.217,7.217,0,0,1,723.048,820.79Zm-1.291,5.244h0Zm-1.988,1.729a4.79,4.79,0,0,1-1.27.168h-.084c-.071,0-.144-.007-.217-.011a5.419,5.419,0,0,0,.785-.622.884.884,0,0,0,.187-.025,5.841,5.841,0,0,0,1.17-.227A3.4,3.4,0,0,1,719.77,827.763Zm-8.206-10.7c-.056.068-.108.132-.148.185l-.041.053,0-.024c0-.007,0-.012,0-.018a.578.578,0,0,1,.063-.177A.99.99,0,0,1,711.563,817.065Zm4.057-1.925c-.107.023-.218.051-.333.088a4.1,4.1,0,0,0-.511.2,4.512,4.512,0,0,0-1.639,1.351c-.2.08-.345.144-.345.144a4.172,4.172,0,0,0-.882-.205c.079-.08.16-.157.246-.23.021-.018.045-.034.066-.052A7.311,7.311,0,0,1,715.62,815.14Zm6.566,6.4c0,.018-.007.038-.012.055a2.542,2.542,0,0,1-.471.965,11.135,11.135,0,0,0-.875-2.452,9.178,9.178,0,0,0-.9-1.454c1.594.692,1.8,1.279,1.967,1.815C722.01,820.834,722.1,821.188,722.186,821.536Zm-.5,3.576a6.76,6.76,0,0,1-.6.438l-.01.007a4.066,4.066,0,0,0-.358-1.908,3.457,3.457,0,0,0,.867-.63l.021-.022A7.924,7.924,0,0,1,721.685,825.112Zm-4.03,2.756-.025,0,0,0c0,.005-.052,0-.058,0l-.068-.01a5.884,5.884,0,0,0,.431-.525h.034l.069,0h0l.069,0c.164,0,.32-.006.477-.011a5.147,5.147,0,0,1-.765.581C717.769,827.881,717.713,827.877,717.655,827.868Zm-7.014-6.729a5.865,5.865,0,0,1-.062-1.409c0-.057.013-.113.02-.17a5.456,5.456,0,0,1,.594-.49c.02.036.037.075.059.11.371.66.489.9.631,1.205a8.482,8.482,0,0,0-.861.483A4.327,4.327,0,0,0,710.641,821.14Zm.045-2.139c.013-.058.028-.116.042-.174a2.972,2.972,0,0,1,.313-.1c.01.027.018.053.029.082a5.064,5.064,0,0,0-.415.351C710.666,819.109,710.674,819.055,710.686,819Zm.681-1.627.1-.137c.046-.061.092-.12.139-.177a2.84,2.84,0,0,1,.845.08,6.816,6.816,0,0,0-1.034.737A1.728,1.728,0,0,1,711.367,817.374Zm7.008,9.208a4.053,4.053,0,0,0,.491-2.506h0a4.639,4.639,0,0,0,.531-.03l.05-.008a3.062,3.062,0,0,1-.172,2.4,1.8,1.8,0,0,1-.83.154v0Zm.378-3.188a6.715,6.715,0,0,0-.382-1.084,5.008,5.008,0,0,1,.825,1.129l-.088,0C718.991,823.425,718.872,823.411,718.752,823.394Zm1.373.5a3.952,3.952,0,0,0,.375-.138l.055-.026a3.616,3.616,0,0,1,.278,1.978,7.964,7.964,0,0,1-.929.474l-.082.034A4.1,4.1,0,0,0,720.125,823.892Zm.181-.519c-.094.019-.19.033-.288.046a4.883,4.883,0,0,0-2.921-3.005,7.607,7.607,0,0,0-3.525-2.186c.01-.027.02-.056.03-.083.023-.061.05-.118.075-.177a1.025,1.025,0,0,1,1.07.168,21.347,21.347,0,0,1,4.481,3.612,8.149,8.149,0,0,1,1.151,1.608C720.355,823.361,720.331,823.368,720.306,823.373Zm-8.553-4.666c.05-.029.094-.059.146-.088a1.818,1.818,0,0,1,.337-.009c-.015.051-.032.1-.046.155-.041.151-.077.306-.11.469-.046-.068-.108-.156-.151-.224s-.078-.125-.113-.186C711.792,818.782,711.775,818.746,711.754,818.706Zm1.6.258c.012-.049.028-.094.041-.143a8.149,8.149,0,0,1,2.235,1.114,6.151,6.151,0,0,0-2.43,0A7.541,7.541,0,0,1,713.35,818.965Zm-.6-1.592a5.8,5.8,0,0,0-.309.657,3.953,3.953,0,0,0-.964.059c-.009-.028-.018-.056-.026-.083l0-.013a6.275,6.275,0,0,1,1.151-.818s.082.019.232.066C712.8,817.285,712.775,817.326,712.749,817.373Zm4.368,3.988a7.4,7.4,0,0,1,1,1.911l-.06-.014a11.333,11.333,0,0,1-4.575-2.5c-.052-.046-.1-.094-.152-.141A6.457,6.457,0,0,1,717.117,821.361Zm1.19,2.683.035,0a3.359,3.359,0,0,1-.238,2.492,6.264,6.264,0,0,1-4.548-3.739,6.014,6.014,0,0,1-.339-1.319A9.919,9.919,0,0,0,718.307,824.044Zm-1.7,3.588a8.927,8.927,0,0,1-1.163-.443c.623.043,1.2.082,1.749.106C716.994,827.423,716.8,827.534,716.607,827.632Zm3.131-1.088,0,.009a9.035,9.035,0,0,0,1.03-.509,3.476,3.476,0,0,1-.121.379,4.609,4.609,0,0,1-.945.2C719.713,826.593,719.725,826.569,719.738,826.544Zm.266-7.566a10.341,10.341,0,0,1,1.555,3.74l-.025.027a2.34,2.34,0,0,1-.977.559c-1.081-2.1-3.632-4.042-5.98-5.482C715.479,817.717,719.127,817.738,720,818.978Zm-5.885-1.423-.191-.1a4.907,4.907,0,0,1,.607-.868c.037-.041.074-.081.111-.121.023-.024.047-.046.071-.07a4.983,4.983,0,0,1,4.487,1.616A10.384,10.384,0,0,0,714.119,817.555ZM712.98,817l-.026-.011.053-.025Zm-.881-.475c-.034.028-.069.057-.1.085s-.079.076-.117.113h-.058l.007-.006C711.914,816.655,712,816.59,712.1,816.525Zm-1.2,1.732c0-.009.006-.019.01-.028l0,.022Zm-.319.824c-.01.057-.018.117-.027.177a4.371,4.371,0,0,0-.561.679c-.01.014-.022.033-.032.048a5.48,5.48,0,0,1,.661-1.114h0C710.613,818.938,710.6,819.007,710.585,819.08Zm-.077.568c-.006.057-.013.111-.017.17a6.092,6.092,0,0,0,.056,1.4,2.779,2.779,0,0,0-.671.853,4.789,4.789,0,0,1-.229-.939c-.005-.041-.006-.077-.01-.117A3.554,3.554,0,0,1,710.508,819.648Zm-1.019,2c0,.027,0,.054.008.081a4.8,4.8,0,0,0,.2.812,2.8,2.8,0,0,0-.091.9c0,.065.014.153.02.218-.02-.094-.048-.219-.065-.313A5.431,5.431,0,0,1,709.489,821.646Zm.269,2.311a2.671,2.671,0,0,1,.1-1.011c.009.021.016.043.026.064a7.779,7.779,0,0,0,1.071,1.717c.126.146.292.341.423.481l.229.234.12.115.025.024.029.03c.182.171.307.285.533.477-.086-.041-.2-.092-.287-.135A4.92,4.92,0,0,1,709.758,823.957Zm2.3,1.314-.09-.087-.035-.035-.121-.117-.232-.24a9.036,9.036,0,0,1-1.5-2.22c-.014-.03-.023-.057-.035-.086a2.829,2.829,0,0,1,.61-.777c.011.043.018.085.03.128.025.085.051.17.08.256a8.885,8.885,0,0,0,3.5,4.608l-.076-.015C713.723,826.586,713.387,826.516,712.055,825.271Zm-1.285-3.512c-.011-.044-.019-.088-.029-.131a4.108,4.108,0,0,1,1.21-.689c0,.052,0,.1,0,.155a6.92,6.92,0,0,0,.315,1.713,6.259,6.259,0,0,0,.57,1.278,6.735,6.735,0,0,0,3.32,2.82l-.185,0a10.075,10.075,0,0,1-1.293-.124A8.74,8.74,0,0,1,710.771,821.759Zm5.721,5.933c-.091.044-.181.082-.272.12a10.489,10.489,0,0,1-1.721-.745A12.514,12.514,0,0,1,716.492,827.692Zm.891.274h0l-.036.036-.079.077-.023,0C717.332,828.006,717.388,827.958,717.382,827.966Zm.046.146-.018,0h0c-.045-.007-.086-.018-.13-.026.033-.034.07-.071.111-.114l.062.014a.3.3,0,0,0,.056.011c.033.008.067.014.1.02C717.549,828.049,717.487,828.082,717.428,828.112Zm3.512-1.8a3.624,3.624,0,0,0,.1-.438l.027-.016a6.865,6.865,0,0,0,.571-.412,4.88,4.88,0,0,1-.109.5l-.021.067a3.659,3.659,0,0,1-.519.275C720.973,826.3,720.956,826.307,720.94,826.314Zm.82-3.487a3.153,3.153,0,0,0,.51-.825c.005-.011.008-.023.013-.034a8.031,8.031,0,0,1,.146,2.4,5.217,5.217,0,0,1-.5.526l-.009.008A8.166,8.166,0,0,0,721.76,822.828Zm-.008-4.566c.012.032.025.063.035.094.022.063.043.127.063.19.04.127.076.253.113.382s.069.264.1.385a9.586,9.586,0,0,0-.948-1.762c-.008-.013-.02-.029-.029-.041A8.8,8.8,0,0,1,721.752,818.262Zm-3.356-2.6a6.728,6.728,0,0,0-1.025-.334,6.908,6.908,0,0,1,3.87,3.629,9.051,9.051,0,0,0-1.784-.857,5.614,5.614,0,0,0-3.064-1.783,4.919,4.919,0,0,0-1.558-.038,4.011,4.011,0,0,1,1.665-.952l.047-.013.071-.017h0c.082-.018.189-.04.311-.058.157.028.3.057.437.089-.124-.038-.249-.071-.373-.1a3.031,3.031,0,0,1,.324-.024A2.937,2.937,0,0,1,718.4,815.659Zm-7.018,1.447.038-.013c-.1.105-.207.224-.315.347l-.038.045c-.017.035-.042.094-.073.17-.06.15-.142.377-.224.658a1.872,1.872,0,0,0-.617.487h0a2.1,2.1,0,0,0-.219.325c-.015.027-.032.062-.046.089A6.3,6.3,0,0,1,711.378,817.106Zm-1.65,2.671c.011-.031.024-.065.035-.1a1.978,1.978,0,0,1,.645-.694,5.584,5.584,0,0,0-.793,1.649,3.328,3.328,0,0,1,.057-.622A2.291,2.291,0,0,1,709.728,819.777Zm-.272,1.108c0,.09,0,.18,0,.27-.021.08-.04.167-.058.264C709.411,821.248,709.428,821.073,709.456,820.885Zm-.076,1.336c0-.041,0-.083,0-.125,0-.066.01-.123.015-.169-.006.186,0,.366,0,.543,0-.03-.006-.059-.008-.09C709.384,822.328,709.382,822.274,709.38,822.221Zm1.5,4.148a7.871,7.871,0,0,1-.679-1.086,7.381,7.381,0,0,0,.414.662,6.592,6.592,0,0,0,.519.652,5.616,5.616,0,0,0,.489.489c-.03-.026-.065-.05-.094-.077A8.046,8.046,0,0,1,710.877,826.37Zm2.478,1.863c.089.04.178.079.273.115C713.642,828.354,713.53,828.312,713.355,828.233Zm-3.532-3.914a4.825,4.825,0,0,0,1.765,1.7,39.074,39.074,0,0,0,4.039,2C712.34,828.935,710.292,825.575,709.823,824.319Zm7.041,4.026.034.006-.154.059C716.783,828.392,716.823,828.37,716.864,828.345Zm2.485-.243a4.629,4.629,0,0,1-.942.093c-.126,0-.251,0-.376-.013-.081-.005-.161-.015-.242-.024.059-.031.117-.064.174-.1.076.008.152.019.229.022.058,0,.116,0,.175,0,.092,0,.185,0,.279-.011a6.133,6.133,0,0,0,.928-.14Q719.462,828.026,719.349,828.1Zm1.29-.684a3.868,3.868,0,0,1-.412.195c-.08.032-.162.062-.245.089a3.846,3.846,0,0,0,.62-.749c.042-.016.086-.031.127-.049a3.59,3.59,0,0,0,.532-.286c-.051.1-.107.191-.178.3A2.462,2.462,0,0,1,720.639,827.418Zm1.183-1.62c-.018.014-.037.026-.054.04a3.681,3.681,0,0,0,.125-.606l.022-.019a5.462,5.462,0,0,0,.459-.477,5.029,5.029,0,0,1-.17.706A3.59,3.59,0,0,1,721.822,825.8Zm1.275-2.521v.015c0-.006,0-.011,0-.016l-.03.073a4.343,4.343,0,0,1-.3.567c-.01.016-.023.03-.033.046a8.43,8.43,0,0,0-.224-3.285c0-.045,0-.085,0-.134s0-.108-.005-.164a2.737,2.737,0,0,1,.78,2.315A4.274,4.274,0,0,1,723.1,823.277Zm.211-.742c0,.023-.007.046-.01.068.011-.18.014-.362.01-.568.009.1.014.24.015.343l0,.059C723.315,822.472,723.312,822.505,723.307,822.535Z" transform="translate(-709.333 -814.916)" fill="#fff"/>
        <path id="Caminho_502" data-name="Caminho 502" d="M731.72,817.174l.009,0c.079.047.169.1.257.157-.071-.046-.146-.092-.223-.139Z" transform="translate(-721.29 -816.122)" fill="#fff"/>
        <path id="Caminho_503" data-name="Caminho 503" d="M709.336,830.823l.008.167c0,.018,0,.044.005.078s.01.109.019.18c-.009-.1-.018-.227-.029-.389C709.338,830.846,709.337,830.835,709.336,830.823Z" transform="translate(-709.332 -823.413)" fill="#fff"/>
        <path id="Caminho_504" data-name="Caminho 504" d="M712.164,821.325c-.037.054-.072.107-.106.156.037-.056.075-.109.109-.16Z" transform="translate(-710.786 -818.337)" fill="#fff"/>
        <path id="Caminho_505" data-name="Caminho 505" d="M711.142,823.005l-.005.009-.02.033c-.014.026-.024.048-.037.073l.035-.067Z" transform="translate(-710.264 -819.237)" fill="#fff"/>
        <path id="Caminho_506" data-name="Caminho 506" d="M712.171,839.064c.06.083.122.167.188.252.014.017.027.035.041.052l-.024-.03Z" transform="translate(-710.847 -827.816)" fill="#fff"/>
        <path id="Caminho_507" data-name="Caminho 507" d="M735.906,839.746c-.039.048-.079.091-.119.137l.054-.058Z" transform="translate(-723.462 -828.18)" fill="#fff"/>
        <path id="Caminho_508" data-name="Caminho 508" d="M709.422,828.02c-.039.288-.057.458-.067.641C709.367,828.5,709.388,828.32,709.422,828.02Z" transform="translate(-709.342 -821.916)" fill="#fff"/>
        <path id="Caminho_509" data-name="Caminho 509" d="M711.213,822.289c.116-.193.26-.423.394-.625C711.457,821.886,711.333,822.076,711.213,822.289Z" transform="translate(-710.335 -818.521)" fill="#fff"/>
        <path id="Caminho_510" data-name="Caminho 510" d="M712.663,820.341c-.059.067-.123.146-.187.226l-.179.227c.029-.037.061-.075.094-.115.078-.1.164-.2.252-.3v-.005Z" transform="translate(-710.914 -817.814)" fill="#fff"/>
        <path id="Caminho_511" data-name="Caminho 511" d="M713.151,840.29c-.012-.013-.023-.025-.034-.037.018.021.037.041.056.063.073.08.151.162.233.244l.044.044a.186.186,0,0,0-.019-.02C713.367,840.518,713.282,840.43,713.151,840.29Z" transform="translate(-711.352 -828.451)" fill="#fff"/>
        <path id="Caminho_512" data-name="Caminho 512" d="M709.764,833.818c-.031-.118-.068-.268-.126-.511A5.183,5.183,0,0,0,709.764,833.818Z" transform="translate(-709.494 -824.74)" fill="#fff"/>
        <path id="Caminho_513" data-name="Caminho 513" d="M710.07,834.9c-.077-.232-.125-.376-.161-.494C709.955,834.576,709.991,834.678,710.07,834.9Z" transform="translate(-709.638 -825.327)" fill="#fff"/>
        <path id="Caminho_514" data-name="Caminho 514" d="M711.316,837.741c.027.045.054.09.081.134-.012-.019-.024-.042-.039-.068S711.33,837.763,711.316,837.741Z" transform="translate(-710.39 -827.109)" fill="#fff"/>
        <path id="Caminho_515" data-name="Caminho 515" d="M714.467,841.593l.094.081c.009.008.019.014.027.022l-.009-.008.1.083-.226-.188Z" transform="translate(-712.067 -829.161)" fill="#fff"/>
        <path id="Caminho_516" data-name="Caminho 516" d="M710.26,835.479a.1.1,0,0,0-.006-.014c.034.087.076.19.119.292l-.051-.124Z" transform="translate(-709.823 -825.893)" fill="#fff"/>
      </g>
      <path id="Caminho_517" data-name="Caminho 517" d="M813.046,863.233H802.96l5.927-7.019a3.632,3.632,0,0,0,1.055-2.129,1.521,1.521,0,0,0-.442-1.137,1.569,1.569,0,0,0-1.146-.433q-1.757,0-1.758,2.11v.164h-3.175V854.7a4.732,4.732,0,0,1,1.308-3.55,4.924,4.924,0,0,1,3.59-1.277,5.385,5.385,0,0,1,3.41,1.028,3.789,3.789,0,0,1,1.444,3.167,5.736,5.736,0,0,1-1.787,3.735L809,860.427h4.041Zm11.52-6.378a8.685,8.685,0,0,1-1.083,4.564,4.6,4.6,0,0,1-7.84-.063,10.5,10.5,0,0,1,0-9.246,4.6,4.6,0,0,1,7.894.045A9.437,9.437,0,0,1,824.566,856.854Zm-6.667-.126q0,4.159,1.678,4.159,1.659,0,1.66-4.159t-1.66-4.159q-1.11,0-1.488,1.659A12.072,12.072,0,0,0,817.9,856.728Zm17.962,6.5H825.775l5.927-7.019a3.637,3.637,0,0,0,1.055-2.129,1.522,1.522,0,0,0-.443-1.137,1.57,1.57,0,0,0-1.145-.433q-1.759,0-1.759,2.11v.164h-3.176V854.7a4.732,4.732,0,0,1,1.308-3.55,4.926,4.926,0,0,1,3.591-1.277,5.387,5.387,0,0,1,3.41,1.028,3.789,3.789,0,0,1,1.443,3.167A5.736,5.736,0,0,1,834.2,857.8l-2.381,2.625h4.042Zm11.519-6.378a8.7,8.7,0,0,1-1.082,4.564,4.6,4.6,0,0,1-7.84-.063,10.486,10.486,0,0,1,0-9.246,4.595,4.595,0,0,1,7.893.045A9.442,9.442,0,0,1,847.38,856.854Zm-6.666-.126q0,4.159,1.677,4.159,1.661,0,1.661-4.159t-1.661-4.159q-1.109,0-1.488,1.659A12.121,12.121,0,0,0,840.714,856.728Z" transform="translate(-745.5 -833.589)" fill="#fff"/>
    </g>
    <g id="Grupo_502" data-name="Grupo 502" transform="translate(923.983 2269.043)">
      <g id="Grupo_451" data-name="Grupo 451" transform="translate(51.698 5.923)">
        <path id="Caminho_596" data-name="Caminho 596" d="M1319.534,825.282h.734v1.97a4.08,4.08,0,0,0,.027.608.592.592,0,0,0,.224.358.782.782,0,0,0,.485.135.739.739,0,0,0,.471-.128.506.506,0,0,0,.192-.314,4.181,4.181,0,0,0,.032-.618v-2.012h.735v1.91a4.876,4.876,0,0,1-.06.925,1.031,1.031,0,0,1-.219.457,1.113,1.113,0,0,1-.428.3,1.861,1.861,0,0,1-.7.11,2.015,2.015,0,0,1-.79-.12,1.126,1.126,0,0,1-.425-.313,1,1,0,0,1-.206-.4,4.382,4.382,0,0,1-.072-.923Z" transform="translate(-1319.534 -825.282)" fill="#fff"/>
      </g>
      <g id="Grupo_452" data-name="Grupo 452" transform="translate(55.379 5.923)">
        <path id="Caminho_597" data-name="Caminho 597" d="M1327.438,828.919v-3.637h.714l1.489,2.429v-2.429h.682v3.637h-.736l-1.466-2.372v2.372Z" transform="translate(-1327.438 -825.282)" fill="#fff"/>
      </g>
      <g id="Grupo_453" data-name="Grupo 453" transform="translate(59.019 5.923)">
        <path id="Caminho_598" data-name="Caminho 598" d="M1335.251,828.919v-3.637h.734v3.637Z" transform="translate(-1335.251 -825.282)" fill="#fff"/>
      </g>
      <g id="Grupo_454" data-name="Grupo 454" transform="translate(60.082 5.089)">
        <path id="Caminho_599" data-name="Caminho 599" d="M1341.184,827.963h-.8l-.317-.826h-1.454l-.3.826h-.779l1.417-3.637h.776Zm-2.421-3.838h-.318c0-.038,0-.068,0-.089a.577.577,0,0,1,.127-.4.418.418,0,0,1,.325-.14.65.65,0,0,1,.161.019,2.051,2.051,0,0,1,.272.107.827.827,0,0,0,.309.088.188.188,0,0,0,.133-.05.265.265,0,0,0,.068-.166h.323a.745.745,0,0,1-.126.479.4.4,0,0,1-.316.144.8.8,0,0,1-.166-.018c-.038-.01-.133-.044-.285-.1a1.078,1.078,0,0,0-.333-.087.16.16,0,0,0-.124.048A.253.253,0,0,0,1338.763,824.125Zm1.069,2.4-.5-1.35-.491,1.35Z" transform="translate(-1337.535 -823.493)" fill="#fff"/>
      </g>
      <g id="Grupo_455" data-name="Grupo 455" transform="translate(63.972 5.861)">
        <path id="Caminho_600" data-name="Caminho 600" d="M1345.886,827.052a2.315,2.315,0,0,1,.166-.933,1.71,1.71,0,0,1,.339-.5,1.42,1.42,0,0,1,.47-.327,2,2,0,0,1,.784-.144,1.706,1.706,0,0,1,1.286.5,2.227,2.227,0,0,1,0,2.765,1.912,1.912,0,0,1-2.57,0A1.878,1.878,0,0,1,1345.886,827.052Zm.756-.025a1.362,1.362,0,0,0,.286.936.981.981,0,0,0,1.445,0,1.388,1.388,0,0,0,.281-.949,1.365,1.365,0,0,0-.274-.933,1.016,1.016,0,0,0-1.46,0A1.376,1.376,0,0,0,1346.642,827.027Z" transform="translate(-1345.886 -825.149)" fill="#fff"/>
      </g>
      <g id="Grupo_456" data-name="Grupo 456" transform="translate(69.485 5.923)">
        <path id="Caminho_601" data-name="Caminho 601" d="M1357.72,828.919v-3.637h2.7v.615h-1.962v.806h1.825v.613h-1.825v.99h2.031v.613Z" transform="translate(-1357.72 -825.282)" fill="#fff"/>
      </g>
      <g id="Grupo_457" data-name="Grupo 457" transform="translate(72.868 5.923)">
        <path id="Caminho_602" data-name="Caminho 602" d="M1364.983,825.282h.734v1.97a4.055,4.055,0,0,0,.028.608.587.587,0,0,0,.224.358.781.781,0,0,0,.485.135.737.737,0,0,0,.471-.128.5.5,0,0,0,.192-.314,4.092,4.092,0,0,0,.032-.618v-2.012h.734v1.91a4.907,4.907,0,0,1-.06.925,1.028,1.028,0,0,1-.22.457,1.107,1.107,0,0,1-.428.3,1.862,1.862,0,0,1-.7.11,2.014,2.014,0,0,1-.79-.12,1.13,1.13,0,0,1-.426-.313,1,1,0,0,1-.206-.4,4.415,4.415,0,0,1-.072-.923Z" transform="translate(-1364.983 -825.282)" fill="#fff"/>
      </g>
      <g id="Grupo_458" data-name="Grupo 458" transform="translate(76.545 5.923)">
        <path id="Caminho_603" data-name="Caminho 603" d="M1372.877,828.919v-3.637h1.546a2.637,2.637,0,0,1,.847.1.832.832,0,0,1,.422.348,1.043,1.043,0,0,1,.159.573.971.971,0,0,1-.24.676,1.156,1.156,0,0,1-.72.336,1.715,1.715,0,0,1,.394.305,4.166,4.166,0,0,1,.418.59l.444.71h-.878l-.531-.791a5.219,5.219,0,0,0-.387-.535.569.569,0,0,0-.221-.151,1.218,1.218,0,0,0-.37-.041h-.149v1.518Zm.734-2.1h.543a2.8,2.8,0,0,0,.66-.045.4.4,0,0,0,.206-.154.475.475,0,0,0,.075-.273.436.436,0,0,0-.1-.3.451.451,0,0,0-.277-.143q-.089-.012-.536-.012h-.573Z" transform="translate(-1372.877 -825.282)" fill="#fff"/>
      </g>
      <g id="Grupo_459" data-name="Grupo 459" transform="translate(80.062 5.861)">
        <path id="Caminho_604" data-name="Caminho 604" d="M1380.428,827.052a2.314,2.314,0,0,1,.167-.933,1.711,1.711,0,0,1,.338-.5,1.424,1.424,0,0,1,.47-.327,2,2,0,0,1,.784-.144,1.707,1.707,0,0,1,1.286.5,2.228,2.228,0,0,1,0,2.765,1.913,1.913,0,0,1-2.571,0A1.878,1.878,0,0,1,1380.428,827.052Zm.757-.025a1.36,1.36,0,0,0,.286.936.981.981,0,0,0,1.445,0,1.388,1.388,0,0,0,.281-.949,1.367,1.367,0,0,0-.274-.933,1.016,1.016,0,0,0-1.46,0A1.373,1.373,0,0,0,1381.185,827.027Z" transform="translate(-1380.428 -825.149)" fill="#fff"/>
      </g>
      <g id="Grupo_460" data-name="Grupo 460" transform="translate(84.163 5.923)">
        <path id="Caminho_605" data-name="Caminho 605" d="M1389.232,828.919v-3.637h1.179a4.274,4.274,0,0,1,.873.055.954.954,0,0,1,.524.356,1.13,1.13,0,0,1,.211.708,1.18,1.18,0,0,1-.122.563,1,1,0,0,1-.308.359,1.068,1.068,0,0,1-.381.172,4.222,4.222,0,0,1-.762.052h-.479v1.372Zm.734-3.022v1.032h.4a1.9,1.9,0,0,0,.58-.057.482.482,0,0,0,.23-.179.491.491,0,0,0,.083-.283.469.469,0,0,0-.117-.327.509.509,0,0,0-.3-.161,3.582,3.582,0,0,0-.528-.025Z" transform="translate(-1389.232 -825.282)" fill="#fff"/>
      </g>
      <g id="Grupo_461" data-name="Grupo 461" transform="translate(87.552 5.923)">
        <path id="Caminho_606" data-name="Caminho 606" d="M1396.507,828.919v-3.637h2.7v.615h-1.963v.806h1.826v.613h-1.826v.99h2.032v.613Z" transform="translate(-1396.507 -825.282)" fill="#fff"/>
      </g>
      <g id="Grupo_462" data-name="Grupo 462" transform="translate(90.918 5.923)">
        <path id="Caminho_607" data-name="Caminho 607" d="M1403.734,828.919v-3.637h.734v3.637Z" transform="translate(-1403.734 -825.282)" fill="#fff"/>
      </g>
      <g id="Grupo_463" data-name="Grupo 463" transform="translate(91.982 5.923)">
        <path id="Caminho_608" data-name="Caminho 608" d="M1409.667,828.919h-.8l-.317-.826H1407.1l-.3.826h-.779l1.417-3.637h.776Zm-1.352-1.439-.5-1.35-.491,1.35Z" transform="translate(-1406.018 -825.282)" fill="#fff"/>
      </g>
      <g id="Grupo_464" data-name="Grupo 464" transform="translate(51.75 17.96)">
        <path id="Caminho_609" data-name="Caminho 609" d="M1319.646,854.76v-3.637h2.453v.429h-1.972v1.126h1.707v.429h-1.707v1.653Z" transform="translate(-1319.646 -851.123)" fill="#fff"/>
      </g>
      <g id="Grupo_465" data-name="Grupo 465" transform="translate(54.761 18.962)">
        <path id="Caminho_610" data-name="Caminho 610" d="M1327.847,855.91v-.387a.963.963,0,0,1-.836.446,1.062,1.062,0,0,1-.435-.089.719.719,0,0,1-.3-.225.841.841,0,0,1-.137-.331,2.233,2.233,0,0,1-.027-.417v-1.632h.447v1.461a2.592,2.592,0,0,0,.027.471.466.466,0,0,0,.179.277.551.551,0,0,0,.337.1.738.738,0,0,0,.377-.1.572.572,0,0,0,.249-.28,1.411,1.411,0,0,0,.073-.515v-1.411h.447v2.635Z" transform="translate(-1326.111 -853.275)" fill="#fff"/>
      </g>
      <g id="Grupo_466" data-name="Grupo 466" transform="translate(57.596 18.902)">
        <path id="Caminho_611" data-name="Caminho 611" d="M1332.2,855.841v-2.635h.4v.374a.947.947,0,0,1,.839-.434,1.1,1.1,0,0,1,.438.085.687.687,0,0,1,.3.225.848.848,0,0,1,.139.33,2.527,2.527,0,0,1,.025.434v1.62h-.447v-1.6a1.215,1.215,0,0,0-.052-.408.432.432,0,0,0-.185-.216.591.591,0,0,0-.312-.081.724.724,0,0,0-.492.181.9.9,0,0,0-.207.688v1.439Z" transform="translate(-1332.198 -853.147)" fill="#fff"/>
      </g>
      <g id="Grupo_467" data-name="Grupo 467" transform="translate(60.261 17.96)">
        <path id="Caminho_612" data-name="Caminho 612" d="M1339.788,854.76v-.333a.819.819,0,0,1-.736.392,1.034,1.034,0,0,1-.579-.173,1.137,1.137,0,0,1-.409-.485,1.666,1.666,0,0,1-.145-.715,1.872,1.872,0,0,1,.131-.715,1.037,1.037,0,0,1,.394-.493,1.055,1.055,0,0,1,.588-.171.878.878,0,0,1,.424.1.9.9,0,0,1,.3.262v-1.3h.444v3.637Zm-1.411-1.315a1.144,1.144,0,0,0,.214.756.642.642,0,0,0,.5.251.63.63,0,0,0,.5-.239,1.1,1.1,0,0,0,.2-.73,1.239,1.239,0,0,0-.208-.794.641.641,0,0,0-.514-.253.619.619,0,0,0-.5.243A1.2,1.2,0,0,0,1338.377,853.445Z" transform="translate(-1337.918 -851.123)" fill="#fff"/>
      </g>
      <g id="Grupo_468" data-name="Grupo 468" transform="translate(63.081 18.902)">
        <path id="Caminho_613" data-name="Caminho 613" d="M1343.973,854.524a1.356,1.356,0,0,1,.407-1.084,1.226,1.226,0,0,1,.829-.293,1.182,1.182,0,0,1,.888.356,1.354,1.354,0,0,1,.345.984,1.737,1.737,0,0,1-.153.8,1.075,1.075,0,0,1-.444.453,1.293,1.293,0,0,1-.636.161,1.183,1.183,0,0,1-.894-.354A1.417,1.417,0,0,1,1343.973,854.524Zm.459,0a1.123,1.123,0,0,0,.22.757.735.735,0,0,0,1.109,0,1.148,1.148,0,0,0,.221-.771,1.088,1.088,0,0,0-.222-.741.736.736,0,0,0-1.108,0A1.12,1.12,0,0,0,1344.432,854.524Z" transform="translate(-1343.973 -853.147)" fill="#fff"/>
      </g>
      <g id="Grupo_469" data-name="Grupo 469" transform="translate(67.551 17.96)">
        <path id="Caminho_614" data-name="Caminho 614" d="M1353.569,854.76v-3.637h2.63v.429h-2.148v1.114h2.012v.426h-2.012v1.238h2.233v.429Z" transform="translate(-1353.569 -851.123)" fill="#fff"/>
      </g>
      <g id="Grupo_470" data-name="Grupo 470" transform="translate(70.863 18.962)">
        <path id="Caminho_615" data-name="Caminho 615" d="M1362.415,855.91v-.387a.964.964,0,0,1-.836.446,1.062,1.062,0,0,1-.435-.089.72.72,0,0,1-.3-.225.835.835,0,0,1-.137-.331,2.21,2.21,0,0,1-.028-.417v-1.632h.447v1.461a2.619,2.619,0,0,0,.027.471.469.469,0,0,0,.178.277.553.553,0,0,0,.338.1.739.739,0,0,0,.377-.1.572.572,0,0,0,.249-.28,1.412,1.412,0,0,0,.073-.515v-1.411h.446v2.635Z" transform="translate(-1360.678 -853.275)" fill="#fff"/>
      </g>
      <g id="Grupo_471" data-name="Grupo 471" transform="translate(73.693 18.902)">
        <path id="Caminho_616" data-name="Caminho 616" d="M1366.754,855.841v-2.635h.4v.4a1.089,1.089,0,0,1,.284-.369.5.5,0,0,1,.287-.089.874.874,0,0,1,.459.144l-.154.414a.636.636,0,0,0-.328-.1.427.427,0,0,0-.263.089.477.477,0,0,0-.166.244,1.73,1.73,0,0,0-.075.521v1.38Z" transform="translate(-1366.754 -853.147)" fill="#fff"/>
      </g>
      <g id="Grupo_472" data-name="Grupo 472" transform="translate(75.224 18.902)">
        <path id="Caminho_617" data-name="Caminho 617" d="M1370.041,854.524a1.356,1.356,0,0,1,.407-1.084,1.227,1.227,0,0,1,.829-.293,1.182,1.182,0,0,1,.888.356,1.353,1.353,0,0,1,.345.984,1.737,1.737,0,0,1-.153.8,1.075,1.075,0,0,1-.444.453,1.293,1.293,0,0,1-.636.161,1.184,1.184,0,0,1-.894-.354A1.417,1.417,0,0,1,1370.041,854.524Zm.459,0a1.12,1.12,0,0,0,.221.757.735.735,0,0,0,1.109,0,1.148,1.148,0,0,0,.221-.771,1.09,1.09,0,0,0-.222-.741.736.736,0,0,0-1.108,0A1.117,1.117,0,0,0,1370.5,854.524Z" transform="translate(-1370.041 -853.147)" fill="#fff"/>
      </g>
      <g id="Grupo_473" data-name="Grupo 473" transform="translate(78.215 18.902)">
        <path id="Caminho_618" data-name="Caminho 618" d="M1376.463,856.851v-3.644h.407v.342a1,1,0,0,1,.325-.3.892.892,0,0,1,.439-.1,1.039,1.039,0,0,1,.6.174,1.065,1.065,0,0,1,.389.49,1.786,1.786,0,0,1,.132.693,1.765,1.765,0,0,1-.145.728,1.1,1.1,0,0,1-.422.5,1.081,1.081,0,0,1-.582.172.838.838,0,0,1-.4-.094.905.905,0,0,1-.292-.238v1.282Zm.4-2.312a1.147,1.147,0,0,0,.206.751.631.631,0,0,0,.5.243.644.644,0,0,0,.51-.252,1.192,1.192,0,0,0,.213-.78,1.164,1.164,0,0,0-.208-.754.623.623,0,0,0-.5-.251.642.642,0,0,0-.5.266A1.2,1.2,0,0,0,1376.867,854.539Z" transform="translate(-1376.463 -853.147)" fill="#fff"/>
      </g>
      <g id="Grupo_474" data-name="Grupo 474" transform="translate(80.892 18.902)">
        <path id="Caminho_619" data-name="Caminho 619" d="M1384.161,854.992l.462.057a1.128,1.128,0,0,1-.4.627,1.37,1.37,0,0,1-1.671-.133,1.392,1.392,0,0,1-.339-1,1.455,1.455,0,0,1,.342-1.032,1.16,1.16,0,0,1,.888-.367,1.126,1.126,0,0,1,.864.36,1.428,1.428,0,0,1,.335,1.012c0,.027,0,.066,0,.119h-1.965a1.013,1.013,0,0,0,.245.665.731.731,0,0,0,.551.231.682.682,0,0,0,.419-.129A.851.851,0,0,0,1384.161,854.992Zm-1.466-.722h1.471a.893.893,0,0,0-.169-.5.684.684,0,0,0-.553-.258.71.71,0,0,0-.517.206A.816.816,0,0,0,1382.7,854.271Z" transform="translate(-1382.209 -853.147)" fill="#fff"/>
      </g>
      <g id="Grupo_475" data-name="Grupo 475" transform="translate(83.856 18.962)">
        <path id="Caminho_620" data-name="Caminho 620" d="M1390.31,855.91v-.387a.964.964,0,0,1-.836.446,1.066,1.066,0,0,1-.436-.089.721.721,0,0,1-.3-.225.839.839,0,0,1-.137-.331,2.231,2.231,0,0,1-.028-.417v-1.632h.447v1.461a2.619,2.619,0,0,0,.027.471.469.469,0,0,0,.178.277.553.553,0,0,0,.338.1.739.739,0,0,0,.377-.1.57.57,0,0,0,.249-.28,1.4,1.4,0,0,0,.074-.515v-1.411h.446v2.635Z" transform="translate(-1388.573 -853.275)" fill="#fff"/>
      </g>
      <g id="Grupo_476" data-name="Grupo 476" transform="translate(51.507 24.056)">
        <path id="Caminho_621" data-name="Caminho 621" d="M1320.994,867.848v-.333a.819.819,0,0,1-.737.392,1.033,1.033,0,0,1-.579-.174,1.14,1.14,0,0,1-.409-.485,1.675,1.675,0,0,1-.145-.716,1.874,1.874,0,0,1,.131-.715,1.039,1.039,0,0,1,.395-.492,1.055,1.055,0,0,1,.588-.171.881.881,0,0,1,.727.362v-1.3h.444v3.637Zm-1.411-1.315a1.146,1.146,0,0,0,.213.757.644.644,0,0,0,.5.25.631.631,0,0,0,.5-.24,1.1,1.1,0,0,0,.205-.73,1.238,1.238,0,0,0-.209-.794.641.641,0,0,0-.513-.253.619.619,0,0,0-.5.244A1.2,1.2,0,0,0,1319.583,866.533Z" transform="translate(-1319.124 -864.211)" fill="#fff"/>
      </g>
      <g id="Grupo_477" data-name="Grupo 477" transform="translate(54.344 24.999)">
        <path id="Caminho_622" data-name="Caminho 622" d="M1327.168,868.08l.462.057a1.122,1.122,0,0,1-.4.627,1.369,1.369,0,0,1-1.671-.133,1.39,1.39,0,0,1-.339-1,1.456,1.456,0,0,1,.342-1.032,1.16,1.16,0,0,1,.888-.367,1.127,1.127,0,0,1,.864.36,1.427,1.427,0,0,1,.335,1.012c0,.026,0,.066,0,.119h-1.965a1.012,1.012,0,0,0,.245.665.73.73,0,0,0,.551.231.684.684,0,0,0,.419-.129A.855.855,0,0,0,1327.168,868.08Zm-1.466-.722h1.471a.9.9,0,0,0-.168-.5.687.687,0,0,0-.554-.258.711.711,0,0,0-.517.206A.814.814,0,0,0,1325.7,867.358Z" transform="translate(-1325.216 -866.235)" fill="#fff"/>
      </g>
      <g id="Grupo_478" data-name="Grupo 478" transform="translate(58.787 24.056)">
        <path id="Caminho_623" data-name="Caminho 623" d="M1334.754,867.848v-3.637h1.253a3.022,3.022,0,0,1,.647.052,1.235,1.235,0,0,1,.533.26,1.472,1.472,0,0,1,.43.622,2.441,2.441,0,0,1,.142.865,2.547,2.547,0,0,1-.1.734,1.778,1.778,0,0,1-.248.53,1.309,1.309,0,0,1-.331.33,1.341,1.341,0,0,1-.434.183,2.491,2.491,0,0,1-.584.062Zm.481-.429h.776a1.877,1.877,0,0,0,.564-.067.808.808,0,0,0,.327-.189,1.141,1.141,0,0,0,.266-.46,2.244,2.244,0,0,0,.1-.7,1.7,1.7,0,0,0-.187-.877.941.941,0,0,0-.456-.41,1.87,1.87,0,0,0-.622-.075h-.764Z" transform="translate(-1334.754 -864.211)" fill="#fff"/>
      </g>
      <g id="Grupo_479" data-name="Grupo 479" transform="translate(62.25 24.999)">
        <path id="Caminho_624" data-name="Caminho 624" d="M1344.141,868.08l.462.057a1.125,1.125,0,0,1-.4.627,1.369,1.369,0,0,1-1.671-.133,1.391,1.391,0,0,1-.339-1,1.456,1.456,0,0,1,.343-1.032,1.159,1.159,0,0,1,.888-.367,1.128,1.128,0,0,1,.864.36,1.43,1.43,0,0,1,.335,1.012c0,.026,0,.066,0,.119h-1.965a1.015,1.015,0,0,0,.246.665.73.73,0,0,0,.551.231.683.683,0,0,0,.419-.129A.858.858,0,0,0,1344.141,868.08Zm-1.466-.722h1.471a.89.89,0,0,0-.168-.5.685.685,0,0,0-.553-.258.71.71,0,0,0-.517.206A.813.813,0,0,0,1342.675,867.358Z" transform="translate(-1342.188 -866.235)" fill="#fff"/>
      </g>
      <g id="Grupo_480" data-name="Grupo 480" transform="translate(65.046 24.999)">
        <path id="Caminho_625" data-name="Caminho 625" d="M1348.19,868.143l.442-.07a.619.619,0,0,0,.207.407.721.721,0,0,0,.475.141.7.7,0,0,0,.457-.125.374.374,0,0,0,.149-.294.271.271,0,0,0-.132-.238,1.943,1.943,0,0,0-.456-.151,4.127,4.127,0,0,1-.682-.215.657.657,0,0,1-.287-.25.666.666,0,0,1-.1-.354.68.68,0,0,1,.081-.326.721.721,0,0,1,.22-.25.926.926,0,0,1,.284-.13,1.359,1.359,0,0,1,.386-.053,1.525,1.525,0,0,1,.545.089.744.744,0,0,1,.346.242.958.958,0,0,1,.154.408l-.437.06a.475.475,0,0,0-.172-.318.631.631,0,0,0-.4-.114.733.733,0,0,0-.439.1.3.3,0,0,0-.131.238.248.248,0,0,0,.055.157.4.4,0,0,0,.171.119c.045.017.177.054.395.114a5.436,5.436,0,0,1,.661.207.671.671,0,0,1,.294.234.654.654,0,0,1,.107.382.746.746,0,0,1-.13.421.838.838,0,0,1-.376.305,1.369,1.369,0,0,1-.555.108,1.24,1.24,0,0,1-.783-.213A.994.994,0,0,1,1348.19,868.143Z" transform="translate(-1348.19 -866.235)" fill="#fff"/>
      </g>
      <g id="Grupo_481" data-name="Grupo 481" transform="translate(67.616 24.999)">
        <path id="Caminho_626" data-name="Caminho 626" d="M1355.66,868.08l.462.057a1.125,1.125,0,0,1-.4.627,1.369,1.369,0,0,1-1.671-.133,1.391,1.391,0,0,1-.339-1,1.457,1.457,0,0,1,.342-1.032,1.159,1.159,0,0,1,.888-.367,1.127,1.127,0,0,1,.864.36,1.43,1.43,0,0,1,.335,1.012c0,.026,0,.066,0,.119h-1.965a1.016,1.016,0,0,0,.246.665.73.73,0,0,0,.551.231.683.683,0,0,0,.419-.129A.855.855,0,0,0,1355.66,868.08Zm-1.466-.722h1.47a.89.89,0,0,0-.168-.5.685.685,0,0,0-.553-.258.71.71,0,0,0-.517.206A.813.813,0,0,0,1354.194,867.358Z" transform="translate(-1353.708 -866.235)" fill="#fff"/>
      </g>
      <g id="Grupo_482" data-name="Grupo 482" transform="translate(70.59 24.999)">
        <path id="Caminho_627" data-name="Caminho 627" d="M1360.093,868.929v-2.635h.4v.375a.947.947,0,0,1,.839-.434,1.1,1.1,0,0,1,.438.086.682.682,0,0,1,.3.224.848.848,0,0,1,.139.33,2.543,2.543,0,0,1,.025.434v1.62h-.447v-1.6a1.21,1.21,0,0,0-.052-.408.432.432,0,0,0-.185-.216.59.59,0,0,0-.312-.081.723.723,0,0,0-.493.181.9.9,0,0,0-.207.687v1.439Z" transform="translate(-1360.093 -866.235)" fill="#fff"/>
      </g>
      <g id="Grupo_483" data-name="Grupo 483" transform="translate(73.145 25.058)">
        <path id="Caminho_628" data-name="Caminho 628" d="M1366.58,869l-1-2.635h.471l.566,1.578q.092.256.169.531.06-.208.166-.5l.586-1.608h.459L1367,869Z" transform="translate(-1365.578 -866.363)" fill="#fff"/>
      </g>
      <g id="Grupo_484" data-name="Grupo 484" transform="translate(75.789 24.999)">
        <path id="Caminho_629" data-name="Caminho 629" d="M1371.255,867.612a1.356,1.356,0,0,1,.407-1.084,1.224,1.224,0,0,1,.829-.293,1.182,1.182,0,0,1,.888.356,1.355,1.355,0,0,1,.345.984,1.744,1.744,0,0,1-.153.8,1.073,1.073,0,0,1-.444.453,1.29,1.29,0,0,1-.636.162,1.183,1.183,0,0,1-.894-.355A1.417,1.417,0,0,1,1371.255,867.612Zm.459,0a1.122,1.122,0,0,0,.22.758.709.709,0,0,0,.556.252.7.7,0,0,0,.553-.253,1.148,1.148,0,0,0,.221-.771,1.09,1.09,0,0,0-.222-.741.736.736,0,0,0-1.108,0A1.114,1.114,0,0,0,1371.714,867.612Z" transform="translate(-1371.255 -866.235)" fill="#fff"/>
      </g>
      <g id="Grupo_485" data-name="Grupo 485" transform="translate(78.771 24.056)">
        <path id="Caminho_630" data-name="Caminho 630" d="M1377.656,867.848v-3.637h.447v3.637Z" transform="translate(-1377.656 -864.211)" fill="#fff"/>
      </g>
      <g id="Grupo_486" data-name="Grupo 486" transform="translate(79.64 25.058)">
        <path id="Caminho_631" data-name="Caminho 631" d="M1380.523,869l-1-2.635h.471l.565,1.578q.092.256.169.531.059-.208.166-.5l.586-1.608h.459l-1,2.635Z" transform="translate(-1379.521 -866.363)" fill="#fff"/>
      </g>
      <g id="Grupo_487" data-name="Grupo 487" transform="translate(82.453 24.056)">
        <path id="Caminho_632" data-name="Caminho 632" d="M1385.56,864.725v-.514h.446v.514Zm0,3.123v-2.635h.446v2.635Z" transform="translate(-1385.56 -864.211)" fill="#fff"/>
      </g>
      <g id="Grupo_488" data-name="Grupo 488" transform="translate(83.579 24.999)">
        <path id="Caminho_633" data-name="Caminho 633" d="M1387.978,868.929v-2.635h.4v.369a.95.95,0,0,1,.33-.311.925.925,0,0,1,.469-.118.868.868,0,0,1,.48.121.648.648,0,0,1,.264.34.946.946,0,0,1,.814-.462.8.8,0,0,1,.6.217.93.93,0,0,1,.21.669v1.808h-.444v-1.66a1.228,1.228,0,0,0-.043-.386.374.374,0,0,0-.157-.19.5.5,0,0,0-.268-.072.623.623,0,0,0-.462.185.815.815,0,0,0-.184.592v1.531h-.446v-1.712a.754.754,0,0,0-.109-.447.414.414,0,0,0-.357-.149.649.649,0,0,0-.349.1.565.565,0,0,0-.232.29,1.638,1.638,0,0,0-.072.551v1.367Z" transform="translate(-1387.978 -866.235)" fill="#fff"/>
      </g>
      <g id="Grupo_489" data-name="Grupo 489" transform="translate(87.662 24.999)">
        <path id="Caminho_634" data-name="Caminho 634" d="M1398.7,868.08l.461.057a1.124,1.124,0,0,1-.4.627,1.215,1.215,0,0,1-.755.224,1.2,1.2,0,0,1-.916-.356,1.388,1.388,0,0,1-.339-1,1.455,1.455,0,0,1,.343-1.032,1.159,1.159,0,0,1,.888-.367,1.129,1.129,0,0,1,.864.36,1.431,1.431,0,0,1,.334,1.012c0,.026,0,.066,0,.119h-1.965a1.013,1.013,0,0,0,.246.665.73.73,0,0,0,.551.231.684.684,0,0,0,.419-.129A.859.859,0,0,0,1398.7,868.08Zm-1.467-.722h1.471a.891.891,0,0,0-.168-.5.686.686,0,0,0-.554-.258.712.712,0,0,0-.517.206A.815.815,0,0,0,1397.23,867.358Z" transform="translate(-1396.744 -866.235)" fill="#fff"/>
      </g>
      <g id="Grupo_490" data-name="Grupo 490" transform="translate(90.637 24.999)">
        <path id="Caminho_635" data-name="Caminho 635" d="M1403.13,868.929v-2.635h.4v.375a.947.947,0,0,1,.838-.434,1.1,1.1,0,0,1,.438.086.682.682,0,0,1,.3.224.851.851,0,0,1,.139.33,2.528,2.528,0,0,1,.025.434v1.62h-.447v-1.6a1.2,1.2,0,0,0-.052-.408.428.428,0,0,0-.185-.216.589.589,0,0,0-.311-.081.722.722,0,0,0-.492.181.894.894,0,0,0-.207.687v1.439Z" transform="translate(-1403.13 -866.235)" fill="#fff"/>
      </g>
      <g id="Grupo_491" data-name="Grupo 491" transform="translate(93.217 24.138)">
        <path id="Caminho_636" data-name="Caminho 636" d="M1409.888,867.543l.065.394a1.651,1.651,0,0,1-.338.04.76.76,0,0,1-.376-.077.426.426,0,0,1-.189-.2,1.581,1.581,0,0,1-.055-.527v-1.516h-.328v-.347H1409v-.653l.444-.268v.92h.448v.347h-.448V867.2a.776.776,0,0,0,.023.245.189.189,0,0,0,.077.087.3.3,0,0,0,.152.032A1.523,1.523,0,0,0,1409.888,867.543Z" transform="translate(-1408.668 -864.387)" fill="#fff"/>
      </g>
      <g id="Grupo_492" data-name="Grupo 492" transform="translate(94.708 24.999)">
        <path id="Caminho_637" data-name="Caminho 637" d="M1411.869,867.612a1.356,1.356,0,0,1,.407-1.084,1.226,1.226,0,0,1,.829-.293,1.182,1.182,0,0,1,.888.356,1.355,1.355,0,0,1,.345.984,1.736,1.736,0,0,1-.153.8,1.074,1.074,0,0,1-.444.453,1.293,1.293,0,0,1-.636.162,1.184,1.184,0,0,1-.894-.355A1.418,1.418,0,0,1,1411.869,867.612Zm.459,0a1.125,1.125,0,0,0,.22.758.709.709,0,0,0,.556.252.7.7,0,0,0,.553-.253,1.148,1.148,0,0,0,.221-.771,1.09,1.09,0,0,0-.222-.741.736.736,0,0,0-1.108,0A1.118,1.118,0,0,0,1412.328,867.612Z" transform="translate(-1411.869 -866.235)" fill="#fff"/>
      </g>
      <g id="Grupo_493" data-name="Grupo 493" transform="translate(99.175 24.056)">
        <path id="Caminho_638" data-name="Caminho 638" d="M1421.459,867.848v-3.637h1.613a2.136,2.136,0,0,1,.739.1.811.811,0,0,1,.4.346,1.033,1.033,0,0,1,.151.548.912.912,0,0,1-.251.652,1.265,1.265,0,0,1-.774.337,1.252,1.252,0,0,1,.291.181,2.518,2.518,0,0,1,.4.484l.632.99h-.605l-.481-.757q-.211-.327-.348-.5a1.084,1.084,0,0,0-.245-.243.715.715,0,0,0-.219-.1,1.448,1.448,0,0,0-.268-.017h-.558v1.615Zm.482-2.032h1.034a1.558,1.558,0,0,0,.516-.068.549.549,0,0,0,.283-.219.588.588,0,0,0,.1-.326.543.543,0,0,0-.187-.424.876.876,0,0,0-.592-.166h-1.151Z" transform="translate(-1421.459 -864.211)" fill="#fff"/>
      </g>
      <g id="Grupo_494" data-name="Grupo 494" transform="translate(102.631 24.999)">
        <path id="Caminho_639" data-name="Caminho 639" d="M1430.83,868.08l.461.057a1.121,1.121,0,0,1-.4.627,1.369,1.369,0,0,1-1.671-.133,1.391,1.391,0,0,1-.339-1,1.456,1.456,0,0,1,.343-1.032,1.16,1.16,0,0,1,.888-.367,1.128,1.128,0,0,1,.864.36,1.428,1.428,0,0,1,.335,1.012c0,.026,0,.066,0,.119h-1.965a1.012,1.012,0,0,0,.246.665.73.73,0,0,0,.551.231.683.683,0,0,0,.419-.129A.855.855,0,0,0,1430.83,868.08Zm-1.466-.722h1.471a.9.9,0,0,0-.168-.5.686.686,0,0,0-.554-.258.71.71,0,0,0-.517.206A.815.815,0,0,0,1429.364,867.358Z" transform="translate(-1428.878 -866.235)" fill="#fff"/>
      </g>
      <g id="Grupo_495" data-name="Grupo 495" transform="translate(105.434 24.999)">
        <path id="Caminho_640" data-name="Caminho 640" d="M1434.985,869.148l.434.064a.414.414,0,0,0,.151.293.744.744,0,0,0,.455.124.8.8,0,0,0,.479-.124.611.611,0,0,0,.229-.347,2.879,2.879,0,0,0,.032-.573.919.919,0,0,1-.729.345,1,1,0,0,1-.841-.392,1.509,1.509,0,0,1-.3-.94,1.749,1.749,0,0,1,.136-.7,1.092,1.092,0,0,1,.4-.492,1.071,1.071,0,0,1,.609-.174.944.944,0,0,1,.769.377v-.317h.412v2.277a2.142,2.142,0,0,1-.126.872.917.917,0,0,1-.4.406,1.376,1.376,0,0,1-.668.149,1.261,1.261,0,0,1-.762-.212A.717.717,0,0,1,1434.985,869.148Zm.369-1.583a1.142,1.142,0,0,0,.206.756.654.654,0,0,0,.516.239.661.661,0,0,0,.516-.237,1.1,1.1,0,0,0,.208-.743,1.08,1.08,0,0,0-.214-.729.662.662,0,0,0-.517-.246.645.645,0,0,0-.506.242A1.072,1.072,0,0,0,1435.355,867.565Z" transform="translate(-1434.896 -866.235)" fill="#fff"/>
      </g>
      <g id="Grupo_496" data-name="Grupo 496" transform="translate(108.433 24.056)">
        <path id="Caminho_641" data-name="Caminho 641" d="M1441.335,864.725v-.514h.446v.514Zm0,3.123v-2.635h.446v2.635Z" transform="translate(-1441.335 -864.211)" fill="#fff"/>
      </g>
      <g id="Grupo_497" data-name="Grupo 497" transform="translate(109.393 24.999)">
        <path id="Caminho_642" data-name="Caminho 642" d="M1443.4,867.612a1.356,1.356,0,0,1,.407-1.084,1.225,1.225,0,0,1,.828-.293,1.182,1.182,0,0,1,.888.356,1.355,1.355,0,0,1,.345.984,1.736,1.736,0,0,1-.153.8,1.074,1.074,0,0,1-.444.453,1.293,1.293,0,0,1-.636.162,1.184,1.184,0,0,1-.894-.355A1.417,1.417,0,0,1,1443.4,867.612Zm.459,0a1.124,1.124,0,0,0,.221.758.736.736,0,0,0,1.109,0,1.15,1.15,0,0,0,.22-.771,1.091,1.091,0,0,0-.222-.741.735.735,0,0,0-1.108,0A1.116,1.116,0,0,0,1443.855,867.612Z" transform="translate(-1443.396 -866.235)" fill="#fff"/>
      </g>
      <g id="Grupo_498" data-name="Grupo 498" transform="translate(112.385 24.999)">
        <path id="Caminho_643" data-name="Caminho 643" d="M1449.818,868.929v-2.635h.4v.375a.948.948,0,0,1,.838-.434,1.1,1.1,0,0,1,.438.086.685.685,0,0,1,.3.224.855.855,0,0,1,.139.33,2.526,2.526,0,0,1,.025.434v1.62h-.447v-1.6a1.217,1.217,0,0,0-.052-.408.431.431,0,0,0-.185-.216.59.59,0,0,0-.312-.081.721.721,0,0,0-.492.181.892.892,0,0,0-.207.687v1.439Z" transform="translate(-1449.818 -866.235)" fill="#fff"/>
      </g>
      <g id="Grupo_499" data-name="Grupo 499" transform="translate(69.775 12.569)">
        <path id="Caminho_644" data-name="Caminho 644" d="M1360.214,841.92a1.655,1.655,0,0,1-.477.3,1.382,1.382,0,0,1-.492.087.958.958,0,0,1-.667-.212.7.7,0,0,1-.233-.542.721.721,0,0,1,.088-.354.732.732,0,0,1,.231-.257,1.093,1.093,0,0,1,.321-.147,3.269,3.269,0,0,1,.4-.067,4.069,4.069,0,0,0,.8-.154c0-.061,0-.1,0-.116a.493.493,0,0,0-.127-.384.747.747,0,0,0-.509-.151.79.79,0,0,0-.465.11.671.671,0,0,0-.222.391l-.437-.06a1.081,1.081,0,0,1,.2-.453.858.858,0,0,1,.395-.266,1.76,1.76,0,0,1,.6-.093,1.578,1.578,0,0,1,.548.08.726.726,0,0,1,.31.2.7.7,0,0,1,.139.3,2.5,2.5,0,0,1,.023.412v.6a6.331,6.331,0,0,0,.028.788.98.98,0,0,0,.113.316h-.467A.958.958,0,0,1,1360.214,841.92Zm-.037-1a3.267,3.267,0,0,1-.729.169,1.64,1.64,0,0,0-.39.089.381.381,0,0,0-.238.357.381.381,0,0,0,.135.3.583.583,0,0,0,.4.119.925.925,0,0,0,.459-.113.7.7,0,0,0,.3-.309,1.079,1.079,0,0,0,.072-.447Z" transform="translate(-1358.344 -839.551)" fill="#fff"/>
      </g>
      <g id="Grupo_500" data-name="Grupo 500" transform="translate(72.742 11.627)">
        <path id="Caminho_645" data-name="Caminho 645" d="M1364.713,841.164v-3.637h.447v3.637Z" transform="translate(-1364.713 -837.527)" fill="#fff"/>
      </g>
      <g id="Grupo_501" data-name="Grupo 501">
        <rect id="Retngulo_859" data-name="Retngulo 859" width="47.154" height="31.436" fill="none" stroke="#fff" stroke-miterlimit="10" stroke-width="1"/>
        <path id="Caminho_646" data-name="Caminho 646" d="M1256.285,823.728l.995-.726.995.726-.378-1.174,1.011-.726h-1.247l-.381-1.188-.381,1.189-1.244,0,1.009.726Z" transform="translate(-1233.713 -816.88)" fill="#fff"/>
        <path id="Caminho_647" data-name="Caminho 647" d="M1245.231,826.7l.994-.726.994.726-.377-1.174,1.01-.726h-1.247l-.38-1.189-.382,1.19H1244.6l1.009.726Z" transform="translate(-1227.807 -818.465)" fill="#fff"/>
        <path id="Caminho_648" data-name="Caminho 648" d="M1238.136,831.713l-.381,1.191h-1.245l1.01.726-.378,1.174.995-.726,1,.726-.379-1.174,1.01-.726h-1.245Z" transform="translate(-1223.486 -822.795)" fill="#fff"/>
        <path id="Caminho_649" data-name="Caminho 649" d="M1235.17,845.117l.995.726-.378-1.174,1.01-.727h-1.246l-.381-1.19-.381,1.193-1.245,0,1.009.727-.379,1.174Z" transform="translate(-1221.901 -828.692)" fill="#fff"/>
        <path id="Caminho_650" data-name="Caminho 650" d="M1238.517,855.017l-.381-1.19-.381,1.192-1.245,0,1.01.726-.378,1.175.995-.727.995.727-.378-1.175,1.01-.726Z" transform="translate(-1223.485 -834.608)" fill="#fff"/>
        <path id="Caminho_651" data-name="Caminho 651" d="M1246.623,863.123l-.382-1.187-.381,1.188h-1.245l1.009.726-.378,1.175.995-.726.994.726-.377-1.175,1.01-.726Z" transform="translate(-1227.816 -838.94)" fill="#fff"/>
        <path id="Caminho_652" data-name="Caminho 652" d="M1257.662,866.058l-.381-1.19-.382,1.191h-1.245l1.009.726-.377,1.174.995-.726.994.726-.379-1.174,1.012-.726Z" transform="translate(-1233.713 -840.506)" fill="#fff"/>
        <path id="Caminho_653" data-name="Caminho 653" d="M1268.7,863.123l-.381-1.187-.382,1.188H1266.7l1.009.726-.377,1.175.995-.726.995.726-.378-1.175,1.011-.726Z" transform="translate(-1239.611 -838.94)" fill="#fff"/>
        <path id="Caminho_654" data-name="Caminho 654" d="M1276.809,855.017l-.382-1.19-.383,1.192-1.244,0,1.01.726-.379,1.175.995-.727.994.727-.378-1.175,1.01-.726Z" transform="translate(-1243.94 -834.608)" fill="#fff"/>
        <path id="Caminho_655" data-name="Caminho 655" d="M1280.989,843.912h-1.246l-.381-1.189-.381,1.191-1.245,0,1.009.727-.378,1.174.994-.728.995.728-.378-1.174Z" transform="translate(-1245.508 -828.676)" fill="#fff"/>
        <path id="Caminho_656" data-name="Caminho 656" d="M1275.433,834.771l1-.726.995.726-.379-1.175,1.01-.724h-1.244l-.382-1.19-.383,1.191H1274.8l1.01.724Z" transform="translate(-1243.941 -822.778)" fill="#fff"/>
        <path id="Caminho_657" data-name="Caminho 657" d="M1268.354,823.608l-.381,1.192-1.245,0,1.009.727-.379,1.174,1-.727.993.727-.378-1.174,1.01-.727h-1.246Z" transform="translate(-1239.628 -818.465)" fill="#fff"/>
      </g>
    </g>
    <g id="Grupo_503" data-name="Grupo 503" transform="translate(800.355 2269.42)">
      <path id="Caminho_658" data-name="Caminho 658" d="M997.8,853.927l7.054-5.989q1.054-.877,1.785-1.592a10.153,10.153,0,0,0,1.185-1.36,4.829,4.829,0,0,0,.658-1.256,4.1,4.1,0,0,0,.205-1.315,2.954,2.954,0,0,0-.952-2.35,3.437,3.437,0,0,0-2.356-.834,4.154,4.154,0,0,0-2.474.761,11.4,11.4,0,0,0-2.268,2.312l-2.546-1.989a17.484,17.484,0,0,1,1.493-1.838,7.862,7.862,0,0,1,1.653-1.356,7.561,7.561,0,0,1,1.962-.843,9.151,9.151,0,0,1,2.443-.3,8.144,8.144,0,0,1,2.737.44,6.24,6.24,0,0,1,2.136,1.243,5.659,5.659,0,0,1,1.392,1.933,6.137,6.137,0,0,1,.5,2.5v.058a6.969,6.969,0,0,1-.322,2.18,6.87,6.87,0,0,1-.979,1.888,12.308,12.308,0,0,1-1.669,1.829q-1.011.922-2.357,2.035l-4.214,3.512h9.746v3.16H997.8Z" transform="translate(-972.34 -825.451)" fill="#fff"/>
      <path id="Caminho_659" data-name="Caminho 659" d="M1043.854,856.291a10.949,10.949,0,0,1-4.331-.833,10.249,10.249,0,0,1-3.367-2.269,10.387,10.387,0,0,1-2.195-3.35,10.614,10.614,0,0,1-.79-4.082V845.7a10.623,10.623,0,0,1,.79-4.084,10.371,10.371,0,0,1,2.224-3.365,10.68,10.68,0,0,1,7.728-3.146,10.949,10.949,0,0,1,4.331.835,10.272,10.272,0,0,1,3.366,2.268,10.411,10.411,0,0,1,2.2,3.35,10.627,10.627,0,0,1,.79,4.085v.057a10.609,10.609,0,0,1-.79,4.083,10.314,10.314,0,0,1-2.224,3.365,10.679,10.679,0,0,1-7.728,3.146m.059-3.305a6.706,6.706,0,0,0,2.784-.571,6.632,6.632,0,0,0,2.17-1.551,7.193,7.193,0,0,0,1.414-2.3,7.693,7.693,0,0,0,.509-2.809V845.7a7.815,7.815,0,0,0-.509-2.824,7,7,0,0,0-1.429-2.312,6.893,6.893,0,0,0-2.2-1.566,6.766,6.766,0,0,0-7.753,1.537,7.179,7.179,0,0,0-1.414,2.3,7.732,7.732,0,0,0-.511,2.81v.057a7.853,7.853,0,0,0,.511,2.824,7.017,7.017,0,0,0,1.428,2.312,6.9,6.9,0,0,0,2.2,1.567,6.666,6.666,0,0,0,2.8.586" transform="translate(-991.236 -824.982)" fill="#fff"/>
      <path id="Caminho_660" data-name="Caminho 660" d="M1082.18,853.927l7.056-5.989q1.05-.877,1.785-1.592a10.174,10.174,0,0,0,1.184-1.36,4.872,4.872,0,0,0,.659-1.256,4.138,4.138,0,0,0,.2-1.315,2.952,2.952,0,0,0-.951-2.35,3.439,3.439,0,0,0-2.355-.834,4.143,4.143,0,0,0-2.472.761,11.3,11.3,0,0,0-2.269,2.312l-2.548-1.989a17.847,17.847,0,0,1,1.493-1.838,7.923,7.923,0,0,1,1.655-1.356,7.551,7.551,0,0,1,1.961-.843,9.144,9.144,0,0,1,2.443-.3,8.134,8.134,0,0,1,2.737.44,6.23,6.23,0,0,1,2.137,1.243,5.64,5.64,0,0,1,1.39,1.933,6.1,6.1,0,0,1,.5,2.5v.058a6.54,6.54,0,0,1-1.3,4.068,12.093,12.093,0,0,1-1.667,1.829q-1.014.922-2.357,2.035l-4.216,3.512h9.747v3.16H1082.18Z" transform="translate(-1017.416 -825.451)" fill="#fff"/>
      <path id="Caminho_661" data-name="Caminho 661" d="M1128.238,856.291a10.958,10.958,0,0,1-4.332-.833,10.209,10.209,0,0,1-5.559-5.619,10.594,10.594,0,0,1-.792-4.082V845.7a10.6,10.6,0,0,1,.792-4.084,10.326,10.326,0,0,1,2.224-3.365,10.661,10.661,0,0,1,7.727-3.146,10.954,10.954,0,0,1,4.33.835,10.306,10.306,0,0,1,3.367,2.268,10.43,10.43,0,0,1,2.194,3.35,10.636,10.636,0,0,1,.79,4.085v.057a10.617,10.617,0,0,1-.79,4.083,10.3,10.3,0,0,1-2.224,3.365,10.692,10.692,0,0,1-7.727,3.146m.06-3.305a6.7,6.7,0,0,0,2.781-.571,6.62,6.62,0,0,0,2.172-1.551,7.217,7.217,0,0,0,1.413-2.3,7.706,7.706,0,0,0,.51-2.809V845.7a7.829,7.829,0,0,0-.51-2.824,7.052,7.052,0,0,0-1.427-2.312,6.9,6.9,0,0,0-2.2-1.566,6.771,6.771,0,0,0-7.753,1.537,7.158,7.158,0,0,0-1.413,2.3,7.706,7.706,0,0,0-.51,2.81v.057a7.826,7.826,0,0,0,.51,2.824,7.008,7.008,0,0,0,1.427,2.312,6.893,6.893,0,0,0,2.2,1.567,6.691,6.691,0,0,0,2.8.586" transform="translate(-1036.313 -824.982)" fill="#fff"/>
      <path id="Caminho_662" data-name="Caminho 662" d="M1000.013,817.207a3.311,3.311,0,0,1-.367-.015v1.235a5.507,5.507,0,0,1,.743.1v.687H997.8v-.687a5.455,5.455,0,0,1,.741-.1v-4.166a6.108,6.108,0,0,1-.741-.1v-.69h.668c.27,0,1.02-.033,1.617-.033,1.4,0,2.178.656,2.178,1.78a2.03,2.03,0,0,1-2.247,1.991m.017-2.866c-.136,0-.255,0-.385,0v1.917a2.269,2.269,0,0,0,.322.027,1.024,1.024,0,0,0,1.145-1.005c0-.58-.324-.943-1.082-.943m5.338,4.968c-1.754,0-2.613-1.114-2.613-2.893a2.808,2.808,0,0,1,2.809-3.042c1.532,0,2.616.921,2.616,2.887a2.806,2.806,0,0,1-2.812,3.047m.095-4.936c-.792,0-1.524.631-1.524,1.922,0,1.217.478,2.01,1.507,2.01.75,0,1.548-.579,1.548-1.958,0-1.277-.542-1.975-1.531-1.975m6.512,4.843-1.406-2.371h-.152v1.582a2.68,2.68,0,0,1,.521.092v.7h-2.368v-.687a5.477,5.477,0,0,1,.74-.1v-4.166a6.137,6.137,0,0,1-.74-.1v-.69h.664c.223,0,1.021-.033,1.727-.033,1.27,0,2.088.441,2.088,1.616a1.582,1.582,0,0,1-1.355,1.561c.1.135.2.28.291.415l.885,1.39c.161.023.364.058.563.094v.7Zm-1.133-4.875a3.044,3.044,0,0,0-.425.021v1.662c.077.007.222.015.39.015.674,0,1.074-.339,1.074-.877s-.333-.822-1.04-.822m6.52.746c-.039-.262-.085-.491-.1-.707h-.887v4.047a5.541,5.541,0,0,1,.742.1v.687h-2.589v-.687a5.5,5.5,0,0,1,.741-.1V814.38h-.877c-.016.216-.06.445-.1.707h-.82v-1.618h4.707v1.618Zm6.409-.825v2.751a2.09,2.09,0,0,1-2.376,2.3c-1.816,0-2.221-.987-2.221-2.084v-2.964a3.185,3.185,0,0,1-.537-.094v-.7h2.255v.7a3.916,3.916,0,0,1-.613.094v2.9c0,.725.231,1.235,1.186,1.235.849,0,1.216-.358,1.216-1.337v-2.793a3.592,3.592,0,0,1-.611-.094v-.7h2.229v.7a3.078,3.078,0,0,1-.527.094m5.712,2.734v1.952a5.53,5.53,0,0,1-1.983.355,2.632,2.632,0,0,1-2.888-2.826,2.955,2.955,0,0,1,3.186-3.093,6.377,6.377,0,0,1,1.6.214v1.541h-.854c-.048-.247-.075-.467-.1-.691a2.735,2.735,0,0,0-.707-.086,1.829,1.829,0,0,0-1.923,2.009,1.718,1.718,0,0,0,1.832,1.934,2.354,2.354,0,0,0,.728-.1V817a4.615,4.615,0,0,1-.728-.11v-.69h2.315v.706c-.155.035-.318.06-.479.086m4,2.221v-.687a5.636,5.636,0,0,1,.6-.093l-.246-.682h-2.095l-.239.682a5.554,5.554,0,0,1,.607.093v.687h-2.163v-.687a2.028,2.028,0,0,1,.45-.088l1.753-4.972h1.354l1.789,4.972a2.016,2.016,0,0,1,.451.088v.687Zm-.426-3.737a8.008,8.008,0,0,1-.263-.9h-.008a8.521,8.521,0,0,1-.272.943l-.5,1.374h1.549Zm2.951,3.737v-.687a5.534,5.534,0,0,1,.743-.1v-4.166a6.205,6.205,0,0,1-.743-.1v-.69h2.59v.69a6.1,6.1,0,0,1-.744.1v4.044h1.1c.017-.206.059-.451.1-.7h.816v1.615Z" transform="translate(-972.34 -813.375)" fill="#fff"/>
      <path id="Caminho_663" data-name="Caminho 663" d="M951.365,813.9c-5.07,2-8.221,7.292-8.221,15.436V841.7s1.037-7.947,8.221-10.236Z" transform="translate(-943.144 -813.655)" fill="#fff"/>
      <path id="Caminho_664" data-name="Caminho 664" d="M956.277,832.87c-2.944.588-7.259,2.949-8.529,6.273,6.323-7.677,19.228-.257,19.8-14.7.18-4.572.2-10.2.2-10.2a42.2,42.2,0,0,0-11.47,2.174Z" transform="translate(-945.603 -813.841)" fill="#fff"/>
      <path id="Caminho_665" data-name="Caminho 665" d="M955.736,863.178s-6.861.556-7.444,4.474c-.46,3.062,7.444,3.142,7.444,3.142Z" transform="translate(-945.884 -839.979)" fill="#fff"/>
    </g>
    <g id="Grupo_504" data-name="Grupo 504" transform="translate(677.597 2241)">
      <path id="Caminho_666" data-name="Caminho 666" d="M684.116,756.362l.794.2a2.668,2.668,0,0,1-.9,1.492,2.472,2.472,0,0,1-1.586.514,2.848,2.848,0,0,1-1.578-.395,2.465,2.465,0,0,1-.925-1.144,4.085,4.085,0,0,1-.318-1.609,3.544,3.544,0,0,1,.358-1.636,2.453,2.453,0,0,1,1.02-1.06,2.976,2.976,0,0,1,1.455-.362,2.459,2.459,0,0,1,1.515.458,2.382,2.382,0,0,1,.856,1.29l-.782.184a1.854,1.854,0,0,0-.606-.954,1.615,1.615,0,0,0-1-.3,1.939,1.939,0,0,0-1.157.332,1.749,1.749,0,0,0-.653.891,3.577,3.577,0,0,0-.189,1.152,3.663,3.663,0,0,0,.223,1.336,1.663,1.663,0,0,0,.694.854,1.947,1.947,0,0,0,1.019.282,1.706,1.706,0,0,0,1.13-.384,1.969,1.969,0,0,0,.627-1.142" transform="translate(-679.604 -752.362)" fill="#fff"/>
      <path id="Caminho_667" data-name="Caminho 667" d="M692.3,758.193a2.241,2.241,0,0,1,.671-1.789,2.025,2.025,0,0,1,1.368-.483,1.949,1.949,0,0,1,1.465.587,2.237,2.237,0,0,1,.569,1.623,2.882,2.882,0,0,1-.251,1.321,1.789,1.789,0,0,1-.734.747,2.135,2.135,0,0,1-1.049.266,1.952,1.952,0,0,1-1.476-.586,2.336,2.336,0,0,1-.563-1.687m.757,0a1.853,1.853,0,0,0,.364,1.251,1.214,1.214,0,0,0,1.831,0,1.9,1.9,0,0,0,.364-1.274,1.8,1.8,0,0,0-.366-1.222,1.216,1.216,0,0,0-1.829,0,1.846,1.846,0,0,0-.364,1.249" transform="translate(-686.389 -754.263)" fill="#fff"/>
      <path id="Caminho_668" data-name="Caminho 668" d="M702.536,758.466v-3.775h-.651v-.573h.651v-.463a2.032,2.032,0,0,1,.078-.651.94.94,0,0,1,.375-.464,1.35,1.35,0,0,1,.751-.178,3.6,3.6,0,0,1,.688.074l-.111.643a2.448,2.448,0,0,0-.434-.041.646.646,0,0,0-.475.143.777.777,0,0,0-.139.537v.4h.848v.573h-.848v3.775Z" transform="translate(-691.506 -752.362)" fill="#fff"/>
      <path id="Caminho_669" data-name="Caminho 669" d="M707.914,752.581h.737v.847h-.737Zm0,1.654h.737v4.348h-.737Z" transform="translate(-694.727 -752.479)" fill="#fff"/>
      <path id="Caminho_670" data-name="Caminho 670" d="M711.9,760.367v-4.348h.663v.618a1.563,1.563,0,0,1,1.384-.716,1.815,1.815,0,0,1,.722.141,1.137,1.137,0,0,1,.493.371,1.425,1.425,0,0,1,.229.544,4.2,4.2,0,0,1,.041.716v2.673H714.7v-2.644a1.99,1.99,0,0,0-.086-.674.708.708,0,0,0-.3-.356.969.969,0,0,0-.514-.133,1.193,1.193,0,0,0-.813.3,1.474,1.474,0,0,0-.342,1.134v2.375Z" transform="translate(-696.858 -754.263)" fill="#fff"/>
      <path id="Caminho_671" data-name="Caminho 671" d="M724.466,759.831a2.767,2.767,0,0,1-.788.491,2.279,2.279,0,0,1-.813.143,1.581,1.581,0,0,1-1.1-.35,1.155,1.155,0,0,1-.385-.894,1.211,1.211,0,0,1,.526-1.007,1.787,1.787,0,0,1,.53-.242,5.258,5.258,0,0,1,.655-.11,6.746,6.746,0,0,0,1.314-.254c0-.1,0-.165,0-.192a.816.816,0,0,0-.209-.635,1.235,1.235,0,0,0-.839-.25,1.3,1.3,0,0,0-.768.182,1.113,1.113,0,0,0-.367.645l-.721-.1a1.783,1.783,0,0,1,.324-.747,1.419,1.419,0,0,1,.651-.439,2.926,2.926,0,0,1,.987-.153,2.609,2.609,0,0,1,.905.131,1.184,1.184,0,0,1,.511.329,1.159,1.159,0,0,1,.23.5,4.192,4.192,0,0,1,.037.68v.982a10.38,10.38,0,0,0,.047,1.3,1.628,1.628,0,0,0,.186.522h-.77a1.566,1.566,0,0,1-.147-.537m-.061-1.646a5.415,5.415,0,0,1-1.2.279,2.779,2.779,0,0,0-.643.147.642.642,0,0,0-.291.239.651.651,0,0,0,.121.841.959.959,0,0,0,.653.2,1.516,1.516,0,0,0,.757-.186,1.146,1.146,0,0,0,.487-.51,1.78,1.78,0,0,0,.119-.737Z" transform="translate(-701.92 -754.264)" fill="#fff"/>
      <path id="Caminho_672" data-name="Caminho 672" d="M731.926,760.367v-4.348h.663v.618a1.563,1.563,0,0,1,1.384-.716,1.811,1.811,0,0,1,.722.141,1.136,1.136,0,0,1,.494.371,1.431,1.431,0,0,1,.229.544,4.2,4.2,0,0,1,.041.716v2.673h-.737v-2.644a1.989,1.989,0,0,0-.086-.674.708.708,0,0,0-.3-.356.969.969,0,0,0-.514-.133,1.193,1.193,0,0,0-.813.3,1.475,1.475,0,0,0-.342,1.134v2.375Z" transform="translate(-707.554 -754.263)" fill="#fff"/>
      <path id="Caminho_673" data-name="Caminho 673" d="M744.515,758.774l.725.094a1.878,1.878,0,0,1-.608,1.173,1.77,1.77,0,0,1-1.2.424,1.868,1.868,0,0,1-1.435-.584,2.367,2.367,0,0,1-.542-1.672,3.023,3.023,0,0,1,.233-1.232,1.627,1.627,0,0,1,.71-.792,2.106,2.106,0,0,1,1.038-.264,1.8,1.8,0,0,1,1.158.358,1.641,1.641,0,0,1,.577,1.017l-.716.11a1.19,1.19,0,0,0-.362-.659.938.938,0,0,0-.628-.221,1.142,1.142,0,0,0-.9.4,1.9,1.9,0,0,0-.348,1.263,1.961,1.961,0,0,0,.335,1.273,1.093,1.093,0,0,0,.876.4,1.033,1.033,0,0,0,.725-.266,1.321,1.321,0,0,0,.368-.819" transform="translate(-712.643 -754.263)" fill="#fff"/>
      <path id="Caminho_674" data-name="Caminho 674" d="M750.945,752.581h.737v.847h-.737Zm0,1.654h.737v4.348h-.737Z" transform="translate(-717.714 -752.479)" fill="#fff"/>
      <path id="Caminho_675" data-name="Caminho 675" d="M757.486,759.831a2.767,2.767,0,0,1-.788.491,2.279,2.279,0,0,1-.813.143,1.581,1.581,0,0,1-1.1-.35,1.155,1.155,0,0,1-.385-.894,1.211,1.211,0,0,1,.526-1.007,1.8,1.8,0,0,1,.53-.242,5.27,5.27,0,0,1,.656-.11,6.749,6.749,0,0,0,1.314-.254c0-.1,0-.165,0-.192a.815.815,0,0,0-.209-.635,1.233,1.233,0,0,0-.839-.25,1.3,1.3,0,0,0-.768.182,1.112,1.112,0,0,0-.366.645l-.721-.1a1.777,1.777,0,0,1,.324-.747,1.417,1.417,0,0,1,.651-.439,2.922,2.922,0,0,1,.986-.153,2.61,2.61,0,0,1,.906.131,1.182,1.182,0,0,1,.511.329,1.148,1.148,0,0,1,.23.5,4.128,4.128,0,0,1,.037.68v.982a10.263,10.263,0,0,0,.047,1.3,1.618,1.618,0,0,0,.186.522h-.77a1.577,1.577,0,0,1-.148-.537m-.061-1.646a5.416,5.416,0,0,1-1.2.279,2.78,2.78,0,0,0-.642.147.641.641,0,0,0-.291.239.65.65,0,0,0,.12.841.96.96,0,0,0,.654.2,1.517,1.517,0,0,0,.757-.186,1.151,1.151,0,0,0,.487-.51,1.789,1.789,0,0,0,.118-.737Z" transform="translate(-719.559 -754.264)" fill="#fff"/>
      <path id="Caminho_676" data-name="Caminho 676" d="M767.462,758.583v-.549a1.352,1.352,0,0,1-1.216.647,1.706,1.706,0,0,1-.956-.286,1.886,1.886,0,0,1-.675-.8,2.766,2.766,0,0,1-.239-1.181,3.087,3.087,0,0,1,.217-1.181,1.71,1.71,0,0,1,.651-.812,1.738,1.738,0,0,1,.97-.283,1.451,1.451,0,0,1,.7.166,1.474,1.474,0,0,1,.5.432v-2.153h.733v6Zm-2.33-2.17a1.889,1.889,0,0,0,.352,1.249,1.062,1.062,0,0,0,.831.413,1.041,1.041,0,0,0,.821-.395,1.819,1.819,0,0,0,.338-1.206,2.046,2.046,0,0,0-.344-1.31,1.058,1.058,0,0,0-.847-.417,1.021,1.021,0,0,0-.821.4,1.98,1.98,0,0,0-.33,1.265" transform="translate(-724.888 -752.479)" fill="#fff"/>
      <path id="Caminho_677" data-name="Caminho 677" d="M774.368,758.193a2.241,2.241,0,0,1,.671-1.789,2.025,2.025,0,0,1,1.368-.483,1.949,1.949,0,0,1,1.465.587,2.235,2.235,0,0,1,.569,1.623,2.881,2.881,0,0,1-.252,1.321,1.785,1.785,0,0,1-.733.747,2.137,2.137,0,0,1-1.05.266,1.953,1.953,0,0,1-1.476-.586,2.338,2.338,0,0,1-.563-1.687m.757,0a1.854,1.854,0,0,0,.364,1.251,1.214,1.214,0,0,0,1.83,0,1.9,1.9,0,0,0,.364-1.274,1.8,1.8,0,0,0-.366-1.222,1.216,1.216,0,0,0-1.828,0,1.846,1.846,0,0,0-.364,1.249" transform="translate(-730.226 -754.263)" fill="#fff"/>
      <path id="Caminho_678" data-name="Caminho 678" d="M789.968,762.033v-6.014h.672v.565a1.662,1.662,0,0,1,.536-.5,1.476,1.476,0,0,1,.725-.166,1.714,1.714,0,0,1,.982.287,1.753,1.753,0,0,1,.643.808,2.948,2.948,0,0,1,.217,1.144,2.908,2.908,0,0,1-.239,1.2,1.808,1.808,0,0,1-.7.818,1.786,1.786,0,0,1-.96.285,1.384,1.384,0,0,1-.661-.156,1.5,1.5,0,0,1-.481-.393v2.117Zm.667-3.815a1.891,1.891,0,0,0,.34,1.24,1.043,1.043,0,0,0,.823.4,1.065,1.065,0,0,0,.841-.416,1.97,1.97,0,0,0,.35-1.287,1.922,1.922,0,0,0-.342-1.245,1.029,1.029,0,0,0-.817-.413,1.062,1.062,0,0,0-.833.44,1.968,1.968,0,0,0-.362,1.28" transform="translate(-738.56 -754.263)" fill="#fff"/>
      <path id="Caminho_679" data-name="Caminho 679" d="M799.391,758.193a2.242,2.242,0,0,1,.671-1.789,2.027,2.027,0,0,1,1.368-.483,1.948,1.948,0,0,1,1.465.587,2.235,2.235,0,0,1,.57,1.623,2.887,2.887,0,0,1-.252,1.321,1.787,1.787,0,0,1-.734.747,2.137,2.137,0,0,1-1.05.266,1.952,1.952,0,0,1-1.475-.586,2.336,2.336,0,0,1-.563-1.687m.757,0a1.853,1.853,0,0,0,.364,1.251,1.213,1.213,0,0,0,1.83,0,1.9,1.9,0,0,0,.365-1.274,1.8,1.8,0,0,0-.366-1.222,1.216,1.216,0,0,0-1.828,0,1.846,1.846,0,0,0-.364,1.249" transform="translate(-743.593 -754.263)" fill="#fff"/>
      <path id="Caminho_680" data-name="Caminho 680" d="M809.973,760.367v-4.348h.663v.659a1.809,1.809,0,0,1,.469-.61.82.82,0,0,1,.472-.147,1.432,1.432,0,0,1,.757.238l-.254.684a1.049,1.049,0,0,0-.54-.16.7.7,0,0,0-.434.145.781.781,0,0,0-.274.4,2.848,2.848,0,0,0-.123.859v2.276Z" transform="translate(-749.246 -754.263)" fill="#fff"/>
      <path id="Caminho_681" data-name="Caminho 681" d="M816.424,756.132h.839v.839h-.839Zm0,3.508h.839v.839h-.839Z" transform="translate(-752.692 -754.376)" fill="#fff"/>
    </g>
  </g>
</svg>
