<svg xmlns="http://www.w3.org/2000/svg" width="653.673" height="166.111" viewBox="0 0 653.673 166.111">
  <g id="Logo_stone" data-name="Logo stone" transform="translate(-633 -480.387)">
    <g id="LOGO_STONE-2" data-name="LOGO STONE" transform="translate(633 480.387)">
      <path id="Caminho_167" data-name="Caminho 167" d="M107.4,40.225h36.839l6.618,13.466H107.4v61.732c0,24.027,5.521,30.548,20.276,30.548,7.483,0,18.948-3.732,24.489-14.428l2.424,4.944C142.737,156.07,129.329,166,109.4,166c-17.313,0-32.03-10.022-32.03-38.474V53.71L63,24.8,107.4,0Z" transform="translate(58.193)" fill="#fff"/>
      <path id="Caminho_168" data-name="Caminho 168" d="M178.425,148.017c-35.55,0-54.325-28.855-54.325-58.827,0-32.3,21.776-69.83,68.33-69.83,35.55,0,54.325,28.855,54.325,58.807C246.755,110.466,224.979,148.017,178.425,148.017ZM155.88,66.394c0,39.07,14.274,72.1,36.319,72.1,18.525,0,23.277-24.527,23.277-37.551,0-39.051-14.524-72.081-36.55-72.081C158.15,28.863,155.88,51.37,155.88,66.394Z" transform="translate(114.631 17.883)" fill="#fff"/>
      <path id="Caminho_169" data-name="Caminho 169" d="M293.355,147.011v-77.1c0-19.237-2.751-31.549-22.026-31.549-9.272,0-18.795,4-26.8,14.774v93.877H214.5V70.852L200.19,42l44.341-24.8V44.632a49.8,49.8,0,0,1,41.3-23.277c25.547,0,37.551,16.505,37.551,40.051v85.6Z" transform="translate(184.915 15.888)" fill="#fff"/>
      <path id="Caminho_170" data-name="Caminho 170" d="M392.247,73.979H311.625c2.77,32.414,20.083,45.976,39.686,45.976,17.063,0,32.145-8.541,35.915-19.1l3.751,1.52c-9.041,22.854-26.932,45.957-56.749,45.957-32.9,0-51.478-29.394-51.478-59.519,0-32.4,20.083-69.561,61.02-69.561,29.894,0,48.227,20.083,48.477,53.979l.25.519h-.25Zm-32.414-9.792c0-26.932-10.792-37.416-21.834-37.416-19.083,0-26.932,22.854-26.932,37.935v1.751h48.708Z" transform="translate(261.176 17.781)" fill="#fff"/>
      <path id="Caminho_171" data-name="Caminho 171" d="M83.431,26.755A91.183,91.183,0,0,0,48.92,19.33C36.55,19.33.135,22.139.135,59.728S64.54,89.583,64.54,126.615c0,7.695-6.964,11.369-11.908,12.946a24.584,24.584,0,0,1-7.483,1.116H38.224L0,90.161v50.516s23.8,7.406,43.341,7.406c10.061,0,50.478-3.963,50.478-42.321S26.624,69.615,26.624,41.78c0-7.926,5.367-11.7,9.946-13.466A24.585,24.585,0,0,1,45.3,26.775h8.253l29.8,42.071Z" transform="translate(0 17.855)" fill="#fff"/>
    </g>
  </g>
</svg>
