<svg id="Grupo_427" data-name="Grupo 427" xmlns="http://www.w3.org/2000/svg" width="1266.265" height="171.105" viewBox="0 0 1266.265 171.105">
  <path id="Caminho_455" data-name="Caminho 455" d="M426.664,783.845c-36.121,0-55.192-29.254-55.192-59.767,0-32.819,22.128-70.965,69.431-70.965,36.117,0,55.2,29.245,55.2,59.771C496.106,745.685,473.974,783.845,426.664,783.845Zm-22.9-82.922c0,39.681,14.5,73.25,36.887,73.25,18.816,0,23.65-24.926,23.65-38.146,0-39.681-14.745-73.253-37.132-73.253C406.057,662.774,403.766,685.67,403.766,700.923Z" transform="translate(25.575 -615.281)" fill="#fff"/>
  <path id="Caminho_456" data-name="Caminho 456" d="M542.082,653.931l-13.241,13.74L477.727,782.128l-1.015,2.031h-5.086l-51.91-116.488-13.2-13.74h63.05l-15.525,13.74,31.309,70.037,31.309-70.037-15.472-13.74Z" transform="translate(120.84 -613.054)" fill="#fff"/>
  <path id="Caminho_457" data-name="Caminho 457" d="M526.678,683.815h37.43l6.723,13.74H526.678v62.565c0,24.42,5.6,31.036,20.6,31.036,7.607,0,19.258-3.8,24.873-14.648l2.481,5.014c-12.056,19.909-25.676,29.982-45.92,29.982-17.551,0-32.555-10.178-32.555-39.172V697.508l-14.576-29.369,45.093-25.2Z" transform="translate(324.911 -642.939)" fill="#fff"/>
  <path id="Caminho_458" data-name="Caminho 458" d="M588.058,783.845c-36.118,0-55.192-29.254-55.192-59.767,0-32.819,22.129-70.965,69.43-70.965,36.116,0,55.193,29.245,55.193,59.771C657.489,745.685,635.37,783.845,588.058,783.845Zm-22.9-82.922c0,39.681,14.5,73.25,36.884,73.25,18.826,0,23.652-24.926,23.652-38.146,0-39.681-14.746-73.253-37.136-73.253C567.449,662.774,565.163,685.67,565.163,700.923Z" transform="translate(464.316 -615.281)" fill="#fff"/>
  <path id="Caminho_459" data-name="Caminho 459" d="M309.757,651.963V783.917H279.24V706.536l-14.546-29.372Z" transform="translate(-264.694 -618.404)" fill="#fff"/>
  <path id="Caminho_460" data-name="Caminho 460" d="M513.361,676.786" transform="translate(411.292 -550.929)" fill="#fff"/>
  <path id="Caminho_461" data-name="Caminho 461" d="M497.852,658.179" transform="translate(369.132 -601.51)" fill="#fff"/>
  <path id="Caminho_462" data-name="Caminho 462" d="M380.913,783.917V705.58c0-19.592-2.8-32.05-22.378-32.05-9.415,0-19.087,4.068-27.226,15v95.383H300.8V706.536l-14.543-29.372,45.056-25.2v27.926c10.181-15.769,26.717-23.652,41.97-23.652,25.951,0,38.158,16.784,38.158,40.7v86.983Z" transform="translate(-206.087 -618.404)" fill="#fff"/>
  <path id="Caminho_463" data-name="Caminho 463" d="M423.79,783.917V705.58c0-19.592-2.8-32.05-22.378-32.05-9.411,0-19.083,4.068-27.223,15v95.383H343.672V706.536l-14.539-29.372,45.056-25.2v27.926c10.181-15.769,26.717-23.652,41.971-23.652,25.951,0,38.158,16.784,38.158,40.7v86.983Z" transform="translate(-89.517 -618.404)" fill="#fff"/>
  <path id="Caminho_464" data-name="Caminho 464" d="M666.222,783.917V705.58c0-19.592-2.8-32.05-22.378-32.05-9.412,0-19.083,4.068-27.222,15v95.383H586.1V706.536l-14.538-29.372,45.057-25.2v27.926c10.177-15.769,26.716-23.652,41.97-23.652,25.947,0,38.158,16.784,38.158,40.7v86.983Z" transform="translate(569.516 -618.404)" fill="#fff"/>
  <path id="Caminho_465" data-name="Caminho 465" d="M556.982,651.963V783.917H526.465V706.536l-14.551-29.372Z" transform="translate(407.358 -618.404)" fill="#fff"/>
  <path id="Caminho_466" data-name="Caminho 466" d="M452.1,653.931V694.7h.1L472,667.671H504.57a16.319,16.319,0,0,1,16.316,16.313v13.33c-43.974,15.51-74.714,28.769-74.714,54.716,0,20.649,13,29.309,30.584,29.309,16.707,0,34.41-14.331,44.134-23.764V778.8h30.584V653.931ZM498.918,761.2c-10.7,0-19.109-5.354-19.109-17.585,0-12.211,1.275-23.149,41.078-39.154l0,46.234C514.554,757.2,506.74,761.2,498.918,761.2Z" transform="translate(228.643 -613.054)" fill="#fff"/>
</svg>
