<svg xmlns="http://www.w3.org/2000/svg" width="887.789" height="205.738" viewBox="0 0 887.789 205.738">
  <g id="LOGO_EXPLORE" data-name="LOGO EXPLORE" transform="translate(-2.1 -2.9)">
    <path id="Caminho_257" data-name="Caminho 257" d="M315.167,152.656c-36,0-54.967-29.225-54.967-59.612,0-32.709,22.064-70.644,69.1-70.644,36,0,54.967,29.225,54.967,59.612.194,32.709-21.871,70.644-69.1,70.644M292.328,70.012c0,39.483,14.516,72.966,36.773,72.966,18.774,0,23.612-24.774,23.612-37.935,0-39.483-14.709-72.966-36.967-72.966-21.1,0-23.419,22.838-23.419,37.935" transform="translate(241.439 18.241)" fill="#fff"/>
    <path id="Caminho_258" data-name="Caminho 258" d="M184.8,43.912c9.1-10.645,20.322-18.967,38.9-18.967,33.1,0,50.709,29.225,50.709,59.612,0,28.258-17.613,69.483-66,69.483a117.577,117.577,0,0,1-23.612-3.1v41.419H154.416V74.686L139.9,45.461,184.8,20.3V43.912Zm0,81.676c7.355,8.322,19.548,17.225,33.483,17.225,22.258,0,26.129-17.613,26.129-35.225,0-39.677-16.838-64.063-38.515-64.063-6.774,0-13.548,2.323-21.1,7.161v74.9Z" transform="translate(128.905 16.277)" fill="#fff"/>
    <path id="Caminho_259" data-name="Caminho 259" d="M112.808,77.954H31.325c2.71,32.709,20.322,46.451,40.064,46.451,17.225,0,32.515-8.71,36.386-19.354l3.871,1.548c-9.29,23.225-27.29,46.451-57.483,46.451-33.29,0-52.064-29.612-52.064-60.192C2.1,60.148,22.422,22.6,63.841,22.6c30.193,0,48.773,20.322,48.967,54.58l.194.581h-.194ZM80.1,68.083c0-27.1-10.839-37.741-22.064-37.741-19.354,0-27.1,23.032-27.1,38.322v1.742H80.1Z" transform="translate(0 18.428)" fill="#fff"/>
    <path id="Caminho_260" data-name="Caminho 260" d="M514.014,77.954H432.532c2.71,32.709,20.322,46.451,40.064,46.451,17.226,0,32.516-8.71,36.386-19.354l3.871,1.548c-9.1,23.032-27.1,46.451-57.289,46.451-33.29,0-52.064-29.612-52.064-60.192,0-32.709,20.322-70.257,61.741-70.257,30.193,0,48.773,20.322,48.967,54.58l.194.581h-.194v.194Zm-32.9-9.871c0-27.1-10.839-37.741-22.064-37.741-19.354,0-27.1,23.032-27.1,38.322v1.742h49.16Z" transform="translate(375.488 18.428)" fill="#fff"/>
    <path id="Caminho_261" data-name="Caminho 261" d="M219.6,28.061l14.516,29.225V167.994H264.5V2.9Z" transform="translate(203.46 0)" fill="#fff"/>
    <path id="Caminho_262" data-name="Caminho 262" d="M193.4,148.256,141.721,76.838,173.269,33.1l9.484-9.1H150.431L160.5,33.1,135.334,67.935,109.98,33.1,120.238,24H67.4l9.29,9.1,42.193,57.676L77.271,148.256H90.045L125.27,99.482l35.419,48.773Z" transform="translate(61.085 19.738)" fill="#fff"/>
    <path id="Caminho_263" data-name="Caminho 263" d="M441.395,24V64.644H441.2l-19.742-26.9H388.944A16.356,16.356,0,0,0,372.687,54v94.256H342.3V24Z" transform="translate(318.239 19.738)" fill="#fff"/>
  </g>
</svg>
