<svg id="Grupo_426" data-name="Grupo 426" xmlns="http://www.w3.org/2000/svg" width="866.935" height="205.738" viewBox="0 0 866.935 205.738">
  <path id="Caminho_428" data-name="Caminho 428" d="M431.143,788.272c-35.841,0-54.769-29.029-54.769-59.311,0-32.561,21.959-70.417,68.9-70.417,35.841,0,54.777,29.019,54.777,59.311C500.049,750.406,478.091,788.272,431.143,788.272Zm-22.718-82.287c0,39.376,14.384,72.689,36.6,72.689,18.672,0,23.47-24.732,23.47-37.854,0-39.377-14.634-72.689-36.847-72.689C410.7,668.131,408.425,690.849,408.425,705.984Z" transform="translate(-92.224 -620.339)" fill="#fff"/>
  <path id="Caminho_429" data-name="Caminho 429" d="M613.56,684.116H650.7l6.67,13.635H613.56v62.084c0,24.229,5.558,30.795,20.447,30.795,7.55,0,19.11-3.766,24.678-14.535l2.463,4.972c-11.959,19.76-25.476,29.755-45.563,29.755-17.418,0-32.307-10.1-32.307-38.874V697.7l-14.463-29.141,44.746-25.007Z" transform="translate(205.788 -643.553)" fill="#fff"/>
  <g id="Grupo_398" data-name="Grupo 398" transform="translate(0 33.463)">
    <path id="Caminho_430" data-name="Caminho 430" d="M309.626,680.267c9.1-10.625,20.231-18.964,38.69-18.964,32.869,0,50.572,29.074,50.572,59.423,0,28.062-17.448,69.281-65.746,69.281a123.876,123.876,0,0,1-23.517-3.03v41.2H279.281V710.833l-14.4-29.144,44.745-25.007Zm0,81.423c7.333,8.346,19.469,17.2,33.377,17.2,22.254,0,26.046-17.453,26.046-35.151,0-39.446-16.686-63.723-38.435-63.723-6.828,0-13.4,2.273-20.988,7.08Z" transform="translate(-264.881 -656.683)" fill="#fff"/>
  </g>
  <g id="Grupo_399" data-name="Grupo 399" transform="translate(429.56 33.463)">
    <path id="Caminho_431" data-name="Caminho 431" d="M477.522,788.417c0,19.469-24.164,31.437-32.76,40.54l-1.772-.757c3.795-6.076,4.3-18.967,4.3-18.967v-98.4l-13.865-29.144,44.205-25.007Z" transform="translate(-433.429 -656.683)" fill="#fff"/>
  </g>
  <g id="Grupo_400" data-name="Grupo 400" transform="translate(505.819 38.084)">
    <path id="Caminho_432" data-name="Caminho 432" d="M573.6,713.615H492.428c2.782,32.621,20.231,46.28,39.954,46.28,17.2,0,32.368-8.6,36.162-19.221l3.79,1.523c-9.1,23.006-27.053,46.271-57.145,46.271-33.129,0-51.838-29.584-51.838-59.928,0-32.621,20.228-70.042,61.447-70.042,30.092,0,48.551,20.226,48.806,54.361l.25.509h-.25Zm-32.622-9.86c0-27.059-10.875-37.679-22-37.679-19.218,0-27.058,23.017-27.058,38.188v1.768h49.058Z" transform="translate(-463.351 -658.496)" fill="#fff"/>
  </g>
  <g id="Grupo_401" data-name="Grupo 401" transform="translate(645.528 41.111)">
    <path id="Caminho_433" data-name="Caminho 433" d="M613.5,700.142c-8.849-17.952-20.228-31.611-39.7-31.611s-26.551,17.955-26.551,35.151c0,39.446,17.7,52.847,37.682,52.847,17.448,0,30.6-13.9,33.631-22.759l2.783,1.011c-5.314,20.481-22.506,51.844-53.864,51.844-33.125,0-49.308-29.585-49.308-59.935,0-30.089,18.459-67.008,66.758-67.008H615.27v40.458Z" transform="translate(-518.169 -659.684)" fill="#fff"/>
  </g>
  <path id="Caminho_434" data-name="Caminho 434" d="M428.922,659.684v40.634h-.1l-19.734-26.941H376.622a16.255,16.255,0,0,0-16.255,16.255v93.727H329.881V659.684Z" transform="translate(-164.222 -618.573)" fill="#fff"/>
</svg>
