<svg xmlns="http://www.w3.org/2000/svg" width="57.451" height="78.622" viewBox="0 0 57.451 78.622">
  <g id="Logo" transform="translate(-996.883 -7665.332)">
    <g id="Stone_Positivo_TOP" transform="translate(996.883 7665.332)">
      <path id="Caminho_160" data-name="Caminho 160" d="M375.639,359.069c3.256-1.232,6.951-3.168,6.951-7.126,0-5.236-5.015-6.643-12.405-6.643h-1.717L360,350.032l2.732,5.515.012,19.887h7.039c6.247,0,14.739-1.715,14.739-8.05C384.526,362.9,381.137,360.3,375.639,359.069Zm-5.673-12.362c3.03,0,6.949.842,6.949,6.114,0,3.433-2.816,5.983-8.448,5.983v-12.1Zm-.133,27.011h-1.365V359.9c5.631,0,9.6,1.54,9.6,7.347C378.06,371.474,374.319,373.718,369.833,373.718Z" transform="translate(-343.894 -331.716)" fill="#2d2a26"/>
      <path id="Caminho_161" data-name="Caminho 161" d="M265.22,264.61v57.3h48.615l8.687-8.687V264.61Zm3.917,53.382V268.527H318.6V311.6l-.017.017-6.355,6.355-.017.017Z" transform="translate(-265.07 -264.61)" fill="#2d2a26"/>
      <path id="Caminho_162" data-name="Caminho 162" d="M331.224,648.818h3.224l.579,1.178h-3.8v5.387c0,2.1.481,2.672,1.774,2.672a2.455,2.455,0,0,0,2.141-1.261l.214.431c-1.037,1.715-2.21,2.582-3.954,2.582-1.515,0-2.8-.875-2.8-3.367V650l-1.256-2.525,3.884-2.172Z" transform="translate(-316.733 -581.213)" fill="#2d2a26"/>
      <path id="Caminho_163" data-name="Caminho 163" d="M393.184,675.9c-3.111,0-4.754-2.525-4.754-5.146a5.884,5.884,0,0,1,5.98-6.113c3.111,0,4.754,2.525,4.754,5.148A5.884,5.884,0,0,1,393.184,675.9Zm-1.965-7.141c0,3.417,1.249,6.31,3.177,6.31,1.623,0,2.037-2.148,2.037-3.286,0-3.417-1.269-6.31-3.2-6.31C391.408,665.472,391.219,667.445,391.219,668.758Z" transform="translate(-367.538 -597.297)" fill="#2d2a26"/>
      <path id="Caminho_164" data-name="Caminho 164" d="M472.715,673.838v-6.754c0-1.683-.241-2.759-1.928-2.759a2.862,2.862,0,0,0-2.345,1.291v8.222h-2.63v-6.672l-1.253-2.525,3.88-2.172v2.406a4.358,4.358,0,0,1,3.6-2.04c2.236,0,3.286,1.446,3.286,3.5v7.5Z" transform="translate(-430.852 -595.492)" fill="#2d2a26"/>
      <path id="Caminho_165" data-name="Caminho 165" d="M556.687,669.331h-7.055c.241,2.835,1.758,4.022,3.471,4.022a3.314,3.314,0,0,0,3.143-1.67l.337.131c-.791,2-2.357,4.022-4.966,4.022-2.88,0-4.507-2.571-4.507-5.209,0-2.835,1.759-6.087,5.342-6.087,2.614,0,4.219,1.758,4.242,4.725l.022.044h-.029Zm-2.837-.857c0-2.357-.944-3.276-1.911-3.276-1.672,0-2.357,2-2.357,3.32v.153h4.262Z" transform="translate(-499.505 -597.214)" fill="#2d2a26"/>
      <path id="Caminho_166" data-name="Caminho 166" d="M271.631,665.27a7.981,7.981,0,0,0-3.022-.65c-1.082,0-4.268.246-4.268,3.535s5.636,2.611,5.636,5.853c0,.673-.609.995-1.042,1.131a2.109,2.109,0,0,1-.655.1h-.606l-3.345-4.421v4.421a15.347,15.347,0,0,0,3.793.648c.88,0,4.417-.348,4.417-3.7s-5.88-3.158-5.88-5.6a1.229,1.229,0,0,1,.87-1.178,2.106,2.106,0,0,1,.763-.135h.724l2.608,3.682Z" transform="translate(-264.33 -597.28)" fill="#2d2a26"/>
    </g>
  </g>
</svg>
