<svg xmlns="http://www.w3.org/2000/svg"  viewBox="0 0 210.402 48.594"><path d="M150.066,19.131h5.777l1.035,2.115h-6.812V30.9c0,3.762.9,4.778,3.177,4.778a4.382,4.382,0,0,0,3.834-2.259l.387.774c-1.863,3.078-3.959,4.625-7.082,4.625-2.7,0-5.021-1.566-5.021-6.038V21.237l-2.25-4.5,6.956-3.887Z" transform="translate(-14.328 -1.286)" fill="#fff"/><path d="M171.373,39.466c-5.57,0-8.513-4.5-8.513-9.215,0-5.066,3.42-10.952,10.709-10.952,5.579,0,8.522,4.5,8.522,9.224,0,5.057-3.42,10.943-10.718,10.943m-3.528-12.787c0,6.119,2.232,11.294,5.687,11.294,2.907,0,3.654-3.843,3.654-5.876,0-6.128-2.277-11.3-5.732-11.3-3.258,0-3.6,3.528-3.6,5.885" transform="translate(-16.305 -1.932)" fill="#fff"/><path d="M202.245,38.929V26.844c0-3.024-.432-4.94-3.456-4.94a5.147,5.147,0,0,0-4.2,2.313V38.929h-4.706V27l-2.241-4.5,6.947-3.887v4.31a7.8,7.8,0,0,1,6.479-3.654c4,0,5.885,2.592,5.885,6.3V38.929Z" transform="translate(-18.786 -1.863)" fill="#fff"/><path d="M231.892,27.845h-12.6c.432,5.075,3.15,7.2,6.218,7.2,2.7,0,5.039-1.341,5.624-3l.594.243c-1.413,3.6-4.211,7.2-8.891,7.2-5.165,0-8.1-4.607-8.1-9.332,0-5.075,3.15-10.9,9.566-10.9,4.679,0,7.559,3.15,7.6,8.459V27.8h0Zm-5.075-1.53c0-4.211-1.692-5.867-3.429-5.867-2.988,0-4.211,3.6-4.211,5.939v.279h7.64Z" transform="translate(-21.499 -1.928)" fill="#fff"/><path d="M135.346,20.461a14.272,14.272,0,0,0-5.4-1.161c-1.944,0-7.649.441-7.649,6.3s10.1,4.679,10.1,10.484a2.282,2.282,0,0,1-1.863,2.034,3.96,3.96,0,0,1-1.17.171h-1.089l-5.993-7.919v7.919a27.446,27.446,0,0,0,6.794,1.161c1.575,0,7.91-.621,7.91-6.641s-10.529-5.66-10.529-10.025a2.187,2.187,0,0,1,1.557-2.106,3.716,3.716,0,0,1,1.368-.243h1.3l4.67,6.6Z" transform="translate(-12.242 -1.932)" fill="#fff"/><path d="M82.722,24.48c2.754-1.044,5.894-2.7,5.894-6.047C88.617,14,84.36,12.8,78.088,12.8H76.639l-7.2,4.013,2.3,4.679V38.357H77.71c5.3,0,12.5-1.458,12.5-6.83,0-3.807-2.871-6-7.532-7.046M77.908,14c2.574,0,5.894.7,5.894,5.183,0,2.907-2.394,5.075-7.2,5.075V14Zm-.117,22.9H76.639V25.2c4.769,0,8.1,1.314,8.1,6.236,0,3.6-3.177,5.48-6.983,5.48" transform="translate(-6.952 -1.281)" fill="#fff"/><path d="M54.42,0V48.594H95.653l7.361-7.361V0Zm3.321,45.273V3.321H99.693V39.856h0l-5.4,5.4h0Z" transform="translate(-5.448)" fill="#fff"/><path d="M21.834,12.348a.9.9,0,0,1-.513-.144,2.574,2.574,0,0,1-.36-.315v.351H20.34V5.41h.621V7.786a1.521,1.521,0,0,1,.378-.333,1.1,1.1,0,0,1,1.134,0,1.053,1.053,0,0,1,.333.45,2.232,2.232,0,0,1,.162.63,6.03,6.03,0,0,1,0,.711v1.035a4.9,4.9,0,0,1-.045,1.062,1.467,1.467,0,0,1-.36.72A.954.954,0,0,1,21.834,12.348Zm-.108-.486a.5.5,0,0,0,.423-.18,1,1,0,0,0,.189-.531,5.768,5.768,0,0,0,.045-.846V9.253a5.138,5.138,0,0,0-.045-.8.9.9,0,0,0-.189-.495.513.513,0,0,0-.432-.171.828.828,0,0,0-.432.126,2.538,2.538,0,0,0-.324.252V11.5a1.206,1.206,0,0,0,.333.252.9.9,0,0,0,.45.108Z" transform="translate(-2.036 -0.542)" fill="#fff"/><path d="M25.31,12.24V5.41h.621v6.83Z" transform="translate(-2.534 -0.542)" fill="#fff"/><path d="M29.268,12.558a1.278,1.278,0,0,1-.792-.216,1.116,1.116,0,0,1-.4-.621A3.6,3.6,0,0,1,28,10.714V9.355a3.51,3.51,0,0,1,.126-1,1.107,1.107,0,0,1,.4-.63,1.557,1.557,0,0,1,1.584,0,1.107,1.107,0,0,1,.4.63,3.537,3.537,0,0,1,.117,1v1.359a3.645,3.645,0,0,1-.117,1.008,1.116,1.116,0,0,1-.4.621,1.278,1.278,0,0,1-.837.216Zm0-.459a.621.621,0,0,0,.468-.171.819.819,0,0,0,.18-.477,5.525,5.525,0,0,0,0-.7V9.328a5.346,5.346,0,0,0,0-.7.846.846,0,0,0-.18-.477.585.585,0,0,0-.468-.2.558.558,0,0,0-.468.171.846.846,0,0,0-.18.477,5.346,5.346,0,0,0,0,.7v1.422a5.526,5.526,0,0,0,0,.7.819.819,0,0,0,.18.477.594.594,0,0,0,.468.2Z" transform="translate(-2.803 -0.752)" fill="#fff"/><path d="M33.959,12.558a1.242,1.242,0,0,1-.9-.252,1.287,1.287,0,0,1-.369-.693,5.282,5.282,0,0,1-.09-.981V9.489a4.652,4.652,0,0,1,.117-1.116,1.062,1.062,0,0,1,.387-.648,1.332,1.332,0,0,1,.81-.216,1.3,1.3,0,0,1,.792.2.954.954,0,0,1,.369.549,3.672,3.672,0,0,1,.09.819v.243h-.576V9.075a3.078,3.078,0,0,0-.063-.666.54.54,0,0,0-.216-.333.711.711,0,0,0-.351-.126.666.666,0,0,0-.441.135.774.774,0,0,0-.2.441,5.066,5.066,0,0,0-.054.828v1.377a2.7,2.7,0,0,0,.144,1.035.558.558,0,0,0,.558.306.594.594,0,0,0,.432-.135.63.63,0,0,0,.189-.4,4.2,4.2,0,0,0,0-.648V10.65h.576v.234a3.663,3.663,0,0,1-.09.9,1.062,1.062,0,0,1-.36.585A1.269,1.269,0,0,1,33.959,12.558Z" transform="translate(-3.264 -0.751)" fill="#fff"/><path d="M38.565,12.558a1.269,1.269,0,0,1-.783-.216,1.179,1.179,0,0,1-.4-.621,3.645,3.645,0,0,1-.117-1.008V9.355a3.537,3.537,0,0,1,.117-1,1.17,1.17,0,0,1,.4-.63,1.269,1.269,0,0,1,.783-.216,1.3,1.3,0,0,1,.8.216,1.215,1.215,0,0,1,.4.63,3.536,3.536,0,0,1,.117,1v1.359a3.645,3.645,0,0,1-.153,1.008,1.224,1.224,0,0,1-.4.621,1.3,1.3,0,0,1-.765.216Zm0-.459a.6.6,0,0,0,.468-.171.9.9,0,0,0,.189-.477V8.626a.9.9,0,0,0-.189-.477.729.729,0,0,0-.9,0,1,1,0,0,0-.18.477v2.826a.963.963,0,0,0,.18.477A.6.6,0,0,0,38.565,12.1Z" transform="translate(-3.73 -0.752)" fill="#fff"/><path d="M13.341,23.867a1.386,1.386,0,0,1-.756-.189,1.089,1.089,0,0,1-.432-.6A3.8,3.8,0,0,1,12,21.95V20.709a3.438,3.438,0,0,1,.144-1.134,1.044,1.044,0,0,1,.441-.585,1.431,1.431,0,0,1,.747-.18,1.233,1.233,0,0,1,.783.225,1.179,1.179,0,0,1,.378.666,4.931,4.931,0,0,1,.108,1.134v.441h-1.98v.9a2.781,2.781,0,0,0,.072.747.684.684,0,0,0,.225.4.657.657,0,0,0,.4.117.783.783,0,0,0,.333-.072.477.477,0,0,0,.243-.279,1.494,1.494,0,0,0,.09-.594v-.333h.6v.27a1.8,1.8,0,0,1-.261,1.053,1.107,1.107,0,0,1-.99.387Zm-.7-2.943h1.368v-.4a3.6,3.6,0,0,0-.045-.666.711.711,0,0,0-.18-.423.585.585,0,0,0-.441-.153.729.729,0,0,0-.414.108.657.657,0,0,0-.225.4,3.761,3.761,0,0,0-.063.81Z" transform="translate(-1.201 -1.883)" fill="#fff"/><path d="M16.37,23.8l1.161-2.556-1.1-2.34h.6l.846,1.8.8-1.8h.63L18.17,21.3,19.331,23.8h-.594l-.9-1.926-.9,1.926Z" transform="translate(-1.639 -1.892)" fill="#fff"/><path d="M21.27,25.4V18.891h.657v.4a1.8,1.8,0,0,1,.387-.333,1.017,1.017,0,0,1,.558-.153.9.9,0,0,1,.576.171,1.044,1.044,0,0,1,.333.441,2.232,2.232,0,0,1,.162.63,6.164,6.164,0,0,1,0,.711V21.8a4.886,4.886,0,0,1-.1,1.089,1.4,1.4,0,0,1-.36.72.972.972,0,0,1-.711.261.9.9,0,0,1-.513-.153,2.232,2.232,0,0,1-.369-.315v2Zm1.395-2.025a.522.522,0,0,0,.423-.18,1.08,1.08,0,0,0,.18-.531,5.642,5.642,0,0,0,.054-.846V20.781a5.013,5.013,0,0,0-.054-.8.9.9,0,0,0-.189-.495.513.513,0,0,0-.432-.171.81.81,0,0,0-.432.126,2.9,2.9,0,0,0-.333.252v3.348a1.656,1.656,0,0,0,.342.243A.9.9,0,0,0,22.665,23.372Z" transform="translate(-2.129 -1.883)" fill="#fff"/><path d="M26.23,23.576V16.71h.621v6.866Z" transform="translate(-2.626 -1.673)" fill="#fff"/><path d="M30.185,23.867a1.269,1.269,0,0,1-.783-.216,1.206,1.206,0,0,1-.4-.63,3.6,3.6,0,0,1-.117-1.008v-1.35a3.644,3.644,0,0,1,.108-1.008,1.206,1.206,0,0,1,.4-.63,1.548,1.548,0,0,1,1.575,0,1.206,1.206,0,0,1,.4.63,4.031,4.031,0,0,1,.117,1.008v1.35a3.977,3.977,0,0,1-.117,1.008,1.206,1.206,0,0,1-.4.63A1.26,1.26,0,0,1,30.185,23.867Zm0-.468a.576.576,0,0,0,.468-.171.8.8,0,0,0,.18-.477,5.526,5.526,0,0,0,0-.7V20.628a5.345,5.345,0,0,0,0-.7.846.846,0,0,0-.18-.477.729.729,0,0,0-.9,0,.9.9,0,0,0-.18.477v2.826a.9.9,0,0,0,.18.477.576.576,0,0,0,.432.171Z" transform="translate(-2.891 -1.883)" fill="#fff"/><path d="M33.73,23.786v-4.9h.63v.666a1.377,1.377,0,0,1,.513-.576,1.143,1.143,0,0,1,.585-.171h.108v.666l-.144-.045H35.26a1.026,1.026,0,0,0-.522.135,1.179,1.179,0,0,0-.4.432v3.762Z" transform="translate(-3.377 -1.883)" fill="#fff"/><path d="M38.613,23.867a1.386,1.386,0,0,1-.756-.189,1.089,1.089,0,0,1-.432-.6,3.8,3.8,0,0,1-.135-1.125V20.709a3.437,3.437,0,0,1,.144-1.134,1.044,1.044,0,0,1,.441-.585,1.431,1.431,0,0,1,.747-.18,1.233,1.233,0,0,1,.783.225,1.179,1.179,0,0,1,.378.666,4.931,4.931,0,0,1,.108,1.134v.441H37.929v.9a2.781,2.781,0,0,0,.072.747.684.684,0,0,0,.225.4.657.657,0,0,0,.4.117.783.783,0,0,0,.333-.072.477.477,0,0,0,.243-.279,1.494,1.494,0,0,0,.09-.594v-.333h.6v.27a1.8,1.8,0,0,1-.3,1.053,1.107,1.107,0,0,1-.99.387Zm-.684-2.943h1.35v-.4a3.6,3.6,0,0,0,0-.666.711.711,0,0,0-.18-.423.585.585,0,0,0-.441-.153.729.729,0,0,0-.414.108.657.657,0,0,0-.225.4,3.762,3.762,0,0,0-.063.81Z" transform="translate(-3.733 -1.883)" fill="#fff"/><path d="M13,36.7V30.192h.621v.4A1.521,1.521,0,0,1,14,30.264a1.008,1.008,0,0,1,.558-.144.9.9,0,0,1,.576.162,1.107,1.107,0,0,1,.333.441,2.232,2.232,0,0,1,.162.63,6.155,6.155,0,0,1,0,.711V33.1a4.787,4.787,0,0,1-.108,1.089,1.4,1.4,0,0,1-.36.72.963.963,0,0,1-.711.261.9.9,0,0,1-.513-.153,1.8,1.8,0,0,1-.36-.315v2Zm1.395-2.025a.5.5,0,0,0,.4-.162,1.215,1.215,0,0,0,.189-.531,7.549,7.549,0,0,0,0-.855V32.064a6.551,6.551,0,0,0,0-.8,1.008,1.008,0,0,0-.2-.495.531.531,0,0,0-.432-.171.828.828,0,0,0-.432.126,1.7,1.7,0,0,0-.324.261v3.339a1.4,1.4,0,0,0,.333.252,1.026,1.026,0,0,0,.441.1Z" transform="translate(-1.302 -3.015)" fill="#fff"/><path d="M17.9,35.089v-4.9h.621v.666a1.521,1.521,0,0,1,.549-.549,1.242,1.242,0,0,1,.585-.171h.135v.666h-.306a1.026,1.026,0,0,0-.522.135,1.2,1.2,0,0,0-.414.432v3.762Z" transform="translate(-1.792 -3.017)" fill="#fff"/><path d="M22.765,35.168a1.314,1.314,0,0,1-.792-.216,1.161,1.161,0,0,1-.4-.63,3.537,3.537,0,0,1-.117-1V31.965a3.644,3.644,0,0,1,.117-1.008,1.17,1.17,0,0,1,.4-.621,1.314,1.314,0,0,1,.792-.216,1.278,1.278,0,0,1,.792.216,1.116,1.116,0,0,1,.4.621,3.6,3.6,0,0,1,.126,1.008v1.359a3.51,3.51,0,0,1-.126,1,1.107,1.107,0,0,1-.4.63A1.278,1.278,0,0,1,22.765,35.168Zm0-.468a.585.585,0,0,0,.468-.171.8.8,0,0,0,.18-.477,5.525,5.525,0,0,0,0-.7V31.929a5.525,5.525,0,0,0,0-.7.819.819,0,0,0-.18-.468.594.594,0,0,0-.468-.18.567.567,0,0,0-.468.18.9.9,0,0,0-.18.468q0,.31,0,.7v2.124a.9.9,0,0,0,.18.477A.558.558,0,0,0,22.765,34.7Z" transform="translate(-2.148 -3.015)" fill="#fff"/><path d="M25.9,36.222H25.57v-.477h.216a.666.666,0,0,0,.387-.1.387.387,0,0,0,.153-.252,1.341,1.341,0,0,0,.045-.324V30.031h.612V35.1a.981.981,0,0,1-1.08,1.125Zm.468-6.866V28.51h.612v.846Z" transform="translate(-2.56 -2.854)" fill="#fff"/><path d="M30.423,35.172a1.431,1.431,0,0,1-.747-.18,1.062,1.062,0,0,1-.432-.612,3.752,3.752,0,0,1-.144-1.125V32.022a3.762,3.762,0,0,1,.144-1.107,1.044,1.044,0,0,1,.441-.585,1.458,1.458,0,0,1,.747-.171,1.242,1.242,0,0,1,.792.216,1.179,1.179,0,0,1,.378.666,4.967,4.967,0,0,1,.108,1.107v.441H29.721v.9a3.2,3.2,0,0,0,.072.747.657.657,0,0,0,.234.4.612.612,0,0,0,.4.117.828.828,0,0,0,.342-.072.54.54,0,0,0,.243-.279,1.62,1.62,0,0,0,.09-.585v-.342h.612v.27a1.89,1.89,0,0,1-.279,1.071,1.116,1.116,0,0,1-1.008.36Zm-.7-2.943H31.1v-.414a4.554,4.554,0,0,0-.045-.666.8.8,0,0,0-.18-.423.6.6,0,0,0-.45-.153.621.621,0,0,0-.4.117.6.6,0,0,0-.225.387,3.662,3.662,0,0,0-.072.81Z" transform="translate(-2.913 -3.019)" fill="#fff"/><path d="M35.08,35.168a1.251,1.251,0,0,1-.9-.252,1.323,1.323,0,0,1-.369-.693,5.4,5.4,0,0,1-.081-.99V32.09a4.824,4.824,0,0,1,.108-1.116,1.125,1.125,0,0,1,.4-.648,1.314,1.314,0,0,1,.81-.207,1.359,1.359,0,0,1,.783.189.99.99,0,0,1,.369.549,3.285,3.285,0,0,1,.09.828v.234h-.513v-.234a2.7,2.7,0,0,0-.063-.675.567.567,0,0,0-.216-.333.7.7,0,0,0-.387-.1.63.63,0,0,0-.441.135.756.756,0,0,0-.207.45,5,5,0,0,0-.054.828v1.368a2.8,2.8,0,0,0,.144,1.044.576.576,0,0,0,.567.3.666.666,0,0,0,.432-.126.711.711,0,0,0,.18-.4,4.419,4.419,0,0,0,0-.657v-.27H36.3v.234a3.6,3.6,0,0,1-.09.9,1.008,1.008,0,0,1-.36.594,1.242,1.242,0,0,1-.774.189Z" transform="translate(-3.377 -3.015)" fill="#fff"/><path d="M39.6,34.989a.9.9,0,0,1-.549-.135.729.729,0,0,1-.261-.387,1.745,1.745,0,0,1-.072-.558V30.436h-.6v-.4h.6V28.51h.612v1.521h.819v.4h-.819v3.42a1.134,1.134,0,0,0,.081.5c.054.1.171.144.351.144h.36v.468l-.261.045Z" transform="translate(-3.816 -2.854)" fill="#fff"/><path d="M0,40.657V39.82H.621v.837Zm0,5.624V41.332H.621v4.949Z" transform="translate(0 -3.987)" fill="#fff"/><path d="M2.78,46.441V41.492H3.4V42a2,2,0,0,1,.531-.423,1.332,1.332,0,0,1,.648-.162.7.7,0,0,1,.414.117.819.819,0,0,1,.252.36,1.719,1.719,0,0,1,.081.567v3.977H4.715V42.6a.981.981,0,0,0-.117-.54.4.4,0,0,0-.351-.117.792.792,0,0,0-.432.126,1.566,1.566,0,0,0-.414.324v4.049Z" transform="translate(-0.278 -4.147)" fill="#fff"/><path d="M7.57,46.441V41.492h.621V42a2.16,2.16,0,0,1,.531-.423,1.332,1.332,0,0,1,.648-.162.684.684,0,0,1,.414.117.747.747,0,0,1,.252.36,1.5,1.5,0,0,1,.09.567v3.977H9.5V42.6a.9.9,0,0,0-.117-.54.387.387,0,0,0-.351-.117.819.819,0,0,0-.432.126,1.728,1.728,0,0,0-.414.324v4.049Z" transform="translate(-0.758 -4.147)" fill="#fff"/><path d="M13.555,46.441a1.269,1.269,0,0,1-.783-.216,1.107,1.107,0,0,1-.4-.63,3.51,3.51,0,0,1-.126-.954V43.264a3.51,3.51,0,0,1,.126-1,1.107,1.107,0,0,1,.4-.63,1.269,1.269,0,0,1,.783-.216,1.287,1.287,0,0,1,.8.216,1.161,1.161,0,0,1,.4.63,3.537,3.537,0,0,1,.117,1v1.377a3.537,3.537,0,0,1-.144.981,1.161,1.161,0,0,1-.4.63,1.287,1.287,0,0,1-.774.189Zm0-.468a.621.621,0,0,0,.477-.162.9.9,0,0,0,.18-.486c0-.207,0-.432,0-.693v-2.1a.9.9,0,0,0-.18-.477.594.594,0,0,0-.477-.171.558.558,0,0,0-.459.171.819.819,0,0,0-.18.477,5.292,5.292,0,0,0,0,.693v1.413a5.4,5.4,0,0,0,0,.693.846.846,0,0,0,.18.486.585.585,0,0,0,.459.18Z" transform="translate(-1.226 -4.146)" fill="#fff"/><path d="M17.762,46.449,16.7,41.5h.63l.792,4.193.792-4.193h.6l-1.026,4.949Z" transform="translate(-1.672 -4.155)" fill="#fff"/><path d="M22.3,46.439a.9.9,0,0,1-.522-.144,1.008,1.008,0,0,1-.342-.4,1.2,1.2,0,0,1-.126-.54,1.692,1.692,0,0,1,.108-.639,1.3,1.3,0,0,1,.342-.468,2.573,2.573,0,0,1,.612-.4c.252-.135.558-.288.9-.45v-.351a3.6,3.6,0,0,0-.054-.7.621.621,0,0,0-.189-.369.567.567,0,0,0-.369-.108.765.765,0,0,0-.351.072.576.576,0,0,0-.243.261,1.1,1.1,0,0,0-.09.5v.171h-.612a1.728,1.728,0,0,1,.315-1.107A1.269,1.269,0,0,1,22.7,41.4a1.026,1.026,0,0,1,.9.4,2.178,2.178,0,0,1,.27,1.224v3.357h-.549a2.915,2.915,0,0,0-.054-.36,2.925,2.925,0,0,1,0-.324,1.3,1.3,0,0,1-.36.531A.9.9,0,0,1,22.3,46.439Zm.189-.522a.63.63,0,0,0,.342-.1,1.062,1.062,0,0,0,.27-.225,1.008,1.008,0,0,0,.189-.261v-1.5l-.621.342a2.142,2.142,0,0,0-.423.3.9.9,0,0,0-.234.324,1.089,1.089,0,0,0-.081.432.72.72,0,0,0,.171.549.531.531,0,0,0,.387.171Z" transform="translate(-2.133 -4.144)" fill="#fff"/><path d="M27.235,46.281a.9.9,0,0,1-.549-.135.729.729,0,0,1-.261-.387,2.025,2.025,0,0,1-.072-.549V41.782h-.6v-.45h.6V39.82h.621v1.512h.8v.45h-.81v3.411a1.134,1.134,0,0,0,.081.5.369.369,0,0,0,.351.153h.351v.432h-.513Z" transform="translate(-2.578 -3.987)" fill="#fff"/><path d="M29.76,40.657V39.82h.621v.837Zm0,5.579v-4.9h.621v4.949Z" transform="translate(-2.979 -3.987)" fill="#fff"/><path d="M33.745,46.441a1.269,1.269,0,0,1-.783-.216,1.17,1.17,0,0,1-.4-.63,3.537,3.537,0,0,1-.117-.954V43.265a3.536,3.536,0,0,1,.117-1,1.17,1.17,0,0,1,.4-.63,1.548,1.548,0,0,1,1.575,0,1.17,1.17,0,0,1,.4.63,3.9,3.9,0,0,1,.117,1v1.377a3.9,3.9,0,0,1-.117,1,1.17,1.17,0,0,1-.4.63,1.26,1.26,0,0,1-.792.171Zm0-.468a.6.6,0,0,0,.468-.162.846.846,0,0,0,.18-.486,5.4,5.4,0,0,0,0-.693v-1.4a5.292,5.292,0,0,0,0-.693.819.819,0,0,0-.18-.477.729.729,0,0,0-.9,0,.9.9,0,0,0-.18.477c0,.2,0,.432,0,.693v2.106a.9.9,0,0,0,.18.486.6.6,0,0,0,.432.18Z" transform="translate(-3.248 -4.147)" fill="#fff"/><path d="M37.24,46.441V41.492h.621V42a2,2,0,0,1,.531-.423,1.332,1.332,0,0,1,.648-.162.7.7,0,0,1,.414.117.819.819,0,0,1,.27.4,1.7,1.7,0,0,1,.09.567v3.932h-.621V42.6a.9.9,0,0,0-.117-.54.387.387,0,0,0-.351-.153.792.792,0,0,0-.432.126,1.728,1.728,0,0,0-.414.324v4.085Z" transform="translate(-3.728 -4.147)" fill="#fff"/></svg>