<svg xmlns="http://www.w3.org/2000/svg" width="57.451" height="71.589" viewBox="0 0 57.451 71.589">
  <g id="Logo" transform="translate(-264.694 -264.612)">
    <g id="Grupo_416" data-name="Grupo 416" transform="translate(264.757 264.612)">
      <g id="Grupo_415" data-name="Grupo 415" transform="translate(15.985 13.604)">
        <path id="Caminho_453" data-name="Caminho 453" d="M375.477,359.037c3.261-1.234,6.962-3.173,6.962-7.138,0-5.243-5.023-6.653-12.426-6.653h-1.718l-8.476,4.739,2.736,5.523.012,19.918h7.05c6.257,0,14.761-1.718,14.761-8.063C384.378,362.87,380.984,360.271,375.477,359.037Zm-5.683-12.381c3.039,0,6.96.836,6.96,6.124,0,3.437-2.82,5.991-8.46,5.991V346.656Zm-.133,27.053h-1.367V359.873c5.64,0,9.606,1.543,9.606,7.358C377.9,371.461,374.155,373.708,369.662,373.708Z" transform="translate(-359.819 -345.246)" fill="#221f1c"/>
      </g>
      <path id="Caminho_454" data-name="Caminho 454" d="M265.068,264.612V322h48.69l8.7-8.7v-48.69Zm3.924,53.464v-49.54h49.541v43.141l-.017.017-6.365,6.365-.017.017Z" transform="translate(-265.068 -264.612)" fill="#221f1c"/>
    </g>
    <g id="Grupo_417" data-name="Grupo 417" transform="translate(264.694 328.438)">
      <path id="Caminho_455" data-name="Caminho 455" d="M373.976,659.044a2.52,2.52,0,0,1-2.5-2.712,3.1,3.1,0,0,1,3.15-3.22,2.521,2.521,0,0,1,2.5,2.712A3.1,3.1,0,0,1,373.976,659.044Zm-1.039-3.762c0,1.8.658,3.323,1.674,3.323.854,0,1.073-1.131,1.073-1.731,0-1.8-.669-3.324-1.685-3.324C373.041,653.551,372.937,654.59,372.937,655.282Z" transform="translate(-353.458 -651.397)" fill="#221f1c"/>
      <path id="Caminho_456" data-name="Caminho 456" d="M412.667,653.932l-.6.623-2.319,5.193-.046.092h-.231l-2.355-5.285-.6-.623h2.861l-.7.623,1.421,3.178,1.421-3.178-.7-.623Z" transform="translate(-382.59 -652.077)" fill="#221f1c"/>
      <path id="Caminho_457" data-name="Caminho 457" d="M483.631,644.794h1.7l.305.623h-2v2.839c0,1.108.254,1.408.935,1.408a1.294,1.294,0,0,0,1.128-.665l.113.227a2.325,2.325,0,0,1-2.083,1.36c-.8,0-1.477-.462-1.477-1.777v-3.395l-.661-1.332,2.046-1.143Z" transform="translate(-444.994 -642.939)" fill="#221f1c"/>
      <path id="Caminho_458" data-name="Caminho 458" d="M535.37,659.044a2.52,2.52,0,0,1-2.5-2.712,3.1,3.1,0,0,1,3.15-3.22,2.52,2.52,0,0,1,2.5,2.712A3.1,3.1,0,0,1,535.37,659.044Zm-1.039-3.762c0,1.8.658,3.323,1.673,3.323.854,0,1.073-1.131,1.073-1.731,0-1.8-.669-3.324-1.685-3.324C534.435,653.551,534.331,654.59,534.331,655.282Z" transform="translate(-487.624 -651.397)" fill="#221f1c"/>
      <path id="Caminho_459" data-name="Caminho 459" d="M266.739,651.964v5.987h-1.385V654.44l-.66-1.333Z" transform="translate(-264.694 -650.441)" fill="#221f1c"/>
      <path id="Caminho_460" data-name="Caminho 460" d="M513.361,676.786" transform="translate(-471.409 -671.076)" fill="#221f1c"/>
      <path id="Caminho_461" data-name="Caminho 461" d="M497.852,658.179" transform="translate(-458.517 -655.608)" fill="#221f1c"/>
      <path id="Caminho_462" data-name="Caminho 462" d="M290.548,657.951V654.4c0-.889-.127-1.454-1.015-1.454a1.508,1.508,0,0,0-1.235.681v4.328h-1.384V654.44l-.66-1.333,2.044-1.143v1.267a2.3,2.3,0,0,1,1.9-1.073A1.634,1.634,0,0,1,291.933,654v3.946Z" transform="translate(-282.616 -650.441)" fill="#221f1c"/>
      <path id="Caminho_463" data-name="Caminho 463" d="M333.429,657.951V654.4c0-.889-.127-1.454-1.015-1.454a1.508,1.508,0,0,0-1.235.681v4.328h-1.385V654.44l-.66-1.333,2.044-1.143v1.267a2.3,2.3,0,0,1,1.9-1.073A1.634,1.634,0,0,1,334.814,654v3.946Z" transform="translate(-318.263 -650.441)" fill="#221f1c"/>
      <path id="Caminho_464" data-name="Caminho 464" d="M575.86,657.951V654.4c0-.889-.127-1.454-1.015-1.454a1.508,1.508,0,0,0-1.235.681v4.328h-1.385V654.44l-.66-1.333,2.044-1.143v1.267a2.3,2.3,0,0,1,1.9-1.073A1.634,1.634,0,0,1,577.245,654v3.946Z" transform="translate(-519.794 -650.441)" fill="#221f1c"/>
      <path id="Caminho_465" data-name="Caminho 465" d="M513.959,651.964v5.987h-1.385V654.44l-.66-1.333Z" transform="translate(-470.206 -650.441)" fill="#221f1c"/>
      <path id="Caminho_466" data-name="Caminho 466" d="M446.441,653.932v1.85h0l.9-1.226h1.478a.74.74,0,0,1,.74.74v.6c-2,.7-3.39,1.305-3.39,2.482a1.232,1.232,0,0,0,1.388,1.33,3.368,3.368,0,0,0,2-1.078v.963h1.388v-5.665Zm2.124,4.867a.766.766,0,0,1-.867-.8c0-.554.058-1.05,1.864-1.776v2.1A1.432,1.432,0,0,1,448.565,658.8Z" transform="translate(-415.555 -652.077)" fill="#221f1c"/>
    </g>
  </g>
</svg>
