<svg xmlns="http://www.w3.org/2000/svg" width="57.451" height="77.635" viewBox="0 0 57.451 77.635">
  <g id="LOGO" transform="translate(-264.881 -264.612)">
    <g id="Grupo_397" data-name="Grupo 397" transform="translate(264.881 264.612)">
      <g id="Grupo_396" data-name="Grupo 396" transform="translate(16.003 13.619)">
        <path id="Caminho_426" data-name="Caminho 426" d="M375.307,359.052c3.265-1.235,6.97-3.177,6.97-7.146,0-5.249-5.028-6.66-12.439-6.66h-1.72l-8.485,4.745,2.739,5.53.012,19.94h7.057c6.264,0,14.777-1.72,14.777-8.072C384.218,362.89,380.82,360.287,375.307,359.052Zm-5.689-12.395c3.042,0,6.968.837,6.968,6.131,0,3.441-2.823,6-8.469,6V346.657Zm-.133,27.082h-1.368V359.889c5.646,0,9.616,1.544,9.616,7.366C377.733,371.49,373.984,373.74,369.485,373.74Z" transform="translate(-359.632 -345.246)" fill="#221f1c"/>
      </g>
      <path id="Caminho_427" data-name="Caminho 427" d="M264.881,264.612v57.451h48.744l8.707-8.708V264.612Zm3.928,53.523v-49.6h49.6v43.189l-.017.017-6.372,6.372-.017.017Z" transform="translate(-264.881 -264.612)" fill="#221f1c"/>
    </g>
    <g id="Grupo_402" data-name="Grupo 402" transform="translate(264.881 328.613)">
      <path id="Caminho_428" data-name="Caminho 428" d="M380,667.14a3.653,3.653,0,0,1-3.63-3.93,4.493,4.493,0,0,1,4.566-4.667,3.653,3.653,0,0,1,3.63,3.93A4.493,4.493,0,0,1,380,667.14Zm-1.506-5.453c0,2.609.953,4.817,2.425,4.817,1.237,0,1.555-1.639,1.555-2.509,0-2.609-.97-4.817-2.442-4.817C378.648,659.178,378.5,660.684,378.5,661.687Z" transform="translate(-357.544 -656.011)" fill="#221f1c"/>
      <path id="Caminho_429" data-name="Caminho 429" d="M571.779,646.241h2.461l.442.9h-2.9v4.114c0,1.606.368,2.041,1.355,2.041a1.875,1.875,0,0,0,1.635-.963l.163.33a3.369,3.369,0,0,1-3.019,1.972c-1.154,0-2.141-.669-2.141-2.576v-4.92l-.958-1.931,2.965-1.657Z" transform="translate(-517.482 -643.553)" fill="#221f1c"/>
      <g id="Grupo_398" data-name="Grupo 398" transform="translate(0 2.218)">
        <path id="Caminho_430" data-name="Caminho 430" d="M267.846,658.246a3.161,3.161,0,0,1,2.564-1.257c2.178,0,3.351,1.927,3.351,3.938a4.357,4.357,0,0,1-4.357,4.591,8.207,8.207,0,0,1-1.558-.2v2.731h-2.011v-7.777l-.954-1.931,2.965-1.657Zm0,5.4a3.11,3.11,0,0,0,2.212,1.14c1.475,0,1.726-1.157,1.726-2.329,0-2.614-1.106-4.223-2.547-4.223a2.553,2.553,0,0,0-1.391.469Z" transform="translate(-264.881 -656.683)" fill="#221f1c"/>
      </g>
      <g id="Grupo_399" data-name="Grupo 399" transform="translate(28.467 2.218)">
        <path id="Caminho_431" data-name="Caminho 431" d="M436.351,665.413c0,1.29-1.6,2.083-2.171,2.687l-.117-.05a3.338,3.338,0,0,0,.285-1.257v-6.521l-.919-1.931,2.929-1.657Z" transform="translate(-433.429 -656.683)" fill="#221f1c"/>
      </g>
      <g id="Grupo_400" data-name="Grupo 400" transform="translate(33.52 2.524)">
        <path id="Caminho_432" data-name="Caminho 432" d="M470.657,662.149h-5.379c.184,2.162,1.341,3.067,2.648,3.067a2.528,2.528,0,0,0,2.4-1.274l.251.1c-.6,1.525-1.793,3.066-3.787,3.066-2.2,0-3.435-1.961-3.435-3.971,0-2.162,1.341-4.642,4.072-4.642,1.994,0,3.217,1.34,3.234,3.6l.017.034h-.017ZM468.5,661.5c0-1.793-.721-2.5-1.458-2.5-1.274,0-1.793,1.525-1.793,2.531v.117H468.5Z" transform="translate(-463.351 -658.496)" fill="#221f1c"/>
      </g>
      <g id="Grupo_401" data-name="Grupo 401" transform="translate(42.779 2.724)">
        <path id="Caminho_433" data-name="Caminho 433" d="M524.486,662.365c-.586-1.19-1.341-2.095-2.631-2.095s-1.76,1.19-1.76,2.329c0,2.614,1.173,3.5,2.5,3.5a2.521,2.521,0,0,0,2.229-1.508l.184.067c-.352,1.357-1.491,3.436-3.57,3.436-2.2,0-3.268-1.961-3.268-3.972a4.228,4.228,0,0,1,4.424-4.441H524.6v2.681Z" transform="translate(-518.169 -659.684)" fill="#221f1c"/>
      </g>
      <path id="Caminho_434" data-name="Caminho 434" d="M336.444,659.684v2.693h-.007l-1.308-1.785h-2.152a1.077,1.077,0,0,0-1.077,1.077v6.211h-2.02v-8.2Z" transform="translate(-318.903 -656.96)" fill="#221f1c"/>
    </g>
  </g>
</svg>
