<svg xmlns="http://www.w3.org/2000/svg" width="57.004" height="78.689" viewBox="0 0 57.004 78.689">
  <g id="Grupo_573" data-name="Grupo 573" transform="translate(19285 18077)">
    <path id="Caminho_413" data-name="Caminho 413" d="M25.61,78.67c-3.25,0-5-2.63-5-5.38a6.14,6.14,0,0,1,6.24-6.38c3.25,0,5,2.63,5,5.38a6.15,6.15,0,0,1-6.24,6.38m-2.06-7.46c0,3.57,1.3,6.59,3.32,6.59,1.69,0,2.12-2.24,2.12-3.43,0-3.57-1.32-6.59-3.34-6.59s-2.1,2.06-2.1,3.43" transform="translate(-19285 -18077)" fill="#2d2a26"/>
    <path id="Caminho_414" data-name="Caminho 414" d="M50.76,78.67c-3.25,0-5-2.63-5-5.38A6.14,6.14,0,0,1,52,66.91c3.24,0,5,2.63,5,5.38a6.15,6.15,0,0,1-6.24,6.38M48.7,71.21c0,3.57,1.3,6.59,3.31,6.59,1.7,0,2.13-2.24,2.13-3.43,0-3.57-1.33-6.59-3.34-6.59s-2.1,2.06-2.1,3.43" transform="translate(-19285 -18077)" fill="#2d2a26"/>
    <path id="Caminho_415" data-name="Caminho 415" d="M13.6,65.77l1.31,2.64V78.4h2.74V63.5Z" transform="translate(-19285 -18077)" fill="#2d2a26"/>
    <path id="Caminho_416" data-name="Caminho 416" d="M7.46,67.2a4.19,4.19,0,0,0-3.4,1.65V63.5L0,65.77l1.31,2.64v10H3.8a15.421,15.421,0,0,0,2.31.28C10.41,78.67,12,75,12,72.5c0-2.71-1.57-5.3-4.5-5.3M7,77.68a4.13,4.13,0,0,1-2.93-1.49V69.48a3.37,3.37,0,0,1,1.82-.61c2.05,0,3.43,2.16,3.43,5.68,0,1.57-.34,3.13-2.32,3.13" transform="translate(-19285 -18077)" fill="#2d2a26"/>
    <path id="Caminho_417" data-name="Caminho 417" d="M43.27,74.48A3.46,3.46,0,0,1,40.54,76c-1.81,0-3.42-1.21-3.42-4.79,0-1.55.64-3.18,2.41-3.18s2.95,1.24,3.76,2.86v-3.7H40.54a5.78,5.78,0,0,0-6,6.07C34.49,76,36,78.69,39,78.69c2.39,0,3.87-2,4.57-3.76Z" transform="translate(-19285 -18077)" fill="#2d2a26"/>
    <path id="Caminho_418" data-name="Caminho 418" d="M31.43,27.21c3.24-1.23,6.91-3.15,6.91-7.09,0-5.21-5-6.61-12.34-6.61H24.29l-8.41,4.71,2.71,5.48V43.49h7c6.21,0,14.66-1.71,14.66-8,0-4.46-3.37-7-8.84-8.27m-5.65-12.3c3,0,6.92.83,6.92,6.08,0,3.42-2.8,6-8.41,6V15Zm-.13,26.87H24.29V28c5.61,0,9.54,1.53,9.54,7.31,0,4.2-3.72,6.43-8.18,6.43" transform="translate(-19285 -18077)" fill="#2d2a26"/>
    <path id="Caminho_419" data-name="Caminho 419" d="M0,0V57H48.36L57,48.36V0ZM3.9,53.1V3.9H53.1V46.74h0l-6.32,6.32h0Z" transform="translate(-19285 -18077)" fill="#2d2a26"/>
  </g>
</svg>
