<svg xmlns="http://www.w3.org/2000/svg" width="97.365" height="29.303" viewBox="0 0 97.365 29.303"><g transform="translate(-470.384 -316.317)"><path d="M864.329,376.452h3.482l.625,1.278h-4.107v5.82c0,2.271.521,2.887,1.917,2.887a2.653,2.653,0,0,0,2.313-1.363l.231.466c-1.121,1.852-2.388,2.789-4.271,2.789-1.633,0-3.028-.947-3.028-3.644v-6.96l-1.356-2.732,4.194-2.344Z" transform="translate(-341.623 -49.377)" fill="#221f1c"/><path d="M952.072,413.308c-3.36,0-5.134-2.721-5.134-5.559a6.355,6.355,0,0,1,6.458-6.6c3.36,0,5.134,2.72,5.134,5.56A6.354,6.354,0,0,1,952.072,413.308Zm-2.13-7.713c0,3.691,1.348,6.814,3.431,6.814,1.751,0,2.2-2.318,2.2-3.548,0-3.691-1.372-6.814-3.454-6.814C950.155,402.047,949.942,404.176,949.942,405.6Z" transform="translate(-417.707 -74.355)" fill="#221f1c"/><path d="M1064.627,410.2v-7.287c0-1.822-.26-2.981-2.081-2.981a3.091,3.091,0,0,0-2.532,1.4V410.2h-2.838v-7.2l-1.353-2.732,4.191-2.344v2.6a4.706,4.706,0,0,1,3.9-2.2c2.414,0,3.549,1.561,3.549,3.785V410.2Z" transform="translate(-513.145 -71.535)" fill="#221f1c"/><path d="M1185.208,406.161h-7.62c.261,3.062,1.9,4.344,3.75,4.344,1.614,0,3.038-.807,3.395-1.8l.356.143c-.854,2.16-2.54,4.343-5.364,4.343-3.11,0-4.866-2.777-4.866-5.625,0-3.062,1.9-6.575,5.768-6.575,2.825,0,4.557,1.9,4.581,5.1l.024.048h-.024Zm-3.062-.926c0-2.54-1.021-3.537-2.065-3.537-1.8,0-2.54,2.16-2.54,3.585v.166h4.6Z" transform="translate(-617.482 -74.215)" fill="#221f1c"/><path d="M776.441,401.814a8.611,8.611,0,0,0-3.262-.7c-1.17,0-4.61.266-4.61,3.818s6.087,2.821,6.087,6.322c0,.734-.658,1.074-1.125,1.223a2.319,2.319,0,0,1-.707.106h-.654l-3.613-4.775v4.775a16.569,16.569,0,0,0,4.1.7c.951,0,4.771-.376,4.771-4.006s-6.35-3.411-6.35-6.044a1.322,1.322,0,0,1,.94-1.272,2.285,2.285,0,0,1,.824-.145h.781l2.816,3.977Z" transform="translate(-261.352 -74.324)" fill="#221f1c"/><path d="M544.479,379.611c1.665-.63,3.555-1.62,3.555-3.645,0-2.677-2.565-3.4-6.345-3.4h-.877l-4.328,2.42,1.4,2.82.006,10.17h3.6c3.195,0,7.537-.877,7.537-4.117C549.024,381.568,547.291,380.241,544.479,379.611Zm-2.9-6.322c1.552,0,3.554.427,3.554,3.127,0,1.755-1.44,3.059-4.32,3.059v-6.186ZM541.51,387.1h-.7v-7.065c2.88,0,4.9.788,4.9,3.757C545.717,385.955,543.8,387.1,541.51,387.1Z" transform="translate(-57.938 -49.307)" fill="#221f1c"/><path d="M470.384,316.317v29.3h24.862l4.441-4.441V316.317Zm2,27.3v-25.3h25.3v22.029l-.009.009-3.25,3.25-.009.009Z" fill="#221f1c"/></g></svg>