<svg xmlns="http://www.w3.org/2000/svg" width="57.451" height="77.302" viewBox="0 0 57.451 77.302">
  <g id="LOGO" transform="translate(-177 -24.035)">
    <path id="Caminho_264" data-name="Caminho 264" d="M110.064,94.1c3.272-1.238,6.967-3.17,6.967-7.137,0-5.255-5.035-6.662-12.443-6.662h-1.712L94.4,85.047l2.746,5.526.017,19.936h7.052c6.255,0,14.782-1.712,14.782-8.069-.017-4.492-3.424-7.1-8.934-8.34m-5.679-12.392c3.034,0,6.967.831,6.967,6.137,0,3.441-2.814,6-8.459,6V81.707Zm-.136,27.09h-1.373V94.947c5.645,0,9.612,1.543,9.612,7.357,0,4.238-3.746,6.493-8.239,6.493" transform="translate(98.603 -42.652)" fill="#2d2a26"/>
    <path id="Caminho_265" data-name="Caminho 265" d="M0,0V57.434H48.738l8.713-8.713V0ZM3.933,53.518V3.933H53.518V47.11l-.017.017L47.127,53.5l-.017.017Z" transform="translate(177 24.035)" fill="#2d2a26"/>
    <path id="Caminho_266" data-name="Caminho 266" d="M194.26,400.325a3.582,3.582,0,0,1-3.56-3.848,4.4,4.4,0,0,1,4.475-4.577,3.582,3.582,0,0,1,3.56,3.848,4.4,4.4,0,0,1-4.475,4.577m-1.475-5.357c0,2.56.932,4.73,2.373,4.73,1.221,0,1.526-1.61,1.526-2.458,0-2.56-.949-4.73-2.39-4.73-1.373,0-1.509,1.475-1.509,2.458" transform="translate(18.628 -301.429)" fill="#2d2a26"/>
    <path id="Caminho_267" data-name="Caminho 267" d="M104.7,391.743a3.1,3.1,0,0,1,2.509-1.238c2.136,0,3.289,1.882,3.289,3.865a4.275,4.275,0,0,1-4.272,4.509,7.873,7.873,0,0,1-1.526-.2v2.678h-1.966v-7.629l-.932-1.9,2.916-1.627v1.543Zm0,5.289a3.06,3.06,0,0,0,2.17,1.119c1.441,0,1.7-1.136,1.7-2.289,0-2.56-1.085-4.136-2.492-4.136a2.54,2.54,0,0,0-1.356.458v4.848Z" transform="translate(92.457 -300.017)" fill="#2d2a26"/>
    <path id="Caminho_268" data-name="Caminho 268" d="M7.171,395.577H1.882c.186,2.119,1.322,3,2.594,3a2.491,2.491,0,0,0,2.356-1.254l.254.1c-.593,1.492-1.763,3-3.713,3-2.153,0-3.373-1.916-3.373-3.9C0,394.424,1.322,392,4,392c1.95,0,3.153,1.322,3.17,3.526v.051Zm-2.119-.644c0-1.763-.712-2.441-1.424-2.441-1.254,0-1.763,1.492-1.763,2.475v.119H5.052Z" transform="translate(177 -301.512)" fill="#2d2a26"/>
    <path id="Caminho_269" data-name="Caminho 269" d="M303.654,395.494h-5.272c.186,2.119,1.322,3,2.594,3a2.491,2.491,0,0,0,2.356-1.254l.254.1c-.593,1.492-1.763,3-3.713,3-2.153,0-3.374-1.916-3.374-3.9,0-2.119,1.322-4.543,4-4.543,1.95,0,3.153,1.322,3.17,3.526v.068Zm-2.119-.644c0-1.763-.712-2.441-1.424-2.441-1.254,0-1.763,1.492-1.763,2.475V395h3.187Z" transform="translate(-69.237 -301.429)" fill="#2d2a26"/>
    <path id="Caminho_270" data-name="Caminho 270" d="M160.7,379.11l.932,1.9v7.171H163.6V377.5Z" transform="translate(43.542 -289.47)" fill="#2d2a26"/>
    <path id="Caminho_271" data-name="Caminho 271" d="M56.371,401.052l-3.357-4.628,2.051-2.831.61-.593h-2.1l.661.593-1.627,2.255-1.644-2.255.661-.593H48.2l.61.593,2.729,3.729-2.7,3.729h.831l2.272-3.17,2.306,3.17Z" transform="translate(136.971 -302.342)" fill="#2d2a26"/>
    <path id="Caminho_272" data-name="Caminho 272" d="M257.891,393.1v2.628h0l-1.271-1.746h-2.1a1.056,1.056,0,0,0-1.051,1.051v6.1H251.5V393.1Z" transform="translate(-31.865 -302.426)" fill="#2d2a26"/>
  </g>
</svg>
