<svg id="Layer_1" data-name="Layer 1" xmlns="http://www.w3.org/2000/svg" viewBox="0 0 192 192"><defs><style>.cls-1{fill:#fff;}.cls-2{fill:#2d2a26;}</style></defs><title>192px</title><polygon class="cls-1" points="161.25 185.5 7.5 185.5 7.5 6.5 184.5 6.5 184.5 162.32 161.25 185.5"/><path class="cls-2" d="M105.87,91.65c10.91-4.13,23.29-10.61,23.29-23.88,0-17.54-16.8-22.26-41.57-22.26H81.84L53.48,61.37l9.16,18.48,0,66.64H86.26c20.93,0,49.39-5.75,49.39-27C135.65,104.48,124.29,95.78,105.87,91.65Zm-19-41.42c10.17,0,23.29,2.8,23.29,20.49,0,11.5-9.43,20-28.3,20V50.23Zm-.44,90.51H81.84V94.45c18.87,0,32.14,5.16,32.14,24.62C114,133.22,101.44,140.74,86.41,140.74Z"/><path class="cls-2" d="M0,0V192H162.9L192,162.9V0ZM13.13,178.87V13.13H178.87V157.46l-.06.06-21.29,21.29-.06.06Z"/></svg>