<svg id="Logo_BLOCO" data-name="Logo BLOCO" xmlns="http://www.w3.org/2000/svg" width="627.63" height="167.26" viewBox="0 0 627.63 167.26">
  <path id="Caminho_227" data-name="Caminho 227" d="M282,167c-35.75,0-54.64-29-54.64-59.18,0-32.49,21.91-70.26,68.74-70.26,35.76,0,54.65,29,54.65,59.18,0,32.48-21.9,70.26-68.75,70.26M259.3,84.89c0,39.28,14.35,72.52,36.51,72.52,18.63,0,23.42-24.68,23.42-37.77,0-39.28-14.6-72.52-36.76-72.52-20.91,0-23.17,22.67-23.17,37.77" fill="#fff"/>
  <path id="Caminho_228" data-name="Caminho 228" d="M558.88,167c-35.76,0-54.65-29-54.65-59.18,0-32.49,21.91-70.26,68.74-70.26,35.76,0,54.66,29,54.66,59.18,0,32.48-21.91,70.26-68.75,70.26M536.21,84.9c0,39.28,14.35,72.52,36.52,72.52,18.63,0,23.41-24.68,23.41-37.77,0-39.28-14.6-72.52-36.76-72.52-20.9,0-23.17,22.67-23.17,37.77" fill="#fff"/>
  <path id="Caminho_229" data-name="Caminho 229" d="M149.72,24.95l14.41,29.07V164.01h30.21V0Z" fill="#fff"/>
  <path id="Caminho_230" data-name="Caminho 230" d="M82.13,40.78c-17.8,0-28.64,7.91-37.48,18.09V0L0,25,14.37,54V163.94H41.86c9,1.73,20.39,3.05,25.4,3.05,47.36,0,64.47-40.42,64.47-67.94,0-29.76-17.36-58.27-49.6-58.27m-5.2,115.3c-13.37,0-25.05-8.33-32.28-16.37V65.8c7.24-4.52,13.57-6.67,20.13-6.67,22.56,0,37.69,23.8,37.69,62.48,0,17.36-3.72,34.47-25.54,34.47" fill="#fff"/>
  <path id="Caminho_231" data-name="Caminho 231" d="M476.44,121c-5.62,7.89-16.54,16.28-30.09,16.28-19.93,0-37.59-13.37-37.59-52.73,0-17.15,7.07-35.07,26.49-35.07S467.8,63.06,476.63,81V40.6H446.35c-48.19,0-66.6,36.84-66.6,66.86,0,30.28,16.14,59.8,49.19,59.8,26.35,0,42.68-22.2,50.34-41.41Z" fill="#fff"/>
</svg>
