<svg id="simulador" xmlns="http://www.w3.org/2000/svg" width="128.713" height="128.191" viewBox="0 0 128.713 128.191">
  <rect width="52.764" height="52.764" transform="translate(90.738 37.806) rotate(90)" fill="none" stroke="#161615" stroke-miterlimit="10" stroke-width="2"/>
  <g transform="translate(0 59.557)">
      <rect width="6.55" height="6.55" transform="translate(0 4.631) rotate(-45)" fill="#b76646"/>
      <rect width="6.55" height="6.55" transform="translate(119.45 4.631) rotate(-45)" fill="#b76646"/>
  </g>
  <g transform="translate(5.901 0)">
    <path d="M99.044,588.6l-.871-1.844a3.5,3.5,0,0,0,1.614-1.477c.293-.626.212-.987-.137-1.15-.374-.175-.68.166-1.255.706l-.865.784a2.555,2.555,0,0,1-2.918.56c-1.337-.624-1.871-2.341-1.073-4.052a4.159,4.159,0,0,1,2.263-2.113l.817,1.644a2.847,2.847,0,0,0-1.3,1.3c-.236.505-.2.9.148,1.067.373.175.713-.21,1.323-.792l.817-.777a2.378,2.378,0,0,1,2.86-.529c1.324.619,1.988,2.279,1.077,4.23A5,5,0,0,1,99.044,588.6Z" transform="translate(-93.166 -545.422)" fill="#b76646"/>
    <path d="M102.834,567.588l1.443-1.775,6.706,5.458-1.444,1.774Z" transform="translate(-94.795 -543.028)" fill="#b76646"/>
    <path d="M114.689,554.642l1.99-1.423,3.117,2.121c.408.3.826.652,1.25.97l.043-.031c-.164-.5-.366-1.014-.514-1.5l-1.04-3.605,1.99-1.423,5.027,7.032-1.688,1.206-1.484-2.077a29.754,29.754,0,0,1-1.556-2.681l-.043.031.622,2.106.8,2.945-1,.71-2.528-1.708-1.768-1.284-.044.03a29.764,29.764,0,0,1,2.032,2.34l1.485,2.077-1.666,1.192Z" transform="translate(-96.794 -540.322)" fill="#b76646"/>
    <path d="M137.448,547.114l-1.353-4.259,2.179-.693,1.434,4.513c.467,1.47,1.017,1.882,1.879,1.607s1.1-.935.631-2.4l-1.434-4.513,2.1-.669,1.354,4.259c.895,2.814.248,4.471-2.059,5.2S138.342,549.928,137.448,547.114Z" transform="translate(-100.402 -538.794)" fill="#b76646"/>
    <path d="M158.5,538.467l2.287-.058.172,6.727,3.271-.084.049,1.915-5.557.142Z" transform="translate(-104.18 -538.409)" fill="#b76646"/>
    <path d="M179.663,540.247l2.686.666.474,9.025-2.35-.583.029-1.884-2.35-.583-.856,1.679L175.025,548Zm-.685,5.023,1.55.385,0-.617c-.007-.851.038-1.922.041-2.813l-.052-.013c-.392.808-.848,1.763-1.253,2.513Z" transform="translate(-106.964 -538.719)" fill="#b76646"/>
    <path d="M198.228,546.9l2.206,1.292c2.273,1.333,3.216,3.3,1.669,5.945s-3.769,2.852-5.927,1.587l-2.32-1.359Zm-1.354,7.1c1.079.632,2.185.693,3.208-1.051s.387-2.612-.692-3.244l-.115-.067-2.517,4.294Z" transform="translate(-110.139 -539.84)" fill="#b76646"/>
    <path d="M212.945,562.935c2.094-1.931,4.368-1.818,5.991-.057s1.538,4.047-.546,5.967-4.427,1.872-6.05.11S210.85,564.863,212.945,562.935Zm3.859,4.188c1.154-1.063,1.388-2.146.684-2.909s-1.8-.62-2.957.443-1.447,2.2-.743,2.963S215.649,568.187,216.8,567.122Z" transform="translate(-113.068 -542.305)" fill="#b76646"/>
    <path d="M229.872,578.617l1.414,2.95c.806,1.68.92,3.395-1.023,4.326a2.65,2.65,0,0,1-2.858-.178l-2.212,3.14-1.1-2.3,1.971-2.6-.38-.792-2.614,1.254-.989-2.064Zm-2.2,4.509c.391.816.958,1.075,1.63.752s.68-.857.288-1.673l-.356-.744-1.919.92Z" transform="translate(-114.896 -545.187)" fill="#b76646"/>
  </g>
  <g transform="translate(6.058 84.523)">
    <path d="M226.337,640.658l.871,1.845a3.5,3.5,0,0,0-1.614,1.477c-.293.625-.212.987.138,1.15.373.175.679-.167,1.254-.706l.865-.785a2.557,2.557,0,0,1,2.918-.56c1.337.624,1.871,2.341,1.073,4.052a4.154,4.154,0,0,1-2.263,2.112l-.817-1.642a2.858,2.858,0,0,0,1.3-1.3c.236-.506.2-.9-.148-1.067-.373-.175-.713.21-1.323.791l-.817.778a2.377,2.377,0,0,1-2.859.528c-1.325-.619-1.988-2.279-1.078-4.23A5.012,5.012,0,0,1,226.337,640.658Z" transform="translate(-115.278 -640.167)" fill="#b76646"/>
    <path d="M222.68,661.944l-1.444,1.775-6.706-5.458,1.444-1.775Z" transform="translate(-113.781 -642.836)" fill="#b76646"/>
    <path d="M210.073,673.939l-1.991,1.422-3.117-2.119c-.408-.3-.826-.653-1.25-.971l-.042.031c.164.5.365,1.014.513,1.5l1.04,3.6-1.99,1.424-5.027-7.033,1.688-1.206,1.485,2.077a29.843,29.843,0,0,1,1.556,2.681l.044-.031-.623-2.106-.8-2.945,1-.711,2.528,1.707,1.768,1.285.044-.031a29.75,29.75,0,0,1-2.032-2.34L203.38,668.1l1.665-1.191Z" transform="translate(-111.03 -644.592)" fill="#b76646"/>
    <path d="M187.988,681.919l1.354,4.258-2.18.693-1.434-4.513c-.466-1.469-1.017-1.882-1.878-1.607s-1.1.935-.631,2.4l1.433,4.513-2.1.669-1.353-4.259c-.895-2.814-.249-4.471,2.059-5.2S187.094,679.1,187.988,681.919Z" transform="translate(-108.096 -646.57)" fill="#b76646"/>
    <path d="M167.491,690.768l-2.287.058-.172-6.728-3.271.085-.049-1.915,5.557-.142Z" transform="translate(-104.878 -647.158)" fill="#b76646"/>
    <path d="M145.923,688.787l-2.686-.666-.474-9.025,2.35.583-.029,1.884,2.35.583.856-1.679,2.271.564Zm.685-5.023-1.55-.385,0,.616c.007.852-.038,1.923-.04,2.813l.052.013c.392-.807.848-1.763,1.253-2.513Z" transform="translate(-101.684 -646.647)" fill="#b76646"/>
    <path d="M127.113,682.157l-2.2-1.291c-2.274-1.334-3.217-3.3-1.669-5.945s3.768-2.852,5.926-1.587l2.32,1.359Zm1.354-7.1c-1.079-.633-2.184-.694-3.209,1.051s-.387,2.611.692,3.243l.115.067,2.517-4.294Z" transform="translate(-98.264 -645.549)" fill="#b76646"/>
    <path d="M112.432,666.287c-2.1,1.93-4.369,1.818-5.992.056s-1.538-4.046.546-5.966,4.428-1.871,6.051-.111S114.527,664.358,112.432,666.287Zm-3.859-4.188c-1.155,1.063-1.388,2.147-.684,2.91s1.8.62,2.956-.445,1.447-2.2.743-2.963S109.728,661.035,108.573,662.1Z" transform="translate(-95.371 -643.249)" fill="#b76646"/>
    <path d="M95.317,650.306l-1.414-2.95c-.806-1.68-.92-3.395,1.023-4.326a2.65,2.65,0,0,1,2.858.177L100,640.068l1.1,2.3-1.971,2.6.38.791,2.614-1.253.989,2.064Zm2.2-4.509c-.391-.815-.958-1.075-1.63-.752s-.68.857-.289,1.673l.356.744,1.92-.92Z" transform="translate(-93.355 -640.068)" fill="#b76646"/>
  </g>
</svg>
