<svg xmlns="http://www.w3.org/2000/svg" width="2008.299" height="1113.824" viewBox="0 0 2008.299 1113.824"><g transform="translate(3.837 49.057)"><g transform="translate(923.767 551.285) rotate(-29)"><line x2="2295.642" transform="translate(-1059.817 -0.875)" fill="none" stroke="#000" stroke-width="1" opacity="0.16"/></g><g transform="translate(1392.079 196.021)"><path d="M2726.716,1261.7c65.376-24.742,139.562-63.614,139.562-143.086,0-105.113-100.687-133.378-249.1-133.378h-34.449l-169.909,95.01,54.856,110.729.231,399.295h141.325c125.431,0,295.917-34.449,295.917-161.643C2905.151,1338.547,2837.114,1286.44,2726.716,1261.7Zm-113.922-248.2c60.915,0,139.525,16.757,139.525,122.77,0,68.9-56.529,120.106-169.589,120.106V1013.5Zm-2.661,542.319h-27.4V1278.456c113.06,0,192.569,30.927,192.569,147.509C2775.3,1510.759,2700.213,1555.819,2610.134,1555.819Z" transform="translate(-2412.822 -985.235)" fill="#f0f0f0"/></g></g></svg>