<svg xmlns="http://www.w3.org/2000/svg" width="356.33" height="60.365" viewBox="0 0 356.33 60.365">
  <g id="Barra_logos_1" data-name="Barra logos 1" transform="translate(-110 -2241)">
    <g id="Grupo_448" data-name="Grupo 448" transform="translate(241.324 2269.42)">
      <path id="Caminho_518" data-name="Caminho 518" d="M1.608,853.927l7.054-5.989q1.055-.877,1.785-1.592a10.145,10.145,0,0,0,1.185-1.36,4.826,4.826,0,0,0,.658-1.256,4.1,4.1,0,0,0,.205-1.315,2.954,2.954,0,0,0-.952-2.35,3.437,3.437,0,0,0-2.356-.834,4.155,4.155,0,0,0-2.473.761A11.4,11.4,0,0,0,4.448,842.3L1.9,840.314a17.551,17.551,0,0,1,1.493-1.838,7.851,7.851,0,0,1,1.654-1.356,7.546,7.546,0,0,1,1.962-.843,9.145,9.145,0,0,1,2.443-.3,8.149,8.149,0,0,1,2.738.44,6.249,6.249,0,0,1,2.136,1.243,5.656,5.656,0,0,1,1.391,1.933,6.137,6.137,0,0,1,.5,2.5v.058a6.968,6.968,0,0,1-.322,2.18,6.867,6.867,0,0,1-.979,1.888,12.285,12.285,0,0,1-1.669,1.829q-1.01.922-2.357,2.035L6.672,853.6h9.746v3.16H1.608Z" transform="translate(23.85 -825.451)" fill="#fff"/>
      <path id="Caminho_519" data-name="Caminho 519" d="M47.665,856.291a10.951,10.951,0,0,1-4.331-.833,10.248,10.248,0,0,1-3.366-2.269,10.378,10.378,0,0,1-2.195-3.35,10.6,10.6,0,0,1-.79-4.082V845.7a10.613,10.613,0,0,1,.79-4.084A10.363,10.363,0,0,1,40,838.248a10.678,10.678,0,0,1,7.728-3.146,10.948,10.948,0,0,1,4.331.835,10.268,10.268,0,0,1,3.366,2.268,10.4,10.4,0,0,1,2.2,3.35,10.627,10.627,0,0,1,.791,4.085v.057a10.609,10.609,0,0,1-.791,4.083,10.3,10.3,0,0,1-2.224,3.365,10.679,10.679,0,0,1-7.728,3.146m.059-3.305a6.711,6.711,0,0,0,2.784-.571,6.637,6.637,0,0,0,2.17-1.551,7.185,7.185,0,0,0,1.414-2.3,7.7,7.7,0,0,0,.509-2.809V845.7a7.817,7.817,0,0,0-.509-2.824,7.007,7.007,0,0,0-1.429-2.312,6.9,6.9,0,0,0-2.2-1.566,6.766,6.766,0,0,0-7.753,1.537,7.188,7.188,0,0,0-1.414,2.3,7.744,7.744,0,0,0-.511,2.81v.057a7.865,7.865,0,0,0,.511,2.824,7.017,7.017,0,0,0,1.428,2.312,6.893,6.893,0,0,0,2.2,1.567,6.666,6.666,0,0,0,2.8.586" transform="translate(4.953 -824.982)" fill="#fff"/>
      <path id="Caminho_520" data-name="Caminho 520" d="M85.99,853.927l7.056-5.989q1.05-.877,1.785-1.592a10.173,10.173,0,0,0,1.185-1.36,4.886,4.886,0,0,0,.658-1.256,4.137,4.137,0,0,0,.2-1.315,2.95,2.95,0,0,0-.951-2.35,3.438,3.438,0,0,0-2.355-.834,4.143,4.143,0,0,0-2.472.761,11.315,11.315,0,0,0-2.268,2.312l-2.548-1.989a17.853,17.853,0,0,1,1.493-1.838,7.939,7.939,0,0,1,1.655-1.356,7.556,7.556,0,0,1,1.961-.843,9.143,9.143,0,0,1,2.443-.3,8.134,8.134,0,0,1,2.737.44,6.226,6.226,0,0,1,2.137,1.243,5.632,5.632,0,0,1,1.39,1.933,6.1,6.1,0,0,1,.5,2.5v.058a6.544,6.544,0,0,1-1.3,4.068,12.092,12.092,0,0,1-1.667,1.829q-1.013.922-2.357,2.035L91.053,853.6H100.8v3.16H85.99Z" transform="translate(-21.227 -825.451)" fill="#fff"/>
      <path id="Caminho_521" data-name="Caminho 521" d="M132.048,856.291a10.958,10.958,0,0,1-4.332-.833,10.209,10.209,0,0,1-5.559-5.619,10.6,10.6,0,0,1-.792-4.082V845.7a10.613,10.613,0,0,1,.792-4.084,10.326,10.326,0,0,1,2.224-3.365,10.661,10.661,0,0,1,7.727-3.146,10.958,10.958,0,0,1,4.33.835A10.306,10.306,0,0,1,139.8,838.2a10.43,10.43,0,0,1,2.194,3.35,10.635,10.635,0,0,1,.79,4.085v.057a10.617,10.617,0,0,1-.79,4.083,10.309,10.309,0,0,1-2.223,3.365,10.692,10.692,0,0,1-7.728,3.146m.06-3.305a6.7,6.7,0,0,0,2.781-.571,6.624,6.624,0,0,0,2.173-1.551,7.223,7.223,0,0,0,1.413-2.3,7.715,7.715,0,0,0,.51-2.809V845.7a7.837,7.837,0,0,0-.51-2.824,7.057,7.057,0,0,0-1.427-2.312,6.9,6.9,0,0,0-2.2-1.566,6.772,6.772,0,0,0-7.754,1.537,7.161,7.161,0,0,0-1.413,2.3,7.714,7.714,0,0,0-.51,2.81v.057a7.835,7.835,0,0,0,.51,2.824,7.007,7.007,0,0,0,1.427,2.312,6.892,6.892,0,0,0,2.2,1.567,6.69,6.69,0,0,0,2.8.586" transform="translate(-40.124 -824.982)" fill="#fff"/>
      <path id="Caminho_522" data-name="Caminho 522" d="M3.823,817.207a3.317,3.317,0,0,1-.368-.015v1.235a5.5,5.5,0,0,1,.743.1v.687H1.608v-.687a5.467,5.467,0,0,1,.741-.1v-4.166a6.123,6.123,0,0,1-.741-.1v-.69h.668c.269,0,1.02-.033,1.616-.033,1.4,0,2.179.656,2.179,1.78a2.03,2.03,0,0,1-2.248,1.991m.017-2.866c-.136,0-.254,0-.385,0v1.917a2.272,2.272,0,0,0,.323.027,1.024,1.024,0,0,0,1.144-1.005c0-.58-.325-.943-1.083-.943m5.338,4.968c-1.754,0-2.612-1.114-2.612-2.893a2.807,2.807,0,0,1,2.809-3.042c1.532,0,2.616.921,2.616,2.887a2.806,2.806,0,0,1-2.813,3.047m.1-4.936c-.792,0-1.524.631-1.524,1.922,0,1.217.477,2.01,1.507,2.01.749,0,1.548-.579,1.548-1.958,0-1.277-.542-1.975-1.531-1.975m6.512,4.843-1.406-2.371h-.152v1.582a2.679,2.679,0,0,1,.521.092v.7H12.379v-.687a5.484,5.484,0,0,1,.74-.1v-4.166a6.146,6.146,0,0,1-.74-.1v-.69h.664c.223,0,1.021-.033,1.727-.033,1.27,0,2.088.441,2.088,1.616a1.582,1.582,0,0,1-1.355,1.561c.1.135.2.28.291.415l.885,1.39c.162.023.365.058.563.094v.7Zm-1.134-4.875a3.046,3.046,0,0,0-.425.021v1.662c.077.007.222.015.39.015.674,0,1.074-.339,1.074-.877s-.333-.822-1.04-.822m6.52.746c-.039-.262-.085-.491-.1-.707h-.887v4.047a5.551,5.551,0,0,1,.742.1v.687H18.338v-.687a5.491,5.491,0,0,1,.741-.1V814.38H18.2c-.016.216-.06.445-.1.707h-.82v-1.618h4.707v1.618Zm6.409-.825v2.751a2.09,2.09,0,0,1-2.375,2.3c-1.816,0-2.221-.987-2.221-2.084v-2.964a3.185,3.185,0,0,1-.538-.094v-.7H24.7v.7a3.919,3.919,0,0,1-.614.094v2.9c0,.725.231,1.235,1.185,1.235.85,0,1.216-.358,1.216-1.337v-2.793a3.592,3.592,0,0,1-.611-.094v-.7h2.229v.7a3.069,3.069,0,0,1-.527.094M33.292,817v1.952a5.53,5.53,0,0,1-1.983.355,2.632,2.632,0,0,1-2.888-2.826,2.955,2.955,0,0,1,3.186-3.093,6.374,6.374,0,0,1,1.6.214v1.541h-.854c-.048-.247-.075-.467-.1-.691a2.743,2.743,0,0,0-.707-.086,1.829,1.829,0,0,0-1.923,2.009,1.719,1.719,0,0,0,1.832,1.934,2.351,2.351,0,0,0,.727-.1V817a4.609,4.609,0,0,1-.727-.11v-.69h2.315v.706c-.155.035-.318.06-.479.086m4,2.221v-.687a5.654,5.654,0,0,1,.6-.093l-.246-.682h-2.1l-.238.682a5.547,5.547,0,0,1,.607.093v.687H33.758v-.687a2.028,2.028,0,0,1,.451-.088l1.753-4.972h1.355l1.789,4.972a2.018,2.018,0,0,1,.451.088v.687Zm-.426-3.737a8.109,8.109,0,0,1-.263-.9h-.008a8.5,8.5,0,0,1-.272.943l-.5,1.374h1.55Zm2.951,3.737v-.687a5.537,5.537,0,0,1,.743-.1v-4.166a6.208,6.208,0,0,1-.743-.1v-.69h2.59v.69a6.1,6.1,0,0,1-.743.1v4.044h1.1c.017-.206.059-.451.1-.7h.816v1.615Z" transform="translate(23.85 -813.375)" fill="#fff"/>
      <path id="Caminho_523" data-name="Caminho 523" d="M-44.824,813.9c-5.07,2-8.221,7.292-8.221,15.436V841.7s1.037-7.947,8.221-10.236Z" transform="translate(53.045 -813.655)" fill="#fff"/>
      <path id="Caminho_524" data-name="Caminho 524" d="M-39.912,832.87c-2.945.588-7.259,2.949-8.529,6.273,6.322-7.677,19.228-.257,19.8-14.7.18-4.572.2-10.2.2-10.2a42.2,42.2,0,0,0-11.47,2.174Z" transform="translate(50.586 -813.841)" fill="#fff"/>
      <path id="Caminho_525" data-name="Caminho 525" d="M-40.454,863.178s-6.861.556-7.444,4.474c-.46,3.062,7.444,3.142,7.444,3.142Z" transform="translate(50.306 -839.979)" fill="#fff"/>
    </g>
    <g id="Grupo_449" data-name="Grupo 449" transform="translate(110 2241)">
      <path id="Caminho_526" data-name="Caminho 526" d="M-330.461,756.362l.794.2a2.668,2.668,0,0,1-.9,1.492,2.471,2.471,0,0,1-1.587.514,2.848,2.848,0,0,1-1.578-.395,2.468,2.468,0,0,1-.925-1.144,4.085,4.085,0,0,1-.318-1.609,3.544,3.544,0,0,1,.358-1.636,2.459,2.459,0,0,1,1.02-1.06,2.976,2.976,0,0,1,1.455-.362,2.459,2.459,0,0,1,1.515.458,2.382,2.382,0,0,1,.856,1.29l-.782.184a1.851,1.851,0,0,0-.606-.954,1.615,1.615,0,0,0-1-.3,1.939,1.939,0,0,0-1.157.332,1.748,1.748,0,0,0-.653.891,3.576,3.576,0,0,0-.189,1.152,3.663,3.663,0,0,0,.223,1.336,1.665,1.665,0,0,0,.694.854,1.947,1.947,0,0,0,1.019.282,1.706,1.706,0,0,0,1.13-.384,1.969,1.969,0,0,0,.627-1.142" transform="translate(334.973 -752.362)" fill="#fff"/>
      <path id="Caminho_527" data-name="Caminho 527" d="M-322.272,758.193a2.241,2.241,0,0,1,.671-1.789,2.025,2.025,0,0,1,1.368-.483,1.95,1.95,0,0,1,1.465.587,2.235,2.235,0,0,1,.569,1.623,2.881,2.881,0,0,1-.251,1.321,1.786,1.786,0,0,1-.733.747,2.137,2.137,0,0,1-1.05.266,1.953,1.953,0,0,1-1.476-.586,2.338,2.338,0,0,1-.563-1.687m.757,0a1.853,1.853,0,0,0,.364,1.251,1.168,1.168,0,0,0,.917.416,1.162,1.162,0,0,0,.913-.417,1.9,1.9,0,0,0,.364-1.274,1.8,1.8,0,0,0-.366-1.222,1.166,1.166,0,0,0-.911-.415,1.172,1.172,0,0,0-.917.413,1.846,1.846,0,0,0-.364,1.249" transform="translate(328.188 -754.263)" fill="#fff"/>
      <path id="Caminho_528" data-name="Caminho 528" d="M-312.04,758.466v-3.775h-.651v-.573h.651v-.463a2.032,2.032,0,0,1,.078-.651.936.936,0,0,1,.375-.464,1.35,1.35,0,0,1,.751-.178,3.6,3.6,0,0,1,.688.074l-.111.643a2.447,2.447,0,0,0-.434-.041.645.645,0,0,0-.475.143.775.775,0,0,0-.139.537v.4h.848v.573h-.848v3.775Z" transform="translate(323.07 -752.362)" fill="#fff"/>
      <path id="Caminho_529" data-name="Caminho 529" d="M-306.663,752.581h.737v.847h-.737Zm0,1.654h.737v4.348h-.737Z" transform="translate(319.85 -752.479)" fill="#fff"/>
      <path id="Caminho_530" data-name="Caminho 530" d="M-302.672,760.367v-4.348h.663v.618a1.564,1.564,0,0,1,1.384-.716,1.812,1.812,0,0,1,.722.141,1.131,1.131,0,0,1,.493.371,1.425,1.425,0,0,1,.23.544,4.2,4.2,0,0,1,.041.716v2.673h-.737v-2.644a1.975,1.975,0,0,0-.087-.674.707.707,0,0,0-.3-.356.969.969,0,0,0-.514-.133,1.193,1.193,0,0,0-.813.3,1.474,1.474,0,0,0-.342,1.134v2.375Z" transform="translate(317.718 -754.263)" fill="#fff"/>
      <path id="Caminho_531" data-name="Caminho 531" d="M-290.111,759.831a2.767,2.767,0,0,1-.788.491,2.279,2.279,0,0,1-.813.143,1.581,1.581,0,0,1-1.1-.35,1.155,1.155,0,0,1-.385-.894,1.191,1.191,0,0,1,.145-.584,1.2,1.2,0,0,1,.381-.423,1.792,1.792,0,0,1,.53-.242,5.267,5.267,0,0,1,.656-.11,6.748,6.748,0,0,0,1.314-.254c0-.1,0-.165,0-.192a.815.815,0,0,0-.209-.635,1.234,1.234,0,0,0-.839-.25,1.3,1.3,0,0,0-.768.182,1.109,1.109,0,0,0-.366.645l-.721-.1a1.783,1.783,0,0,1,.324-.747,1.422,1.422,0,0,1,.651-.439,2.926,2.926,0,0,1,.987-.153,2.612,2.612,0,0,1,.906.131,1.182,1.182,0,0,1,.511.329,1.149,1.149,0,0,1,.23.5,4.139,4.139,0,0,1,.037.68v.982a10.25,10.25,0,0,0,.048,1.3,1.616,1.616,0,0,0,.186.522h-.77a1.577,1.577,0,0,1-.148-.537m-.061-1.646a5.416,5.416,0,0,1-1.2.279,2.778,2.778,0,0,0-.643.147.641.641,0,0,0-.291.239.629.629,0,0,0-.1.35.627.627,0,0,0,.223.491.961.961,0,0,0,.654.2,1.519,1.519,0,0,0,.757-.186,1.147,1.147,0,0,0,.487-.51,1.779,1.779,0,0,0,.119-.737Z" transform="translate(312.657 -754.264)" fill="#fff"/>
      <path id="Caminho_532" data-name="Caminho 532" d="M-282.651,760.367v-4.348h.663v.618a1.563,1.563,0,0,1,1.384-.716,1.816,1.816,0,0,1,.722.141,1.137,1.137,0,0,1,.493.371,1.424,1.424,0,0,1,.229.544,4.2,4.2,0,0,1,.041.716v2.673h-.737v-2.644a1.99,1.99,0,0,0-.086-.674.708.708,0,0,0-.3-.356.969.969,0,0,0-.514-.133,1.193,1.193,0,0,0-.813.3,1.474,1.474,0,0,0-.342,1.134v2.375Z" transform="translate(307.023 -754.263)" fill="#fff"/>
      <path id="Caminho_533" data-name="Caminho 533" d="M-270.061,758.774l.725.094a1.877,1.877,0,0,1-.608,1.173,1.77,1.77,0,0,1-1.2.424,1.87,1.87,0,0,1-1.436-.584,2.369,2.369,0,0,1-.542-1.672,3.023,3.023,0,0,1,.233-1.232,1.63,1.63,0,0,1,.711-.792,2.105,2.105,0,0,1,1.038-.264,1.8,1.8,0,0,1,1.158.358,1.638,1.638,0,0,1,.577,1.017l-.716.11a1.187,1.187,0,0,0-.363-.659.936.936,0,0,0-.628-.221,1.143,1.143,0,0,0-.905.4,1.894,1.894,0,0,0-.348,1.263,1.961,1.961,0,0,0,.336,1.273,1.093,1.093,0,0,0,.876.4,1.033,1.033,0,0,0,.725-.266,1.32,1.32,0,0,0,.368-.819" transform="translate(301.934 -754.263)" fill="#fff"/>
      <path id="Caminho_534" data-name="Caminho 534" d="M-263.631,752.581h.737v.847h-.737Zm0,1.654h.737v4.348h-.737Z" transform="translate(296.863 -752.479)" fill="#fff"/>
      <path id="Caminho_535" data-name="Caminho 535" d="M-257.09,759.831a2.766,2.766,0,0,1-.788.491,2.279,2.279,0,0,1-.813.143,1.581,1.581,0,0,1-1.1-.35,1.155,1.155,0,0,1-.385-.894,1.191,1.191,0,0,1,.145-.584,1.2,1.2,0,0,1,.381-.423,1.787,1.787,0,0,1,.53-.242,5.255,5.255,0,0,1,.655-.11,6.747,6.747,0,0,0,1.314-.254c0-.1,0-.165,0-.192a.815.815,0,0,0-.209-.635,1.235,1.235,0,0,0-.839-.25,1.3,1.3,0,0,0-.768.182,1.112,1.112,0,0,0-.367.645l-.721-.1a1.783,1.783,0,0,1,.324-.747,1.42,1.42,0,0,1,.651-.439,2.926,2.926,0,0,1,.987-.153,2.609,2.609,0,0,1,.905.131,1.184,1.184,0,0,1,.511.329,1.159,1.159,0,0,1,.23.5,4.192,4.192,0,0,1,.037.68v.982a10.374,10.374,0,0,0,.047,1.3,1.628,1.628,0,0,0,.186.522h-.77a1.567,1.567,0,0,1-.147-.537m-.061-1.646a5.416,5.416,0,0,1-1.2.279,2.779,2.779,0,0,0-.643.147.641.641,0,0,0-.291.239.63.63,0,0,0-.1.35.627.627,0,0,0,.223.491.959.959,0,0,0,.653.2,1.516,1.516,0,0,0,.757-.186,1.146,1.146,0,0,0,.487-.51,1.779,1.779,0,0,0,.119-.737Z" transform="translate(295.017 -754.264)" fill="#fff"/>
      <path id="Caminho_536" data-name="Caminho 536" d="M-247.115,758.583v-.549a1.352,1.352,0,0,1-1.216.647,1.706,1.706,0,0,1-.956-.286,1.885,1.885,0,0,1-.675-.8,2.766,2.766,0,0,1-.239-1.181,3.088,3.088,0,0,1,.217-1.181,1.71,1.71,0,0,1,.651-.812,1.738,1.738,0,0,1,.97-.283,1.451,1.451,0,0,1,.7.166,1.473,1.473,0,0,1,.5.432v-2.153h.733v6Zm-2.33-2.17a1.889,1.889,0,0,0,.352,1.249,1.062,1.062,0,0,0,.831.413,1.041,1.041,0,0,0,.821-.395,1.819,1.819,0,0,0,.338-1.206,2.045,2.045,0,0,0-.344-1.31,1.058,1.058,0,0,0-.847-.417,1.021,1.021,0,0,0-.821.4,1.98,1.98,0,0,0-.33,1.265" transform="translate(289.689 -752.479)" fill="#fff"/>
      <path id="Caminho_537" data-name="Caminho 537" d="M-240.209,758.193a2.241,2.241,0,0,1,.671-1.789,2.027,2.027,0,0,1,1.368-.483,1.949,1.949,0,0,1,1.465.587,2.235,2.235,0,0,1,.57,1.623,2.887,2.887,0,0,1-.252,1.321,1.789,1.789,0,0,1-.734.747,2.137,2.137,0,0,1-1.05.266,1.954,1.954,0,0,1-1.476-.586,2.338,2.338,0,0,1-.563-1.687m.757,0a1.853,1.853,0,0,0,.365,1.251,1.167,1.167,0,0,0,.917.416,1.162,1.162,0,0,0,.913-.417,1.9,1.9,0,0,0,.365-1.274,1.8,1.8,0,0,0-.367-1.222,1.165,1.165,0,0,0-.911-.415,1.171,1.171,0,0,0-.917.413,1.846,1.846,0,0,0-.365,1.249" transform="translate(284.351 -754.263)" fill="#fff"/>
      <path id="Caminho_538" data-name="Caminho 538" d="M-224.608,762.033v-6.014h.671v.565a1.667,1.667,0,0,1,.537-.5,1.475,1.475,0,0,1,.724-.166,1.715,1.715,0,0,1,.983.287,1.753,1.753,0,0,1,.643.808,2.948,2.948,0,0,1,.217,1.144,2.9,2.9,0,0,1-.24,1.2,1.8,1.8,0,0,1-.7.818,1.788,1.788,0,0,1-.96.285,1.384,1.384,0,0,1-.661-.156,1.5,1.5,0,0,1-.481-.393v2.117Zm.668-3.815a1.892,1.892,0,0,0,.34,1.24,1.042,1.042,0,0,0,.823.4,1.065,1.065,0,0,0,.841-.416,1.968,1.968,0,0,0,.351-1.287,1.919,1.919,0,0,0-.342-1.245,1.027,1.027,0,0,0-.817-.413,1.062,1.062,0,0,0-.833.44,1.966,1.966,0,0,0-.362,1.28" transform="translate(276.017 -754.263)" fill="#fff"/>
      <path id="Caminho_539" data-name="Caminho 539" d="M-215.186,758.193a2.241,2.241,0,0,1,.671-1.789,2.025,2.025,0,0,1,1.368-.483,1.949,1.949,0,0,1,1.465.587,2.235,2.235,0,0,1,.569,1.623,2.881,2.881,0,0,1-.252,1.321,1.785,1.785,0,0,1-.733.747,2.137,2.137,0,0,1-1.05.266,1.953,1.953,0,0,1-1.476-.586,2.338,2.338,0,0,1-.563-1.687m.757,0a1.853,1.853,0,0,0,.364,1.251,1.168,1.168,0,0,0,.917.416,1.162,1.162,0,0,0,.913-.417,1.9,1.9,0,0,0,.364-1.274,1.8,1.8,0,0,0-.366-1.222,1.166,1.166,0,0,0-.911-.415,1.172,1.172,0,0,0-.917.413,1.846,1.846,0,0,0-.364,1.249" transform="translate(270.984 -754.263)" fill="#fff"/>
      <path id="Caminho_540" data-name="Caminho 540" d="M-204.6,760.367v-4.348h.663v.659a1.8,1.8,0,0,1,.469-.61.821.821,0,0,1,.473-.147,1.435,1.435,0,0,1,.757.238l-.254.684a1.051,1.051,0,0,0-.54-.16.7.7,0,0,0-.434.145.784.784,0,0,0-.274.4,2.863,2.863,0,0,0-.123.859v2.276Z" transform="translate(265.331 -754.263)" fill="#fff"/>
      <path id="Caminho_541" data-name="Caminho 541" d="M-198.152,756.132h.839v.839h-.839Zm0,3.508h.839v.839h-.839Z" transform="translate(261.884 -754.376)" fill="#fff"/>
    </g>
    <g id="Grupo_450" data-name="Grupo 450" transform="translate(364.878 2269.429)">
      <path id="Caminho_542" data-name="Caminho 542" d="M322.77,829.914h.741V831.9a4.178,4.178,0,0,0,.027.613.6.6,0,0,0,.227.361.788.788,0,0,0,.489.136.745.745,0,0,0,.475-.129.508.508,0,0,0,.193-.317,4.164,4.164,0,0,0,.032-.623v-2.029h.741v1.927a4.937,4.937,0,0,1-.06.932,1.033,1.033,0,0,1-.221.46,1.118,1.118,0,0,1-.431.3,1.881,1.881,0,0,1-.706.111,2.037,2.037,0,0,1-.8-.121,1.143,1.143,0,0,1-.429-.315,1.016,1.016,0,0,1-.208-.407,4.442,4.442,0,0,1-.073-.93Z" transform="translate(-271.267 -822.219)" fill="#fff"/>
      <path id="Caminho_543" data-name="Caminho 543" d="M330.738,833.581v-3.667h.721l1.5,2.449v-2.449h.687v3.667H332.9l-1.478-2.391v2.391Z" transform="translate(-275.523 -822.219)" fill="#fff"/>
      <rect id="Retângulo_855" data-name="Retângulo 855" width="0.74" height="3.667" transform="translate(58.884 7.696)" fill="#fff"/>
      <path id="Caminho_544" data-name="Caminho 544" d="M344.6,832.618h-.806l-.32-.833h-1.466l-.3.833h-.786l1.428-3.667h.783Zm-2.441-3.869h-.32c0-.038,0-.069,0-.089a.585.585,0,0,1,.128-.4.419.419,0,0,1,.327-.141.656.656,0,0,1,.162.019,1.924,1.924,0,0,1,.274.107.841.841,0,0,0,.312.089.189.189,0,0,0,.134-.051.268.268,0,0,0,.069-.167h.326a.754.754,0,0,1-.127.483.4.4,0,0,1-.318.145.777.777,0,0,1-.168-.018c-.038-.01-.135-.044-.288-.1a1.081,1.081,0,0,0-.335-.088.16.16,0,0,0-.125.049.252.252,0,0,0-.047.169m1.078,2.418-.5-1.361-.5,1.361Z" transform="translate(-280.961 -821.256)" fill="#fff"/>
      <path id="Caminho_545" data-name="Caminho 545" d="M349.337,831.7a2.324,2.324,0,0,1,.168-.941,1.729,1.729,0,0,1,.341-.5,1.44,1.44,0,0,1,.474-.33,2.009,2.009,0,0,1,.791-.145,1.72,1.72,0,0,1,1.3.5,2.246,2.246,0,0,1,0,2.787,1.71,1.71,0,0,1-1.291.5,1.728,1.728,0,0,1-1.3-.5,1.9,1.9,0,0,1-.483-1.374m.763-.025a1.371,1.371,0,0,0,.288.944.987.987,0,0,0,1.457,0,1.4,1.4,0,0,0,.284-.956,1.379,1.379,0,0,0-.276-.941,1.024,1.024,0,0,0-1.472,0,1.384,1.384,0,0,0-.28.947" transform="translate(-285.459 -822.148)" fill="#fff"/>
      <path id="Caminho_546" data-name="Caminho 546" d="M361.268,833.581v-3.667h2.719v.621h-1.978v.813h1.84v.618h-1.84v1h2.048v.618Z" transform="translate(-291.832 -822.219)" fill="#fff"/>
      <path id="Caminho_547" data-name="Caminho 547" d="M368.592,829.914h.741V831.9a4.2,4.2,0,0,0,.027.613.6.6,0,0,0,.227.361.786.786,0,0,0,.489.136.745.745,0,0,0,.475-.129.508.508,0,0,0,.193-.317,4.16,4.16,0,0,0,.032-.623v-2.029h.741v1.927a4.94,4.94,0,0,1-.06.932,1.038,1.038,0,0,1-.221.46,1.12,1.12,0,0,1-.432.3,1.881,1.881,0,0,1-.706.111,2.037,2.037,0,0,1-.8-.121,1.147,1.147,0,0,1-.429-.315,1.017,1.017,0,0,1-.208-.407,4.483,4.483,0,0,1-.072-.93Z" transform="translate(-295.745 -822.219)" fill="#fff"/>
      <path id="Caminho_548" data-name="Caminho 548" d="M376.549,833.581v-3.666h1.559a2.68,2.68,0,0,1,.854.1.845.845,0,0,1,.426.352,1.06,1.06,0,0,1,.16.578.978.978,0,0,1-.243.682,1.164,1.164,0,0,1-.725.339,1.74,1.74,0,0,1,.4.308,4.163,4.163,0,0,1,.421.6l.448.715h-.885l-.536-.8a5.344,5.344,0,0,0-.39-.539.569.569,0,0,0-.223-.152,1.22,1.22,0,0,0-.373-.042h-.15v1.531Zm.741-2.116h.548a2.806,2.806,0,0,0,.665-.045.4.4,0,0,0,.208-.155.481.481,0,0,0,.075-.275.44.44,0,0,0-.1-.3.455.455,0,0,0-.279-.144c-.06-.008-.239-.012-.54-.012h-.577Z" transform="translate(-299.995 -822.219)" fill="#fff"/>
      <path id="Caminho_549" data-name="Caminho 549" d="M384.162,831.7a2.316,2.316,0,0,1,.169-.941,1.718,1.718,0,0,1,.341-.5,1.437,1.437,0,0,1,.475-.33,2.006,2.006,0,0,1,.79-.145,1.719,1.719,0,0,1,1.3.5,2.246,2.246,0,0,1,0,2.787,1.709,1.709,0,0,1-1.291.5,1.728,1.728,0,0,1-1.3-.5,1.9,1.9,0,0,1-.483-1.374m.763-.025a1.371,1.371,0,0,0,.287.944.987.987,0,0,0,1.457,0,1.4,1.4,0,0,0,.284-.956,1.382,1.382,0,0,0-.275-.941,1.025,1.025,0,0,0-1.472,0,1.384,1.384,0,0,0-.28.947" transform="translate(-304.062 -822.148)" fill="#fff"/>
      <path id="Caminho_550" data-name="Caminho 550" d="M393.038,833.581v-3.667h1.189a4.277,4.277,0,0,1,.88.056.958.958,0,0,1,.527.358,1.138,1.138,0,0,1,.213.714,1.191,1.191,0,0,1-.122.568,1.016,1.016,0,0,1-.311.361,1.074,1.074,0,0,1-.384.174,4.24,4.24,0,0,1-.769.053h-.483v1.383Zm.741-3.046v1.041h.4a1.9,1.9,0,0,0,.586-.058.485.485,0,0,0,.232-.18.5.5,0,0,0,.084-.285.471.471,0,0,0-.118-.33.511.511,0,0,0-.3-.163,3.551,3.551,0,0,0-.532-.025Z" transform="translate(-308.803 -822.219)" fill="#fff"/>
      <path id="Caminho_551" data-name="Caminho 551" d="M400.373,833.581v-3.667h2.719v.621h-1.978v.813h1.84v.618h-1.84v1h2.048v.618Z" transform="translate(-312.722 -822.219)" fill="#fff"/>
      <rect id="Retângulo_856" data-name="Retângulo 856" width="0.74" height="3.667" transform="translate(91.045 7.696)" fill="#fff"/>
      <path id="Caminho_552" data-name="Caminho 552" d="M413.64,833.582h-.806l-.32-.833h-1.466l-.3.833h-.786l1.428-3.667h.783Zm-1.363-1.451-.505-1.361-.5,1.361Z" transform="translate(-317.844 -822.219)" fill="#fff"/>
      <path id="Caminho_553" data-name="Caminho 553" d="M322.883,859.634v-3.666h2.474v.433h-1.989v1.135h1.721v.433h-1.721v1.665Z" transform="translate(-271.327 -836.136)" fill="#fff"/>
      <path id="Caminho_554" data-name="Caminho 554" d="M331.151,860.793v-.39a.973.973,0,0,1-.843.45,1.084,1.084,0,0,1-.439-.09.717.717,0,0,1-.3-.226.832.832,0,0,1-.139-.334,2.252,2.252,0,0,1-.028-.421v-1.645h.45v1.472a2.635,2.635,0,0,0,.028.476.463.463,0,0,0,.18.278.557.557,0,0,0,.34.1.741.741,0,0,0,.38-.1.577.577,0,0,0,.252-.283,1.413,1.413,0,0,0,.074-.519v-1.423h.45v2.656Z" transform="translate(-274.808 -837.296)" fill="#fff"/>
      <path id="Caminho_555" data-name="Caminho 555" d="M335.537,860.724v-2.656h.405v.377a.956.956,0,0,1,.846-.437,1.108,1.108,0,0,1,.442.086.689.689,0,0,1,.3.226.847.847,0,0,1,.14.333,2.545,2.545,0,0,1,.026.437v1.633h-.45v-1.615a1.217,1.217,0,0,0-.052-.411.431.431,0,0,0-.187-.218.592.592,0,0,0-.314-.082.732.732,0,0,0-.5.183.9.9,0,0,0-.208.693v1.45Z" transform="translate(-278.087 -837.227)" fill="#fff"/>
      <path id="Caminho_556" data-name="Caminho 556" d="M343.191,859.634V859.3a.827.827,0,0,1-.742.4,1.046,1.046,0,0,1-.585-.175,1.15,1.15,0,0,1-.413-.489,1.686,1.686,0,0,1-.146-.721,1.9,1.9,0,0,1,.132-.722,1.049,1.049,0,0,1,.4-.5,1.062,1.062,0,0,1,.593-.172.889.889,0,0,1,.428.1.911.911,0,0,1,.3.264v-1.315h.448v3.667Zm-1.423-1.326a1.152,1.152,0,0,0,.216.763.648.648,0,0,0,.508.252.637.637,0,0,0,.5-.241,1.111,1.111,0,0,0,.206-.736,1.246,1.246,0,0,0-.21-.8.646.646,0,0,0-.517-.255.622.622,0,0,0-.5.246,1.207,1.207,0,0,0-.2.773" transform="translate(-281.168 -836.136)" fill="#fff"/>
      <path id="Caminho_557" data-name="Caminho 557" d="M347.409,859.4a1.367,1.367,0,0,1,.41-1.093,1.234,1.234,0,0,1,.835-.3,1.191,1.191,0,0,1,.9.359,1.362,1.362,0,0,1,.348.991,1.759,1.759,0,0,1-.154.807,1.087,1.087,0,0,1-.448.457,1.3,1.3,0,0,1-.641.163,1.2,1.2,0,0,1-.9-.358,1.429,1.429,0,0,1-.344-1.03m.463,0a1.128,1.128,0,0,0,.223.763.741.741,0,0,0,1.118,0,1.159,1.159,0,0,0,.222-.778,1.1,1.1,0,0,0-.224-.746.742.742,0,0,0-1.117,0,1.125,1.125,0,0,0-.223.763" transform="translate(-284.429 -837.227)" fill="#fff"/>
      <path id="Caminho_558" data-name="Caminho 558" d="M356.707,858.384l.458-.04a1,1,0,0,0,.152.451.823.823,0,0,0,.369.285,1.388,1.388,0,0,0,.563.109,1.343,1.343,0,0,0,.489-.082.682.682,0,0,0,.317-.226.525.525,0,0,0,.1-.314.477.477,0,0,0-.1-.3.75.75,0,0,0-.331-.217,6.654,6.654,0,0,0-.652-.179,3.307,3.307,0,0,1-.708-.228,1,1,0,0,1-.391-.341.842.842,0,0,1-.128-.456.927.927,0,0,1,.157-.519.97.97,0,0,1,.46-.366,1.746,1.746,0,0,1,.673-.125,1.835,1.835,0,0,1,.719.131,1.037,1.037,0,0,1,.48.387,1.1,1.1,0,0,1,.179.578l-.465.035a.745.745,0,0,0-.254-.525.984.984,0,0,0-.639-.178,1.027,1.027,0,0,0-.642.162.483.483,0,0,0-.2.389.417.417,0,0,0,.142.325,1.953,1.953,0,0,0,.732.261,4.884,4.884,0,0,1,.812.234,1.107,1.107,0,0,1,.472.374.914.914,0,0,1,.153.521.994.994,0,0,1-.168.552,1.106,1.106,0,0,1-.482.4,1.672,1.672,0,0,1-.706.144,2.115,2.115,0,0,1-.834-.145,1.166,1.166,0,0,1-.528-.436,1.236,1.236,0,0,1-.2-.659" transform="translate(-289.396 -836.065)" fill="#fff"/>
      <path id="Caminho_559" data-name="Caminho 559" d="M363.913,859.4a1.367,1.367,0,0,1,.41-1.093,1.234,1.234,0,0,1,.835-.3,1.191,1.191,0,0,1,.9.359,1.362,1.362,0,0,1,.348.991,1.758,1.758,0,0,1-.154.807,1.087,1.087,0,0,1-.448.457,1.3,1.3,0,0,1-.641.163,1.2,1.2,0,0,1-.9-.358,1.431,1.431,0,0,1-.343-1.03m.463,0a1.128,1.128,0,0,0,.223.763.741.741,0,0,0,1.118,0,1.159,1.159,0,0,0,.222-.778,1.1,1.1,0,0,0-.224-.746.742.742,0,0,0-1.117,0,1.126,1.126,0,0,0-.223.763" transform="translate(-293.245 -837.227)" fill="#fff"/>
      <path id="Caminho_560" data-name="Caminho 560" d="M371.962,859.751l.443.058a1.148,1.148,0,0,1-.372.716,1.08,1.08,0,0,1-.734.259,1.142,1.142,0,0,1-.877-.356,1.45,1.45,0,0,1-.331-1.022,1.85,1.85,0,0,1,.143-.753.994.994,0,0,1,.434-.484,1.282,1.282,0,0,1,.634-.161,1.1,1.1,0,0,1,.708.219,1,1,0,0,1,.352.621l-.437.067a.729.729,0,0,0-.222-.4.572.572,0,0,0-.384-.135.7.7,0,0,0-.552.244,1.158,1.158,0,0,0-.212.771,1.2,1.2,0,0,0,.2.778.668.668,0,0,0,.535.243.632.632,0,0,0,.443-.163.8.8,0,0,0,.224-.5" transform="translate(-296.546 -837.227)" fill="#fff"/>
      <path id="Caminho_561" data-name="Caminho 561" d="M375.892,855.967h.449v.518h-.449Zm0,1.011h.449v2.656h-.449Z" transform="translate(-299.644 -836.136)" fill="#fff"/>
      <path id="Caminho_562" data-name="Caminho 562" d="M379.887,860.4a1.66,1.66,0,0,1-.481.3,1.4,1.4,0,0,1-.5.088.965.965,0,0,1-.673-.214.706.706,0,0,1-.235-.547.741.741,0,0,1,.321-.615,1.085,1.085,0,0,1,.324-.148,3.271,3.271,0,0,1,.4-.068,4.112,4.112,0,0,0,.8-.155q0-.093,0-.117a.5.5,0,0,0-.129-.388.753.753,0,0,0-.512-.152.8.8,0,0,0-.469.111.672.672,0,0,0-.224.394l-.441-.06a1.1,1.1,0,0,1,.2-.456.86.86,0,0,1,.4-.268,1.774,1.774,0,0,1,.6-.094,1.587,1.587,0,0,1,.552.08.63.63,0,0,1,.453.507,2.558,2.558,0,0,1,.022.416v.6a6.423,6.423,0,0,0,.028.794.993.993,0,0,0,.114.319h-.47a.98.98,0,0,1-.09-.328m-.037-1.005a3.314,3.314,0,0,1-.735.17,1.681,1.681,0,0,0-.394.09.391.391,0,0,0-.177.146.4.4,0,0,0,.074.514.594.594,0,0,0,.4.12.925.925,0,0,0,.462-.114.7.7,0,0,0,.3-.311,1.1,1.1,0,0,0,.072-.451Z" transform="translate(-300.771 -837.227)" fill="#fff"/>
      <rect id="Retângulo_857" data-name="Retângulo 857" width="0.45" height="3.667" transform="translate(80.222 19.831)" fill="#fff"/>
      <path id="Caminho_563" data-name="Caminho 563" d="M390.088,859.634v-3.666h2.651v.433h-2.166v1.123H392.6v.43h-2.029V859.2h2.251v.433Z" transform="translate(-307.228 -836.136)" fill="#fff"/>
      <path id="Caminho_564" data-name="Caminho 564" d="M399.005,860.793v-.39a.973.973,0,0,1-.844.45,1.082,1.082,0,0,1-.439-.09.722.722,0,0,1-.3-.226.831.831,0,0,1-.138-.334,2.21,2.21,0,0,1-.028-.421v-1.645h.45v1.472a2.645,2.645,0,0,0,.027.476.468.468,0,0,0,.18.278.558.558,0,0,0,.341.1.742.742,0,0,0,.38-.1.574.574,0,0,0,.251-.283,1.414,1.414,0,0,0,.074-.519v-1.423h.45v2.656Z" transform="translate(-311.056 -837.296)" fill="#fff"/>
      <path id="Caminho_565" data-name="Caminho 565" d="M403.381,860.724v-2.656h.4v.4a1.12,1.12,0,0,1,.286-.372.5.5,0,0,1,.289-.09.882.882,0,0,1,.464.145l-.155.418a.647.647,0,0,0-.33-.1.432.432,0,0,0-.266.089.475.475,0,0,0-.167.246,1.745,1.745,0,0,0-.075.525v1.39Z" transform="translate(-314.329 -837.227)" fill="#fff"/>
      <path id="Caminho_566" data-name="Caminho 566" d="M406.694,859.4a1.367,1.367,0,0,1,.41-1.093,1.234,1.234,0,0,1,.835-.3,1.191,1.191,0,0,1,.9.359,1.362,1.362,0,0,1,.348.991,1.759,1.759,0,0,1-.154.807,1.087,1.087,0,0,1-.448.457,1.3,1.3,0,0,1-.641.163,1.2,1.2,0,0,1-.9-.358,1.429,1.429,0,0,1-.344-1.03m.463,0a1.128,1.128,0,0,0,.222.763.741.741,0,0,0,1.118,0,1.159,1.159,0,0,0,.222-.778,1.1,1.1,0,0,0-.223-.746.743.743,0,0,0-1.117,0,1.126,1.126,0,0,0-.222.763" transform="translate(-316.098 -837.227)" fill="#fff"/>
      <path id="Caminho_567" data-name="Caminho 567" d="M413.168,861.742v-3.674h.411v.345a1.012,1.012,0,0,1,.327-.3.9.9,0,0,1,.442-.1,1.047,1.047,0,0,1,.6.175,1.069,1.069,0,0,1,.393.494,1.8,1.8,0,0,1,.133.7,1.775,1.775,0,0,1-.146.734,1.112,1.112,0,0,1-1.012.674.847.847,0,0,1-.4-.1.916.916,0,0,1-.294-.241v1.294Zm.408-2.331a1.156,1.156,0,0,0,.208.758.638.638,0,0,0,.5.245.653.653,0,0,0,.515-.254,1.2,1.2,0,0,0,.214-.787,1.176,1.176,0,0,0-.209-.76.631.631,0,0,0-.5-.253.644.644,0,0,0-.508.269,1.2,1.2,0,0,0-.222.782" transform="translate(-319.557 -837.227)" fill="#fff"/>
      <path id="Caminho_568" data-name="Caminho 568" d="M420.93,859.868l.465.058a1.138,1.138,0,0,1-.408.633,1.38,1.38,0,0,1-1.685-.134,1.4,1.4,0,0,1-.342-1.007,1.468,1.468,0,0,1,.345-1.041,1.17,1.17,0,0,1,.9-.37,1.137,1.137,0,0,1,.871.362,1.438,1.438,0,0,1,.338,1.021c0,.027,0,.067,0,.12h-1.981a1.021,1.021,0,0,0,.248.67.737.737,0,0,0,.556.232.688.688,0,0,0,.422-.13.866.866,0,0,0,.278-.416m-1.478-.727h1.483a.9.9,0,0,0-.17-.5.691.691,0,0,0-.558-.26.717.717,0,0,0-.521.207.822.822,0,0,0-.234.556" transform="translate(-322.651 -837.227)" fill="#fff"/>
      <path id="Caminho_569" data-name="Caminho 569" d="M427.128,860.793v-.39a.972.972,0,0,1-.843.45,1.082,1.082,0,0,1-.439-.09.722.722,0,0,1-.3-.226.832.832,0,0,1-.138-.334,2.25,2.25,0,0,1-.028-.421v-1.645h.45v1.472a2.641,2.641,0,0,0,.027.476.467.467,0,0,0,.18.278.559.559,0,0,0,.341.1.742.742,0,0,0,.38-.1.574.574,0,0,0,.251-.283,1.4,1.4,0,0,0,.074-.519v-1.423h.45v2.656Z" transform="translate(-326.079 -837.296)" fill="#fff"/>
      <rect id="Retângulo_858" data-name="Retângulo 858" width="47.154" height="31.436" transform="translate(0 0)" fill="none" stroke="#fff" stroke-miterlimit="10" stroke-width="1"/>
      <path id="Caminho_570" data-name="Caminho 570" d="M259.938,824.555l.995-.726.995.726-.378-1.174,1.011-.726h-1.247l-.381-1.188-.381,1.19-1.244,0,1.009.726Z" transform="translate(-237.366 -817.707)" fill="#fff"/>
      <path id="Caminho_571" data-name="Caminho 571" d="M248.884,827.524l.994-.726.994.726-.377-1.174,1.01-.726h-1.247l-.38-1.189-.382,1.19h-1.245l1.009.726Z" transform="translate(-231.46 -819.292)" fill="#fff"/>
      <path id="Caminho_572" data-name="Caminho 572" d="M241.789,832.54l-.381,1.191h-1.245l1.01.726-.378,1.174.995-.726,1,.726-.379-1.174,1.01-.726H242.17Z" transform="translate(-227.139 -823.622)" fill="#fff"/>
      <path id="Caminho_573" data-name="Caminho 573" d="M238.823,845.944l.994.725-.378-1.174,1.01-.727H239.2l-.381-1.19-.381,1.193-1.245,0,1.009.727-.379,1.174Z" transform="translate(-225.554 -829.519)" fill="#fff"/>
      <path id="Caminho_574" data-name="Caminho 574" d="M242.17,855.844l-.381-1.19-.381,1.192-1.246,0,1.01.726-.378,1.174.994-.727.995.727-.378-1.174,1.01-.726Z" transform="translate(-227.138 -835.435)" fill="#fff"/>
      <path id="Caminho_575" data-name="Caminho 575" d="M250.276,863.95l-.382-1.187-.381,1.188h-1.245l1.009.726-.378,1.174.995-.726.993.726-.377-1.174,1.01-.726Z" transform="translate(-231.469 -839.767)" fill="#fff"/>
      <path id="Caminho_576" data-name="Caminho 576" d="M261.315,866.885l-.381-1.19-.382,1.191h-1.245l1.009.726-.377,1.174.995-.726.994.726-.379-1.174,1.012-.726Z" transform="translate(-237.366 -841.333)" fill="#fff"/>
      <path id="Caminho_577" data-name="Caminho 577" d="M272.357,863.95l-.381-1.187-.383,1.188H270.35l1.009.726-.378,1.174.995-.726.994.726-.378-1.174,1.011-.726Z" transform="translate(-243.264 -839.767)" fill="#fff"/>
      <path id="Caminho_578" data-name="Caminho 578" d="M280.462,855.844l-.382-1.19-.383,1.192-1.244,0,1.01.726-.379,1.174.995-.727.994.727-.378-1.174,1.01-.726Z" transform="translate(-247.594 -835.435)" fill="#fff"/>
      <path id="Caminho_579" data-name="Caminho 579" d="M284.642,844.739H283.4l-.381-1.189-.381,1.191-1.245,0,1.009.727-.378,1.174.994-.728.994.728-.378-1.174Z" transform="translate(-249.161 -829.503)" fill="#fff"/>
      <path id="Caminho_580" data-name="Caminho 580" d="M279.086,835.6l1-.726.994.726-.379-1.174,1.01-.724h-1.244l-.382-1.19L279.7,833.7h-1.243l1.01.724Z" transform="translate(-247.594 -823.605)" fill="#fff"/>
      <path id="Caminho_581" data-name="Caminho 581" d="M272.008,824.435l-.381,1.192-1.245,0,1.009.727-.378,1.174,1-.727.993.727-.378-1.174,1.01-.727h-1.246Z" transform="translate(-243.281 -819.292)" fill="#fff"/>
    </g>
    <path id="Caminho_582" data-name="Caminho 582" d="M-334.964,813.153v17.509c10.74,2.594,20.815-13.271,29.489-10.074v-3.313c-6.761-5.34-21.973-5.983-29.489-4.121" transform="translate(444.968 1456.669)" fill="#fff"/>
    <path id="Caminho_583" data-name="Caminho 583" d="M-305.476,859.087V841.578c-10.74-2.595-20.816,13.271-29.489,10.074v3.313c6.76,5.34,21.973,5.983,29.489,4.121" transform="translate(444.968 1441.133)" fill="#fff"/>
    <path id="Caminho_584" data-name="Caminho 584" d="M-256.66,867.214a1.442,1.442,0,0,0-.5-1.224,2.713,2.713,0,0,0-1.676-.4,6.486,6.486,0,0,0-.966.078,6.171,6.171,0,0,0-.85.187.286.286,0,0,0-.114.058.138.138,0,0,0-.049.1v.664a.186.186,0,0,0,.042.121.142.142,0,0,0,.112.05h.018c.265-.027.544-.052.839-.075s.574-.035.84-.036a1.475,1.475,0,0,1,.711.119.4.4,0,0,1,.193.393.649.649,0,0,1-.061.319.883.883,0,0,1-.254.272c-.125.1-.311.23-.556.4l-.785.554a2.85,2.85,0,0,0-.822.9,2.538,2.538,0,0,0-.338,1.263v.869a.174.174,0,0,0,.05.121.178.178,0,0,0,.121.05h3.8a.174.174,0,0,0,.12-.05.174.174,0,0,0,.05-.121v-.877a.157.157,0,0,0-.05-.116.174.174,0,0,0-.12-.046h-2.7v-.034a1.068,1.068,0,0,1,.348-.767,5.5,5.5,0,0,1,.89-.684l.725-.486a2.467,2.467,0,0,0,.726-.7,1.638,1.638,0,0,0,.254-.9" transform="translate(405.389 1428.154)" fill="#fff"/>
    <path id="Caminho_585" data-name="Caminho 585" d="M-244.885,869.2v-.734a3.346,3.346,0,0,0-.607-2.209,2.1,2.1,0,0,0-1.695-.674,2.086,2.086,0,0,0-1.69.674,3.355,3.355,0,0,0-.6,2.209v.734a3.336,3.336,0,0,0,.6,2.2,2.089,2.089,0,0,0,1.69.669,2.1,2.1,0,0,0,1.695-.669,3.327,3.327,0,0,0,.607-2.2m-1.457,0a3.8,3.8,0,0,1-.113,1.03.937.937,0,0,1-.3.5.676.676,0,0,1-.431.132.668.668,0,0,1-.429-.132.931.931,0,0,1-.3-.5,3.86,3.86,0,0,1-.11-1.03v-.734a3.882,3.882,0,0,1,.11-1.033.951.951,0,0,1,.3-.506.669.669,0,0,1,.429-.134.676.676,0,0,1,.431.134.956.956,0,0,1,.3.506,3.822,3.822,0,0,1,.113,1.033Z" transform="translate(399.303 1428.154)" fill="#fff" fill-rule="evenodd"/>
    <path id="Caminho_586" data-name="Caminho 586" d="M-233.036,867.214a1.441,1.441,0,0,0-.5-1.224,2.719,2.719,0,0,0-1.676-.4,6.492,6.492,0,0,0-.966.078,6.217,6.217,0,0,0-.85.187.282.282,0,0,0-.113.058.134.134,0,0,0-.049.1v.664a.178.178,0,0,0,.042.121.141.141,0,0,0,.111.05h.018q.4-.04.839-.075c.3-.023.575-.035.841-.036a1.48,1.48,0,0,1,.712.119.406.406,0,0,1,.193.393.659.659,0,0,1-.061.319.9.9,0,0,1-.254.272c-.126.1-.312.23-.556.4l-.785.554a2.844,2.844,0,0,0-.822.9,2.533,2.533,0,0,0-.337,1.263v.869a.172.172,0,0,0,.05.121.177.177,0,0,0,.121.05h3.794a.176.176,0,0,0,.121-.05.176.176,0,0,0,.05-.121v-.877a.159.159,0,0,0-.05-.116.177.177,0,0,0-.121-.046h-2.695v-.034a1.07,1.07,0,0,1,.347-.767,5.588,5.588,0,0,1,.891-.684l.725-.486a2.471,2.471,0,0,0,.727-.7,1.638,1.638,0,0,0,.253-.9" transform="translate(392.769 1428.154)" fill="#fff"/>
    <path id="Caminho_587" data-name="Caminho 587" d="M-221.26,869.2v-.734a3.349,3.349,0,0,0-.607-2.209,2.1,2.1,0,0,0-1.7-.674,2.088,2.088,0,0,0-1.69.674,3.358,3.358,0,0,0-.6,2.209v.734a3.339,3.339,0,0,0,.6,2.2,2.091,2.091,0,0,0,1.69.669,2.1,2.1,0,0,0,1.7-.669,3.329,3.329,0,0,0,.607-2.2m-1.458,0a3.785,3.785,0,0,1-.113,1.03.934.934,0,0,1-.3.5.677.677,0,0,1-.432.132.669.669,0,0,1-.429-.132.937.937,0,0,1-.3-.5,3.837,3.837,0,0,1-.11-1.03v-.734a3.858,3.858,0,0,1,.11-1.033.956.956,0,0,1,.3-.506.669.669,0,0,1,.429-.134.678.678,0,0,1,.432.134.953.953,0,0,1,.3.506,3.806,3.806,0,0,1,.113,1.033Z" transform="translate(386.683 1428.154)" fill="#fff" fill-rule="evenodd"/>
    <path id="Caminho_588" data-name="Caminho 588" d="M-250.438,839.811a.231.231,0,0,0-.009-.035.2.2,0,0,1-.008-.047l-2.46-10.234a2.153,2.153,0,0,0-1.077-1.509,3.526,3.526,0,0,0-1.647-.322,3.57,3.57,0,0,0-1.655.322,2.144,2.144,0,0,0-1.084,1.509l-2.46,10.234a.165.165,0,0,1-.008.047.187.187,0,0,0-.009.035.257.257,0,0,0,.079.194.3.3,0,0,0,.2.07h2.311a.31.31,0,0,0,.215-.087.386.386,0,0,0,.116-.21l.594-2.707h3.385l.594,2.707a.387.387,0,0,0,.116.21.309.309,0,0,0,.214.087h2.311a.3.3,0,0,0,.2-.07.256.256,0,0,0,.079-.194m-3.979-5h-2.459l1.006-4.558a.407.407,0,0,1,.073-.186.19.19,0,0,1,.158-.062.168.168,0,0,1,.15.062.454.454,0,0,1,.064.186Z" transform="translate(405.379 1448.414)" fill="#fff" fill-rule="evenodd"/>
    <path id="Caminho_589" data-name="Caminho 589" d="M-228.287,839.838V838.3a.327.327,0,0,0-.1-.233.33.33,0,0,0-.233-.1h-2.84a1.087,1.087,0,0,1-.819-.239,1.236,1.236,0,0,1-.238-.884v-8.534a.324.324,0,0,0-.1-.233.328.328,0,0,0-.233-.1H-235a.328.328,0,0,0-.233.1.327.327,0,0,0-.1.233v8.534a3.914,3.914,0,0,0,.571,2.255,2.712,2.712,0,0,0,1.465,1.04,6.57,6.57,0,0,0,1.99.253q.69,0,1.469-.064a10.758,10.758,0,0,0,1.221-.15.5.5,0,0,0,.252-.111.313.313,0,0,0,.078-.235" transform="translate(391.746 1448.24)" fill="#fff"/>
    <path id="Caminho_590" data-name="Caminho 590" d="M-209.539,839.666v-1.534a.331.331,0,0,0-.1-.233.331.331,0,0,0-.233-.1h-3.351a1.084,1.084,0,0,1-.819-.239,1.234,1.234,0,0,1-.238-.884v-1.751H-210a.331.331,0,0,0,.233-.1.325.325,0,0,0,.1-.232V833.03a.327.327,0,0,0-.1-.233.332.332,0,0,0-.233-.1h-4.276v-1.5a1.236,1.236,0,0,1,.238-.884,1.09,1.09,0,0,1,.819-.239h3.351a.331.331,0,0,0,.233-.1.33.33,0,0,0,.1-.234V828.21a.306.306,0,0,0-.079-.233.446.446,0,0,0-.252-.1q-.411-.067-1.141-.138t-2.045-.076a6.641,6.641,0,0,0-1.989.249,2.685,2.685,0,0,0-1.465,1.032,3.884,3.884,0,0,0-.57,2.251v5.482a3.918,3.918,0,0,0,.566,2.255,2.686,2.686,0,0,0,1.457,1.04,6.533,6.533,0,0,0,1.986.253q1.316-.006,2.053-.076t1.15-.138a.415.415,0,0,0,.252-.105.331.331,0,0,0,.079-.241" transform="translate(381.996 1448.412)" fill="#fff"/>
    <path id="Caminho_591" data-name="Caminho 591" d="M-186.689,839.623V828.3a.3.3,0,0,0-.1-.225.337.337,0,0,0-.233-.088h-1.947a.337.337,0,0,0-.232.088.3.3,0,0,0-.1.225v6.982a.205.205,0,0,1-.028.118.066.066,0,0,1-.054.03.072.072,0,0,1-.06-.029,1.2,1.2,0,0,1-.073-.1l-3.914-6.8a1.294,1.294,0,0,0-.3-.386.6.6,0,0,0-.4-.125h-1.666a.624.624,0,0,0-.444.183.63.63,0,0,0-.183.443V839.92a.334.334,0,0,0,.1.234.329.329,0,0,0,.232.1h1.947a.331.331,0,0,0,.233-.1.327.327,0,0,0,.1-.234v-6.684a.18.18,0,0,1,.022-.1.07.07,0,0,1,.059-.029.1.1,0,0,1,.068.029.617.617,0,0,1,.081.1l3.766,6.5a1.041,1.041,0,0,0,.4.423.945.945,0,0,0,.46.089h1.616a.655.655,0,0,0,.452-.183.617.617,0,0,0,.191-.443" transform="translate(370.953 1448.239)" fill="#fff"/>
    <path id="Caminho_592" data-name="Caminho 592" d="M-163.305,830v-1.7a.294.294,0,0,0-.105-.225.367.367,0,0,0-.241-.088h-8.186a.337.337,0,0,0-.233.088.3.3,0,0,0-.1.225V830a.3.3,0,0,0,.1.225.344.344,0,0,0,.233.089h2.69v9.607a.331.331,0,0,0,.1.234.332.332,0,0,0,.234.1h2.161a.328.328,0,0,0,.233-.1.333.333,0,0,0,.1-.234v-9.607h2.674a.374.374,0,0,0,.241-.089.3.3,0,0,0,.105-.225" transform="translate(358.003 1448.24)" fill="#fff"/>
    <path id="Caminho_593" data-name="Caminho 593" d="M-142.317,839.666v-1.534a.326.326,0,0,0-.1-.233.329.329,0,0,0-.233-.1H-146a1.083,1.083,0,0,1-.819-.239,1.232,1.232,0,0,1-.237-.884v-1.751h4.275a.33.33,0,0,0,.233-.1.324.324,0,0,0,.1-.232V833.03a.326.326,0,0,0-.1-.233.332.332,0,0,0-.233-.1h-4.275v-1.5a1.233,1.233,0,0,1,.237-.884,1.089,1.089,0,0,1,.819-.239h3.351a.329.329,0,0,0,.233-.1.325.325,0,0,0,.1-.234V828.21a.3.3,0,0,0-.078-.233.448.448,0,0,0-.252-.1q-.411-.067-1.141-.138t-2.045-.076a6.643,6.643,0,0,0-1.989.249,2.692,2.692,0,0,0-1.465,1.032,3.887,3.887,0,0,0-.571,2.251v5.482a3.93,3.93,0,0,0,.566,2.255,2.692,2.692,0,0,0,1.457,1.04,6.542,6.542,0,0,0,1.986.253q1.316-.006,2.053-.076c.491-.047.876-.094,1.15-.138a.417.417,0,0,0,.252-.105.325.325,0,0,0,.078-.241" transform="translate(346.085 1448.412)" fill="#fff"/>
    <path id="Caminho_594" data-name="Caminho 594" d="M-128.012,840.351V828.3a.3.3,0,0,0-.1-.225.34.34,0,0,0-.233-.088H-130.5a.34.34,0,0,0-.233.088.31.31,0,0,0-.1.225v12.05a.908.908,0,0,1-.071.452c-.055.1-.174.144-.358.143h-.825a.163.163,0,0,0-.135.072.29.29,0,0,0-.048.159v1.682a.285.285,0,0,0,.068.19.28.28,0,0,0,.18.091q.322.037.552.051c.154.01.321.015.5.015a3.261,3.261,0,0,0,2.1-.586,2.737,2.737,0,0,0,.852-2.268" transform="translate(336.69 1448.24)" fill="#fff"/>
    <path id="Caminho_595" data-name="Caminho 595" d="M-108.97,834.93v-1.965a6.443,6.443,0,0,0-.661-3.075,3.926,3.926,0,0,0-1.747-1.7,5.564,5.564,0,0,0-2.477-.523,5.566,5.566,0,0,0-2.478.523,3.927,3.927,0,0,0-1.748,1.7,6.465,6.465,0,0,0-.661,3.075v1.965a6.466,6.466,0,0,0,.661,3.076,3.927,3.927,0,0,0,1.748,1.7,5.553,5.553,0,0,0,2.478.523,5.551,5.551,0,0,0,2.477-.523,3.926,3.926,0,0,0,1.747-1.7,6.444,6.444,0,0,0,.661-3.076m-2.837,0a3.627,3.627,0,0,1-.5,2.155,1.78,1.78,0,0,1-1.544.669,1.762,1.762,0,0,1-1.537-.669,3.664,3.664,0,0,1-.5-2.155v-1.965a3.665,3.665,0,0,1,.5-2.155,1.76,1.76,0,0,1,1.537-.668,1.779,1.779,0,0,1,1.544.668,3.628,3.628,0,0,1,.5,2.155Z" transform="translate(329.463 1448.411)" fill="#fff" fill-rule="evenodd"/>
  </g>
</svg>
