 <svg xmlns="http://www.w3.org/2000/svg" width="18.769" height="18.769" viewBox="0 0 18.769 18.769"><path d="M13.178,0H5.591A5.6,5.6,0,0,0,0,5.591v7.586a5.6,5.6,0,0,0,5.591,5.591h7.586a5.6,5.6,0,0,0,5.591-5.591V5.591A5.6,5.6,0,0,0,13.178,0Zm3.7,13.178a3.7,3.7,0,0,1-3.7,3.7H5.591a3.7,3.7,0,0,1-3.7-3.7V5.591a3.7,3.7,0,0,1,3.7-3.7h7.586a3.7,3.7,0,0,1,3.7,3.7v7.586Z" fill="#fff"/><path d="M137.854,133a4.854,4.854,0,1,0,4.854,4.854A4.86,4.86,0,0,0,137.854,133Zm0,7.821a2.966,2.966,0,1,1,2.966-2.966A2.966,2.966,0,0,1,137.854,140.821Z" transform="translate(-128.47 -128.47)" fill="#fff"/><ellipse cx="1.163" cy="1.163" rx="1.163" ry="1.163" transform="translate(13.085 3.403)" fill="#fff"/></svg>