 <svg xmlns="http://www.w3.org/2000/svg" width="16.926" height="16.926" viewBox="0 0 16.926 16.926"><path d="M14.647,0H2.283A2.281,2.281,0,0,0,0,2.281V14.645a2.281,2.281,0,0,0,2.281,2.281h6.1l.01-6.048H6.82a.371.371,0,0,1-.371-.369l-.008-1.95a.371.371,0,0,1,.371-.372H8.381V6.3a3.078,3.078,0,0,1,3.285-3.377h1.6a.371.371,0,0,1,.371.371V4.941a.371.371,0,0,1-.371.371h-.982c-1.061,0-1.266.5-1.266,1.244V8.186h2.331a.371.371,0,0,1,.368.414l-.231,1.95a.371.371,0,0,1-.368.327H11.029l-.01,6.048h3.628a2.281,2.281,0,0,0,2.281-2.281V2.281A2.281,2.281,0,0,0,14.647,0Z" transform="translate(-0.002)" fill="#d9d9d9"/></svg>