 <svg xmlns="http://www.w3.org/2000/svg" width="16.728" height="16.926" viewBox="0 0 16.728 16.926"><path d="M648.266,217H634.911a1.689,1.689,0,0,0-1.686,1.692v13.542a1.689,1.689,0,0,0,1.686,1.692h13.355a1.689,1.689,0,0,0,1.686-1.692V218.7A1.689,1.689,0,0,0,648.266,217ZM638.592,230.4h-2.25v-7.24h2.25Zm-1.14-8.129a1.128,1.128,0,1,1,1.214-1.125A1.122,1.122,0,0,1,637.452,222.268Zm9.357,8.129h-2.25v-4.012c0-.933-.326-1.569-1.14-1.569a1.236,1.236,0,0,0-1.155.844,1.618,1.618,0,0,0-.074.563V230.4h-2.25v-4.93c0-.9-.029-1.658-.059-2.31h1.954l.1,1.007h.044a2.6,2.6,0,0,1,2.236-1.17c1.48,0,2.591.992,2.591,3.124Z" transform="translate(-633.225 -217.004)" fill="#fff"/></svg>