 <svg xmlns="http://www.w3.org/2000/svg" width="18.847" height="18.878" viewBox="0 0 18.847 18.878"><path d="M9.431,0A9.434,9.434,0,0,0,5.992,18.218a9.08,9.08,0,0,1,.031-2.709c.171-.737,1.1-4.688,1.1-4.688a3.435,3.435,0,0,1-.279-1.4c0-1.312.761-2.29,1.708-2.29a1.185,1.185,0,0,1,1.2,1.327A18.647,18.647,0,0,1,8.965,11.6a1.372,1.372,0,0,0,1.4,1.708c1.677,0,2.965-1.77,2.965-4.316A3.722,3.722,0,0,0,9.385,5.162,4.082,4.082,0,0,0,5.123,9.253a3.681,3.681,0,0,0,.7,2.15.281.281,0,0,1,.062.272c-.07.295-.233.939-.264,1.071-.039.171-.14.21-.318.124A4.225,4.225,0,0,1,3.384,9.214c0-2.973,2.158-5.705,6.233-5.705a5.535,5.535,0,0,1,5.814,5.449c0,3.252-2.049,5.868-4.89,5.868a2.506,2.506,0,0,1-2.158-1.087l-.59,2.243a10.275,10.275,0,0,1-1.172,2.476A9.44,9.44,0,1,0,9.431,0Z" fill="#d9d9d9"/></svg>